<svg width="17" height="20" viewBox="0 0 17 20" fill="none" xmlns="http://www.w3.org/2000/svg">
<path d="M0.803982 7.6511C0.814541 3.42013 4.24633 -0.00721343 8.46508 1.14015e-05C12.6955 0.00723623 16.1256 3.46015 16.1062 7.69223C16.0867 11.9243 12.6505 15.3489 8.43396 15.3355C4.21743 15.3222 0.792867 11.8771 0.803982 7.6511Z" fill="#00693E"/>
<path d="M1.80281 17.9165C1.80637 17.8123 1.83314 17.7101 1.88118 17.6175C2.27632 16.765 2.67479 15.9141 3.06438 15.0611C3.1244 14.9299 3.16997 14.9455 3.26945 15.0155C4.4657 15.8719 5.85819 16.4135 7.31869 16.5905C7.45596 16.6072 7.4743 16.6461 7.41539 16.7695C6.97635 17.7009 6.541 18.634 6.10937 19.5688C5.98488 19.8383 5.78425 20.0006 5.48303 20.0001C5.18181 19.9995 4.98285 19.8361 4.85503 19.5688C4.65773 19.1498 4.45155 18.7352 4.26037 18.3139C4.20868 18.2027 4.15422 18.1811 4.0414 18.2116C3.58864 18.3339 3.13441 18.4515 2.67869 18.5645C2.20963 18.6785 1.79614 18.3695 1.80281 17.9165Z" fill="#00693E"/>
<path d="M14.3739 18.5884C14.0849 18.5472 13.7587 18.4294 13.4219 18.3549C13.328 18.3344 13.2346 18.3094 13.1407 18.286C12.7172 18.1799 12.7172 18.1799 12.5249 18.5806C12.3671 18.9107 12.2065 19.2397 12.0509 19.5715C11.9242 19.8405 11.7174 19.9989 11.4201 19.9978C11.1228 19.9966 10.9199 19.831 10.796 19.5615C10.363 18.6273 9.93344 17.693 9.48883 16.7621C9.42325 16.6238 9.47161 16.6032 9.59332 16.5882C11.0541 16.4105 12.4467 15.8679 13.6426 15.0104C13.7537 14.9315 13.7904 14.9465 13.8443 15.066C14.2333 15.9135 14.6318 16.7571 15.0192 17.6058C15.2465 18.0965 14.9425 18.5922 14.3739 18.5884Z" fill="#00693E"/>
<path d="M8.44757 4.14868C8.5803 4.14509 8.71108 4.18121 8.82316 4.25239C8.93524 4.32358 9.02351 4.42661 9.07669 4.54827C9.30343 5.00732 9.53074 5.46582 9.75249 5.9271C9.77006 5.9742 9.80107 6.01511 9.84167 6.04474C9.88228 6.07438 9.93069 6.09145 9.9809 6.09383C10.4544 6.1494 10.9257 6.22832 11.3986 6.29557C11.6209 6.32724 11.831 6.38782 11.975 6.58289C12.0772 6.71664 12.126 6.8837 12.1119 7.05148C12.0977 7.21926 12.0215 7.37575 11.8983 7.49044C11.5509 7.83946 11.2036 8.18903 10.8423 8.52081C10.7023 8.64864 10.685 8.76979 10.7173 8.94041C10.8073 9.41669 10.884 9.89631 10.9629 10.3748C10.9906 10.5012 10.9799 10.6331 10.9322 10.7534C10.8845 10.8737 10.8019 10.977 10.695 11.0501C10.4677 11.2168 10.2188 11.2285 9.97256 11.1012C9.52463 10.87 9.07613 10.6388 8.63486 10.3943C8.58087 10.3599 8.51797 10.3421 8.45396 10.3431C8.38995 10.3441 8.32764 10.3638 8.27473 10.3998C7.85736 10.6294 7.43165 10.8444 7.0115 11.0701C6.7464 11.2112 6.48242 11.2368 6.22899 11.0573C5.97557 10.8778 5.90054 10.6288 5.95667 10.3254C6.04337 9.85518 6.11451 9.38057 6.20232 8.91207C6.22153 8.84354 6.22029 8.7709 6.19877 8.70307C6.17724 8.63524 6.13637 8.57517 6.08116 8.53026C5.72992 8.2057 5.39536 7.86335 5.05135 7.5299C4.84071 7.32594 4.74068 7.09085 4.82904 6.79853C4.91741 6.5062 5.12359 6.3567 5.41648 6.31335C5.92277 6.23777 6.42851 6.15774 6.93647 6.09105C6.98344 6.08861 7.02869 6.07261 7.06676 6.045C7.10483 6.01738 7.13409 5.97933 7.15099 5.93544C7.37329 5.47471 7.60338 5.01788 7.82735 4.55772C7.9535 4.29929 8.15524 4.15924 8.44757 4.14868Z" fill="#FEFEFE"/>
</svg>
