<svg width="179" height="253" viewBox="0 0 179 253" fill="none" xmlns="http://www.w3.org/2000/svg">
<path d="M92.7015 42.8613L86.5719 53.1756C85.6618 54.7072 86.1651 56.6868 87.6962 57.5972L161.442 101.45C162.973 102.361 164.952 101.857 165.862 100.326L171.992 90.0112C172.902 88.4797 172.399 86.5001 170.867 85.5897L97.1217 41.7367C95.5907 40.8263 93.6117 41.3298 92.7015 42.8613Z" fill="#52B572"/>
<path d="M83.0843 58.4454L76.9666 68.7647C76.0582 70.2969 76.5636 72.2757 78.0954 73.1844L151.877 116.952C153.409 117.861 155.387 117.355 156.295 115.823L162.413 105.504C163.321 103.971 162.816 101.993 161.284 101.084L87.5026 57.3162C85.9708 56.4076 83.9927 56.9131 83.0843 58.4454Z" fill="#52B572"/>
<path d="M73.8552 74.5888L67.7256 84.9032C66.8154 86.4347 67.3187 88.4143 68.8498 89.3247L142.596 133.178C144.127 134.088 146.106 133.585 147.016 132.053L153.145 121.739C154.055 120.207 153.552 118.228 152.021 117.317L78.2753 73.4643C76.7443 72.5538 74.7653 73.0573 73.8552 74.5888Z" fill="#52B572"/>
<path d="M64.432 90.4526L58.3024 100.767C57.3922 102.298 57.8956 104.278 59.4266 105.188L133.172 149.041C134.703 149.952 136.682 149.448 137.593 147.917L143.722 137.603C144.632 136.071 144.129 134.091 142.598 133.181L68.8522 89.328C67.3211 88.4176 65.3421 88.9211 64.432 90.4526Z" fill="#52B572"/>
<path d="M32.3053 143.974L26.1876 154.293C25.2792 155.825 25.7846 157.804 27.3164 158.713L101.098 202.48C102.63 203.389 104.608 202.884 105.516 201.351L111.634 191.032C112.542 189.5 112.037 187.521 110.505 186.612L36.7236 142.845C35.1918 141.936 33.2137 142.442 32.3053 143.974Z" fill="#52B572"/>
<path d="M22.9901 160.181L16.8605 170.495C15.9504 172.027 16.4537 174.007 17.9847 174.917L91.7305 218.77C93.2615 219.68 95.2405 219.177 96.1507 217.645L102.28 207.331C103.19 205.8 102.687 203.82 101.156 202.909L27.4103 159.057C25.8792 158.146 23.9003 158.65 22.9901 160.181Z" fill="#52B572"/>
<path d="M13.5669 176.045L7.43735 186.359C6.52719 187.891 7.03054 189.87 8.56158 190.781L82.3073 234.634C83.8384 235.544 85.8174 235.041 86.7275 233.509L92.8571 223.195C93.7673 221.663 93.2639 219.684 91.7329 218.773L17.9871 174.92C16.4561 174.01 14.4771 174.513 13.5669 176.045Z" fill="#52B572"/>
<path d="M54.9934 106.321L35.7098 138.77C34.7996 140.302 35.3029 142.281 36.834 143.192L110.58 187.045C112.111 187.955 114.09 187.451 115 185.92L134.284 153.471C135.194 151.94 134.69 149.96 133.159 149.05L59.4136 105.197C57.8825 104.286 55.9035 104.79 54.9934 106.321Z" fill="#3E8D58"/>
<path d="M168.459 30.4879L178.835 12.9709L167.963 6.50415L157.018 0.0958252L146.643 17.6129C119.281 14.9707 98.2375 33.1447 96.7782 36.0642C95.3189 38.9837 98.2375 42.4287 98.2375 42.4287L134.02 63.712L169.787 84.9806C169.787 84.9806 174.238 85.8857 176.077 83.2289C177.915 80.5722 183.826 53.3623 168.459 30.4879Z" fill="#52B572"/>
<path d="M84.0531 240.167C84.5639 238.474 84.0531 235.642 83.2651 235.204L45.4254 212.695L7.62952 190.214C6.88528 189.777 4.1272 190.623 2.8868 191.893C1.64639 193.163 -0.673896 201.25 0.187092 207.761C1.04808 214.271 3.89372 221.687 9.42447 224.986L30.6281 237.598L51.8318 250.21C57.3625 253.495 65.2427 252.429 71.3718 250.094C77.5009 247.758 83.5132 241.89 84.0531 240.167Z" fill="#52B572"/>
<path d="M178.908 13.0293C178.543 13.6424 173.377 11.2484 167.379 7.67197C161.381 4.09556 156.785 0.708928 157.164 0.0958303C157.544 -0.517267 162.607 1.87673 168.693 5.40934C174.778 8.94195 179.2 12.4162 178.908 13.0293Z" fill="#52B572"/>
<path d="M175.624 21.4667C175.385 21.8542 175.005 22.1335 174.564 22.2452C174.122 22.3569 173.655 22.2924 173.26 22.0652L152.246 9.55505C152.052 9.4407 151.882 9.289 151.747 9.10871C151.612 8.92843 151.513 8.72312 151.458 8.50463C151.402 8.28614 151.39 8.0588 151.423 7.83572C151.456 7.61263 151.532 7.39822 151.648 7.20486C151.762 7.01055 151.914 6.8408 152.094 6.70542C152.274 6.57003 152.48 6.47168 152.698 6.41604C152.916 6.3604 153.144 6.34858 153.367 6.38124C153.59 6.4139 153.804 6.49041 153.997 6.60635L175.026 19.1019C175.416 19.3383 175.698 19.719 175.81 20.1615C175.922 20.6041 175.855 21.0729 175.624 21.4667Z" fill="#3E8D58"/>
<path d="M172.005 27.4809C171.772 27.8703 171.394 28.1517 170.954 28.2638C170.514 28.3759 170.047 28.3096 169.656 28.0794L148.627 15.6276C148.433 15.5133 148.263 15.3616 148.128 15.1813C147.993 15.001 147.894 14.7957 147.839 14.5772C147.783 14.3587 147.771 14.1314 147.804 13.9083C147.837 13.6852 147.913 13.4708 148.029 13.2774C148.143 13.0831 148.295 12.9134 148.475 12.778C148.655 12.6426 148.861 12.5443 149.079 12.4886C149.297 12.433 149.525 12.4211 149.748 12.4538C149.971 12.4865 150.185 12.563 150.378 12.6789L171.407 25.1744C171.797 25.4109 172.079 25.7916 172.191 26.2341C172.303 26.6767 172.236 27.1455 172.005 27.5392V27.4809Z" fill="#3E8D58"/>
<path d="M87.7014 57.6102L161.469 101.476" stroke="#3E8D58" stroke-width="0.85" stroke-miterlimit="10"/>
<path d="M68.8472 89.3307L142.615 133.196" stroke="#3E8D58" stroke-width="0.85" stroke-miterlimit="10"/>
<path d="M98.2375 42.3995L134.02 63.6828L169.787 84.9514" stroke="#3E8D58" stroke-width="0.85" stroke-miterlimit="10"/>
<path d="M78.2743 73.4778L152.042 117.343" stroke="#3E8D58" stroke-width="0.85" stroke-miterlimit="10"/>
<path d="M27.4031 159.063L101.171 202.929" stroke="#3E8D58" stroke-width="0.85" stroke-miterlimit="10"/>
<path d="M83.2359 235.204L45.4254 212.695L7.62952 190.214" stroke="#3E8D58" stroke-width="0.85" stroke-miterlimit="10"/>
<path d="M17.976 174.931L91.7437 218.796" stroke="#3E8D58" stroke-width="0.85" stroke-miterlimit="10"/>
</svg>
