<svg width="132" height="92" viewBox="0 0 132 92" fill="none" xmlns="http://www.w3.org/2000/svg">
<path d="M105.878 90.8461C108.232 90.394 110.665 90.6167 112.897 91.4884L120.938 62.775L128.993 34.1492C126.631 33.7313 124.436 32.6534 122.66 31.0399C119.639 28.3248 117.392 26.1059 113.466 25.2009C109.541 24.2958 30.5198 2.01997 25.3831 0.560214C20.2463 -0.899542 18.4076 0.735384 16.8024 2.69146C15.1971 4.64753 8.57191 11.8587 3.49354 29.9013C-1.58482 47.9439 0.283082 57.5199 0.574942 60.0307C0.866802 62.5414 1.62563 64.8479 6.80615 66.3076C11.9867 67.7674 91.1246 89.6637 94.9187 91.0067C98.7129 92.3497 101.88 91.6052 105.878 90.8461Z" fill="#00693E"/>
<path d="M112.941 91.4884C109.249 90.452 109.862 76.774 114.298 60.9503C118.735 45.1265 125.272 33.1128 128.993 34.1492C132.715 35.1856 132.087 48.8635 127.651 64.6873C123.215 80.511 116.589 92.5248 112.941 91.4884Z" fill="#FDF3D0"/>
<path d="M113.087 89.1382C110.066 88.2915 110.927 75.7668 115.013 61.1547C119.099 46.5425 124.878 35.4046 127.914 36.2512C130.949 37.0979 130.073 49.6372 125.987 64.2348C121.901 78.8323 116.122 89.9994 113.087 89.1382Z" fill="#BED597"/>
<path d="M128.249 42.207C128.527 40.4553 126.965 38.1051 126.352 38.8642C125.739 39.6233 121.799 54.1332 121.58 55.4762C121.318 57.1403 122.908 56.936 123.55 55.301C125.354 51.0252 126.923 46.6541 128.249 42.207Z" fill="#092A04"/>
<path d="M23.34 15.727C22.2636 15.4209 21.3521 14.7008 20.8052 13.7241C20.2582 12.7475 20.1202 11.5939 20.4214 10.5157C20.7307 9.43782 21.4535 8.52597 22.4321 7.97905C23.4108 7.43212 24.566 7.29451 25.6457 7.59621L104.711 29.7553C105.788 30.0646 106.7 30.7876 107.247 31.7666C107.793 32.7456 107.931 33.9012 107.629 34.9812C107.32 36.0591 106.597 36.971 105.619 37.5179C104.64 38.0648 103.485 38.2024 102.405 37.9007L23.34 15.727Z" fill="#8CA861"/>
</svg>
