<svg width="121" height="93" viewBox="0 0 121 93" fill="none" xmlns="http://www.w3.org/2000/svg">
<ellipse cx="55.8557" cy="70.2919" rx="40.1948" ry="16.8559" transform="rotate(-8.06136 55.8557 70.2919)" fill="#00693E" fill-opacity="0.2"/>
<path d="M56.8892 66.4573C56.8892 66.4573 47.353 67.778 41.6843 64.1887C36.0156 60.5994 38.5234 56.2351 34.7951 53.3094C29.4045 49.0919 26.5474 49.2775 24.2133 45.6912C20.6726 40.2618 25.5124 33.6825 22.5828 29.5164C24.375 30.5222 26.4452 31.0308 28.5622 30.9854C32.305 30.9164 34.899 30.3551 38.2187 32.8174C42.6277 36.0863 42.5621 40.0064 45.3617 42.2612C48.1612 44.516 52.9059 46.2006 55.9267 50.732C58.9476 55.2634 56.8892 66.4573 56.8892 66.4573Z" fill="#52B572"/>
<path d="M27.2563 34.7384C27.2563 34.7384 42.9632 55.5114 56.8883 66.4542" stroke="#00693E" stroke-width="0.7" stroke-miterlimit="10"/>
<path d="M55.7212 66.3494C55.7212 66.3494 46.8933 71.3523 39.6913 70.1167C32.4893 68.8812 33.0239 63.6971 28.0415 62.3527C20.8383 60.4053 18.1 61.6994 14.1961 59.1679C8.28323 55.3297 10.1297 47.1134 5.38326 44.2391C7.60289 44.5113 9.8776 44.1943 11.9517 43.3236C15.616 41.7934 17.931 40.2376 22.3055 41.3082C28.1189 42.725 29.7978 46.5214 33.5693 47.593C37.3408 48.6646 42.7754 48.4264 47.7742 51.6024C52.7731 54.7784 55.7212 66.3494 55.7212 66.3494Z" fill="#00693E"/>
<path d="M12.3286 47.4477C12.3286 47.4477 37.0865 61.2839 55.7216 66.3497" stroke="#52B572" stroke-width="0.7" stroke-miterlimit="10"/>
<path d="M49.4757 74.4205C49.4757 74.4205 88.6958 46.9704 103.607 26.5082C118.517 6.04612 104.119 -7.09945 88.8426 8.18624C73.5665 23.4719 44.1555 69.0579 44.1555 69.0579L49.4757 74.4205Z" fill="#48A165"/>
<path d="M98.0813 16.4353C98.0813 16.4353 70.4864 47.3311 46.5361 71.4603L98.0813 16.4353Z" fill="#48A165"/>
<path d="M98.0813 16.4353C98.0813 16.4353 70.4864 47.3311 46.5361 71.4603" stroke="#00693E" stroke-width="1.09" stroke-miterlimit="10"/>
<path d="M69.6452 58.9025C69.6452 58.9025 75.81 54.1938 83.5885 54.3868C83.5885 54.3868 78.4711 59.432 69.6452 58.9025Z" fill="#91C34A"/>
<path d="M63.8562 62.3453C63.8562 62.3453 72.3509 58.191 80.9398 61.1719C80.9398 61.1719 73.8663 66.0924 63.8562 62.3453Z" fill="#91C34A"/>
<path d="M71.7674 57.5606C71.7674 57.5606 77.4457 53.8637 78.0008 45.9001C78.0032 45.8943 70.6426 49.0117 71.7674 57.5606Z" fill="#91C34A"/>
<path d="M62.3763 63.172C62.3763 63.172 69.7025 58.965 70.6378 50.2545C70.6378 50.2545 63.9477 53.4107 62.3763 63.172Z" fill="#91C34A"/>
<path d="M57.7423 65.6362C57.6844 65.5962 67.4532 62.7272 75.1626 66.9305C75.1645 66.9313 65.4957 70.9761 57.7423 65.6362Z" fill="#91C34A"/>
<path d="M56.2194 66.4042C56.2194 66.4042 62.5558 62.1874 62.9289 52.72C62.9241 52.7315 56.3934 56.5327 56.2194 66.4042Z" fill="#91C34A"/>
<path d="M50.7788 68.9875C50.7788 68.9875 59.1579 66.4972 66.9092 70.7406C66.9092 70.7406 58.2219 73.9513 50.7788 68.9875Z" fill="#91C34A"/>
<path d="M49.1322 69.7217C49.1322 69.7217 56.5247 64.1847 56.8132 55.5244C56.8132 55.5244 48.7085 60.9172 49.1322 69.7217Z" fill="#91C34A"/>
<path d="M45.2161 71.6726C45.2161 71.6726 52.1249 68.5662 57.5539 73.8731C57.5539 73.8731 49.1513 77.2727 45.2161 71.6726Z" fill="#91C34A"/>
<path d="M44.3786 72.0605C44.3786 72.0605 49.358 68.0556 49.0895 59.4175C49.1057 59.4213 42.9392 64.2538 44.3786 72.0605Z" fill="#91C34A"/>
<path d="M31.9999 75.9624C31.9999 75.9624 52.8963 70.6483 75.5938 55.0024" stroke="#3E8D58" stroke-width="1.2" stroke-miterlimit="10"/>
</svg>
