<svg width="59" height="40" viewBox="0 0 59 40" fill="none" xmlns="http://www.w3.org/2000/svg">
<path d="M3.52001 2.61999C3.52001 2.96809 3.41678 3.30838 3.22339 3.59781C3.03 3.88724 2.75512 4.11282 2.43352 4.24603C2.11192 4.37924 1.75805 4.4141 1.41665 4.34619C1.07524 4.27828 0.761632 4.11064 0.515492 3.8645C0.269351 3.61836 0.101728 3.30475 0.0338175 2.96335C-0.0340925 2.62194 0.000765979 2.26807 0.133976 1.94647C0.267186 1.62487 0.49277 1.35001 0.7822 1.15661C1.07163 0.963223 1.4119 0.860014 1.76 0.860014C1.9915 0.858687 2.22096 0.903292 2.43509 0.99127C2.64923 1.07925 2.84377 1.20883 3.00747 1.37253C3.17116 1.53622 3.30076 1.73078 3.38874 1.94491C3.47672 2.15905 3.52133 2.3885 3.52001 2.61999Z" fill="#FFB304"/>
<path d="M21.88 2.61999C21.88 2.96851 21.7765 3.3092 21.5827 3.59884C21.3888 3.88849 21.1134 4.11407 20.7912 4.24698C20.469 4.37989 20.1146 4.41415 19.7729 4.34543C19.4313 4.2767 19.1177 4.10807 18.8719 3.86093C18.6262 3.61379 18.4594 3.29924 18.3926 2.95718C18.3258 2.61512 18.3621 2.26093 18.4968 1.93951C18.6316 1.61809 18.8587 1.34391 19.1495 1.15173C19.4402 0.959548 19.7815 0.858034 20.13 0.860014C20.3606 0.86001 20.589 0.905599 20.802 0.994169C21.015 1.08274 21.2083 1.21253 21.371 1.3761C21.5336 1.53966 21.6623 1.73376 21.7497 1.94723C21.837 2.16071 21.8813 2.38934 21.88 2.61999Z" fill="#FFB304"/>
<path d="M40.2401 2.62003C40.2381 2.96571 40.1338 3.30307 39.9403 3.58954C39.7468 3.87601 39.4728 4.09875 39.1529 4.22968C38.8329 4.3606 38.4814 4.39384 38.1426 4.3252C37.8038 4.25655 37.4929 4.08907 37.2492 3.84393C37.0054 3.5988 36.8397 3.28698 36.773 2.94778C36.7063 2.60859 36.7415 2.25724 36.8743 1.93805C37.007 1.61886 37.2313 1.34615 37.5189 1.1543C37.8064 0.962443 38.1444 0.860052 38.4901 0.860046C38.7207 0.860043 38.9491 0.905631 39.1621 0.994202C39.3751 1.08277 39.5684 1.21257 39.7311 1.37613C39.8937 1.53969 40.0224 1.73379 40.1097 1.94727C40.1971 2.16074 40.2414 2.38937 40.2401 2.62003Z" fill="#FFB304"/>
<path d="M58.64 2.61999C58.64 2.96809 58.5368 3.30838 58.3434 3.59781C58.15 3.88724 57.8751 4.11282 57.5535 4.24603C57.2319 4.37924 56.878 4.4141 56.5366 4.34619C56.1952 4.27828 55.8816 4.11064 55.6355 3.8645C55.3893 3.61836 55.2217 3.30475 55.1538 2.96335C55.0859 2.62194 55.1208 2.26807 55.254 1.94647C55.3872 1.62487 55.6128 1.35001 55.9022 1.15661C56.1916 0.963223 56.5319 0.860014 56.88 0.860014C57.1115 0.858687 57.341 0.903292 57.5551 0.99127C57.7692 1.07925 57.9637 1.20883 58.1274 1.37253C58.2911 1.53622 58.4208 1.73078 58.5087 1.94491C58.5967 2.15905 58.6413 2.3885 58.64 2.61999Z" fill="#FFB304"/>
<path d="M1.76001 21.8C2.72651 21.8 3.51001 21.0165 3.51001 20.05C3.51001 19.0836 2.72651 18.3 1.76001 18.3C0.793511 18.3 0.0100098 19.0836 0.0100098 20.05C0.0100098 21.0165 0.793511 21.8 1.76001 21.8Z" fill="#FFB304"/>
<path d="M20.13 21.8C21.0965 21.8 21.88 21.0165 21.88 20.05C21.88 19.0836 21.0965 18.3 20.13 18.3C19.1635 18.3 18.38 19.0836 18.38 20.05C18.38 21.0165 19.1635 21.8 20.13 21.8Z" fill="#FFB304"/>
<path d="M38.49 21.8C39.4565 21.8 40.24 21.0165 40.24 20.05C40.24 19.0836 39.4565 18.3 38.49 18.3C37.5235 18.3 36.74 19.0836 36.74 20.05C36.74 21.0165 37.5235 21.8 38.49 21.8Z" fill="#FFB304"/>
<path d="M58.64 20.0501C58.64 20.3982 58.5368 20.7384 58.3434 21.0279C58.15 21.3173 57.8751 21.5429 57.5535 21.6761C57.2319 21.8093 56.878 21.8442 56.5366 21.7762C56.1952 21.7083 55.8816 21.5407 55.6355 21.2946C55.3893 21.0484 55.2217 20.7348 55.1538 20.3934C55.0859 20.052 55.1208 19.6982 55.254 19.3766C55.3872 19.055 55.6128 18.7801 55.9022 18.5867C56.1916 18.3933 56.5319 18.2901 56.88 18.2901C57.1115 18.2887 57.341 18.3333 57.5551 18.4213C57.7692 18.5093 57.9637 18.6389 58.1274 18.8026C58.2911 18.9663 58.4208 19.1608 58.5087 19.375C58.5967 19.5891 58.6413 19.8186 58.64 20.0501Z" fill="#FFB304"/>
<path d="M1.76001 39.23C2.72651 39.23 3.51001 38.4465 3.51001 37.48C3.51001 36.5135 2.72651 35.73 1.76001 35.73C0.793511 35.73 0.0100098 36.5135 0.0100098 37.48C0.0100098 38.4465 0.793511 39.23 1.76001 39.23Z" fill="#FFB304"/>
<path d="M20.13 39.23C21.0965 39.23 21.88 38.4465 21.88 37.48C21.88 36.5135 21.0965 35.73 20.13 35.73C19.1635 35.73 18.38 36.5135 18.38 37.48C18.38 38.4465 19.1635 39.23 20.13 39.23Z" fill="#FFB304"/>
<path d="M38.49 39.23C39.4565 39.23 40.24 38.4465 40.24 37.48C40.24 36.5135 39.4565 35.73 38.49 35.73C37.5235 35.73 36.74 36.5135 36.74 37.48C36.74 38.4465 37.5235 39.23 38.49 39.23Z" fill="#FFB304"/>
<path d="M58.64 37.48C58.6419 37.8286 58.5404 38.1698 58.3482 38.4605C58.156 38.7513 57.8819 38.9784 57.5604 39.1132C57.239 39.2479 56.8848 39.2842 56.5428 39.2174C56.2007 39.1507 55.8862 38.9838 55.6391 38.7381C55.3919 38.4923 55.2233 38.1788 55.1546 37.8371C55.0858 37.4954 55.1201 37.141 55.253 36.8188C55.3859 36.4967 55.6115 36.2212 55.9011 36.0273C56.1908 35.8335 56.5314 35.73 56.88 35.73C57.345 35.73 57.7912 35.9141 58.121 36.242C58.4507 36.5699 58.6373 37.015 58.64 37.48Z" fill="#FFB304"/>
</svg>
