<svg width="47" height="59" viewBox="0 0 47 59" fill="none" xmlns="http://www.w3.org/2000/svg">
<path d="M44.5 3.51999C44.1514 3.52197 43.8102 3.42043 43.5195 3.22825C43.2287 3.03606 43.0016 2.76188 42.8668 2.44046C42.7321 2.11905 42.6958 1.76486 42.7626 1.42279C42.8294 1.08073 42.9962 0.766189 43.2419 0.519047C43.4876 0.271906 43.8012 0.103275 44.1429 0.0345502C44.4846 -0.0341742 44.839 0.00011915 45.1611 0.13303C45.4833 0.265942 45.7588 0.491489 45.9527 0.781132C46.1465 1.07078 46.2499 1.41146 46.25 1.75998C46.25 2.22504 46.066 2.67117 45.7381 3.00095C45.4101 3.33073 44.965 3.51735 44.5 3.51999Z" fill="#FFB304"/>
<path d="M44.4999 21.88C44.151 21.882 43.8094 21.7802 43.5184 21.5876C43.2275 21.3949 43.0004 21.1202 42.8659 20.7982C42.7315 20.4762 42.6957 20.1215 42.7633 19.7791C42.8309 19.4368 42.9987 19.1223 43.2455 18.8755C43.4922 18.6288 43.8067 18.461 44.149 18.3934C44.4914 18.3258 44.8461 18.3615 45.1681 18.4959C45.4901 18.6304 45.7649 18.8575 45.9575 19.1485C46.1501 19.4394 46.2519 19.7811 46.2499 20.13C46.2499 20.5941 46.0656 21.0393 45.7374 21.3674C45.4092 21.6956 44.9641 21.88 44.4999 21.88Z" fill="#FFB304"/>
<path d="M44.5 40.24C44.1539 40.24 43.8155 40.1374 43.5278 39.9451C43.24 39.7528 43.0157 39.4795 42.8832 39.1597C42.7508 38.8399 42.7161 38.488 42.7836 38.1486C42.8511 37.8091 43.0178 37.4973 43.2626 37.2526C43.5073 37.0078 43.8192 36.8411 44.1586 36.7736C44.4981 36.7061 44.85 36.7408 45.1697 36.8732C45.4895 37.0057 45.7628 37.23 45.9551 37.5178C46.1474 37.8055 46.25 38.1439 46.25 38.49C46.25 38.9541 46.0657 39.3992 45.7375 39.7274C45.4093 40.0556 44.9641 40.24 44.5 40.24Z" fill="#FFB304"/>
<path d="M44.5 58.61C44.1514 58.612 43.8102 58.5105 43.5195 58.3183C43.2287 58.1261 43.0016 57.8519 42.8668 57.5305C42.7321 57.2091 42.6958 56.8549 42.7626 56.5128C42.8294 56.1708 42.9962 55.8562 43.2419 55.6091C43.4876 55.3619 43.8012 55.1933 44.1429 55.1246C44.4846 55.0559 44.839 55.0902 45.1611 55.2231C45.4833 55.356 45.7588 55.5815 45.9527 55.8712C46.1465 56.1608 46.2499 56.5015 46.25 56.85C46.25 57.3151 46.066 57.7612 45.7381 58.091C45.4101 58.4208 44.965 58.6074 44.5 58.61Z" fill="#FFB304"/>
<path d="M27.0699 3.51001C28.0364 3.51001 28.8199 2.72651 28.8199 1.76001C28.8199 0.793511 28.0364 0.0100098 27.0699 0.0100098C26.1034 0.0100098 25.3199 0.793511 25.3199 1.76001C25.3199 2.72651 26.1034 3.51001 27.0699 3.51001Z" fill="#FFB304"/>
<path d="M27.0699 21.88C28.0364 21.88 28.8199 21.0965 28.8199 20.13C28.8199 19.1635 28.0364 18.38 27.0699 18.38C26.1034 18.38 25.3199 19.1635 25.3199 20.13C25.3199 21.0965 26.1034 21.88 27.0699 21.88Z" fill="#FFB304"/>
<path d="M27.0699 40.24C28.0364 40.24 28.8199 39.4565 28.8199 38.49C28.8199 37.5235 28.0364 36.74 27.0699 36.74C26.1034 36.74 25.3199 37.5235 25.3199 38.49C25.3199 39.4565 26.1034 40.24 27.0699 40.24Z" fill="#FFB304"/>
<path d="M27.07 58.61C26.7215 58.612 26.3803 58.5105 26.0896 58.3183C25.7988 58.1261 25.5717 57.8519 25.4369 57.5305C25.3022 57.2091 25.2659 56.8549 25.3327 56.5128C25.3994 56.1708 25.5662 55.8562 25.812 55.6091C26.0577 55.3619 26.3713 55.1933 26.713 55.1246C27.0546 55.0559 27.409 55.0902 27.7312 55.2231C28.0534 55.356 28.3289 55.5815 28.5227 55.8712C28.7166 56.1608 28.82 56.5015 28.82 56.85C28.82 57.3151 28.636 57.7612 28.3081 58.091C27.9802 58.4208 27.5351 58.6074 27.07 58.61Z" fill="#FFB304"/>
<path d="M9.62988 3.51001C10.5964 3.51001 11.3799 2.72651 11.3799 1.76001C11.3799 0.793511 10.5964 0.0100098 9.62988 0.0100098C8.66338 0.0100098 7.87988 0.793511 7.87988 1.76001C7.87988 2.72651 8.66338 3.51001 9.62988 3.51001Z" fill="#FFB304"/>
<path d="M9.62988 21.88C10.5964 21.88 11.3799 21.0965 11.3799 20.13C11.3799 19.1635 10.5964 18.38 9.62988 18.38C8.66338 18.38 7.87988 19.1635 7.87988 20.13C7.87988 21.0965 8.66338 21.88 9.62988 21.88Z" fill="#FFB304"/>
<path d="M9.62988 40.24C10.5964 40.24 11.3799 39.4565 11.3799 38.49C11.3799 37.5235 10.5964 36.74 9.62988 36.74C8.66338 36.74 7.87988 37.5235 7.87988 38.49C7.87988 39.4565 8.66338 40.24 9.62988 40.24Z" fill="#FFB304"/>
<path d="M9.62996 58.61C9.28187 58.61 8.94161 58.5068 8.65218 58.3134C8.36275 58.12 8.13714 57.8451 8.00393 57.5235C7.87072 57.2019 7.83592 56.8481 7.90383 56.5067C7.97174 56.1653 8.13932 55.8516 8.38546 55.6055C8.6316 55.3594 8.94523 55.1917 9.28664 55.1238C9.62805 55.0559 9.98189 55.0908 10.3035 55.224C10.6251 55.3572 10.9 55.5828 11.0933 55.8722C11.2867 56.1616 11.39 56.5019 11.39 56.85C11.3913 57.0815 11.3467 57.311 11.2587 57.5251C11.1707 57.7392 11.0412 57.9338 10.8775 58.0975C10.7138 58.2612 10.5192 58.3908 10.3051 58.4787C10.0909 58.5667 9.86146 58.6113 9.62996 58.61Z" fill="#FFB304"/>
</svg>
