<svg width="10" height="10" viewBox="0 0 10 10" fill="none" xmlns="http://www.w3.org/2000/svg">
<path d="M4.49893 1.84361H1.77754C1.57132 1.84361 1.37355 1.92738 1.22774 2.0765C1.08192 2.22562 1 2.42787 1 2.63876V8.20485C1 8.41573 1.08192 8.61798 1.22774 8.7671C1.37355 8.91623 1.57132 9 1.77754 9H7.22032C7.42654 9 7.62431 8.91623 7.77012 8.7671C7.91594 8.61798 7.99786 8.41573 7.99786 8.20485V5.4218M7.4147 1.24724C7.52997 1.12921 7.67689 1.04882 7.83687 1.01624C7.99684 0.983653 8.16267 1.00035 8.31336 1.0642C8.46405 1.12806 8.59283 1.2362 8.68338 1.37495C8.77394 1.51369 8.8222 1.6768 8.82205 1.84361C8.82258 1.95439 8.80153 2.06418 8.76015 2.16657C8.71877 2.26895 8.65787 2.3619 8.58101 2.43997L4.8877 6.21696L3.33262 6.61454L3.72139 5.02423L7.4147 1.24724Z" stroke="#FF8302" stroke-linecap="round" stroke-linejoin="round"/>
</svg>
