<svg width="16" height="12" viewBox="0 0 16 12" fill="none" xmlns="http://www.w3.org/2000/svg">
<path d="M0 5.59393C0.0768468 5.40056 0.218429 5.33249 0.425998 5.33332C1.78543 5.33917 3.14445 5.33332 4.50389 5.33959C4.63294 5.33959 4.66761 5.30827 4.66719 5.17796C4.66176 4.04781 4.66385 2.91766 4.66427 1.78751C4.66427 1.44671 4.77285 1.33646 5.10822 1.33646C7.03524 1.33646 8.96212 1.33646 10.8889 1.33646C11.2263 1.33646 11.3357 1.4463 11.3362 1.78459C11.3362 3.13358 11.3387 4.48258 11.332 5.83116C11.332 5.97984 11.3771 6.00364 11.5116 6.00323C12.8656 5.99863 14.2196 6.0003 15.5736 6.0003C15.881 6.0003 16 6.11766 16 6.42254C16 8.14658 16 9.87035 16 11.5938C16 11.8799 15.8785 12.0002 15.5903 12.0002C10.5334 12.0002 5.47672 12.0012 0.420151 12.0031C0.218846 12.0031 0.0806056 11.9338 0 11.7525L0 5.59393Z" fill="#00693E"/>
<path d="M5.12915 0.658209C5.22688 0.471939 5.31083 0.294858 5.41064 0.1278C5.46703 0.0338293 5.56935 0 5.68002 0H10.3159C10.4332 0 10.5377 0.0380057 10.5965 0.138241C10.6926 0.302375 10.7745 0.474863 10.8693 0.658209H5.12915Z" fill="#00693E"/>
<path d="M15.5402 5.33625C14.3787 5.33625 13.2431 5.33625 12.1109 5.33625C12.0215 5.33625 11.9944 5.31035 11.9981 5.22223C12.0048 5.07188 12.0032 4.92069 11.9981 4.76992C11.9956 4.69433 12.0103 4.66008 12.0984 4.6605C13.059 4.66342 14.0229 4.6605 14.9856 4.66342C15.046 4.66012 15.1061 4.67407 15.1589 4.70365C15.2117 4.73323 15.255 4.77722 15.2838 4.83048C15.3694 4.99044 15.4483 5.15332 15.5402 5.33625Z" fill="#00693E"/>
<path d="M0.461853 4.66426C0.553317 4.48425 0.628911 4.32137 0.717452 4.16308C0.744536 4.11172 0.785741 4.06918 0.836208 4.04047C0.886675 4.01176 0.944299 3.99808 1.00229 4.00104C1.97081 4.00104 2.93933 4.00104 3.90743 4.00104C3.98219 4.00104 4.00641 4.02067 4.00349 4.09626C3.99534 4.24177 3.99534 4.38761 4.00349 4.53312C4.011 4.64338 3.97634 4.67011 3.86733 4.66927C3.08133 4.66426 2.2949 4.66635 1.50889 4.66635L0.461853 4.66426Z" fill="#00693E"/>
<path d="M13.4102 10.6637C12.7946 10.6637 12.3477 10.2332 12.3381 9.70776C12.3343 9.49893 12.4504 9.35359 12.6359 9.33939C12.8347 9.32436 12.9733 9.44715 12.9997 9.6614C13.0314 9.92159 13.2398 10.0636 13.4591 9.97296C13.5274 9.9461 13.5846 9.89687 13.6214 9.83332C13.6582 9.76976 13.6724 9.69562 13.6616 9.62297C13.6536 9.55274 13.6227 9.48711 13.5736 9.43622C13.5245 9.38534 13.46 9.35204 13.3901 9.34148C13.3386 9.33538 13.2874 9.32632 13.2369 9.31433C13.1691 9.29421 13.1097 9.25275 13.0675 9.19612C13.0252 9.13948 13.0024 9.07072 13.0024 9.00006C13.0024 8.9294 13.0252 8.86063 13.0675 8.804C13.1097 8.74736 13.1691 8.7059 13.2369 8.68578C13.2771 8.67512 13.318 8.66717 13.3592 8.66197C13.5589 8.6319 13.6721 8.50285 13.6633 8.31491C13.6596 8.23094 13.6238 8.15159 13.5634 8.09318C13.5029 8.03476 13.4224 8.00172 13.3384 8.00084C13.1609 8.00084 13.0264 8.12613 13.0022 8.32368C12.9767 8.52958 12.8706 8.64777 12.6998 8.66155C12.4939 8.67784 12.3435 8.53626 12.3394 8.3241C12.3297 7.85884 12.6973 7.42324 13.1634 7.34764C13.3988 7.30748 13.6409 7.35274 13.846 7.47526C14.051 7.59777 14.2056 7.78949 14.2818 8.01587C14.3338 8.16123 14.3496 8.31708 14.3278 8.46992C14.3059 8.62275 14.2472 8.76795 14.1565 8.89293C14.0997 8.97437 14.101 9.02282 14.1565 9.10509C14.38 9.43503 14.3996 9.78836 14.2121 10.1379C14.0246 10.4875 13.7247 10.6541 13.4102 10.6637Z" fill="#FEFEFE"/>
<path d="M2.84916 9.33732C3.01079 9.33732 3.17242 9.33314 3.33363 9.33732C3.53034 9.344 3.65981 9.47556 3.66232 9.66016C3.66425 9.70468 3.65694 9.74913 3.64087 9.7907C3.6248 9.83227 3.60031 9.87006 3.56894 9.90171C3.53756 9.93336 3.49998 9.95818 3.45855 9.97462C3.41712 9.99105 3.37274 9.99874 3.3282 9.9972C2.88592 10.0022 2.44279 10.0005 2.00051 9.9972C1.93407 9.99669 1.86929 9.97639 1.81445 9.93888C1.75961 9.90137 1.71719 9.84837 1.69263 9.78663C1.66806 9.7249 1.66245 9.65725 1.67653 9.59232C1.6906 9.52738 1.72372 9.46812 1.77164 9.4221C2.04701 9.14367 2.32307 8.86719 2.59983 8.59266C2.72282 8.47587 2.82135 8.33577 2.88968 8.18054C2.95801 8.02531 2.99478 7.85803 2.99785 7.68845C3.0016 7.49258 2.87255 7.35016 2.69631 7.33638C2.50043 7.32176 2.36804 7.43494 2.33713 7.64335C2.30038 7.88809 2.1471 8.02633 1.94872 7.99334C1.75034 7.96034 1.64133 7.78451 1.67558 7.5427C1.75076 7.0127 2.20515 6.62889 2.71552 6.66564C2.97313 6.67849 3.2157 6.79081 3.39215 6.97894C3.5686 7.16708 3.66516 7.41635 3.66148 7.67425C3.66148 8.19923 3.46937 8.64695 3.10977 9.02492C3.01789 9.12098 2.91599 9.20743 2.81742 9.29848L2.84916 9.33732Z" fill="#FEFEFE"/>
<path d="M7.99999 4.48053C7.89308 4.57491 7.81498 4.65886 7.6901 4.66262C7.55144 4.6668 7.44453 4.61459 7.37896 4.49556C7.31338 4.37653 7.30879 4.24497 7.39984 4.14432C7.63108 3.87628 7.8824 3.62622 8.1516 3.39632C8.3458 3.23552 8.63607 3.38087 8.66196 3.63396C8.66635 3.69622 8.66761 3.75867 8.66572 3.82106V6.86486C8.66697 6.92199 8.6653 6.97914 8.66071 7.0361C8.65272 7.11703 8.61523 7.1922 8.55538 7.24727C8.49554 7.30234 8.41752 7.33347 8.3362 7.33471C8.25497 7.33412 8.1767 7.30422 8.11577 7.2505C8.05484 7.19679 8.01536 7.12287 8.00459 7.04236C7.99998 6.99057 7.99873 6.93854 8.00083 6.88658L7.99999 4.48053Z" fill="#FEFEFE"/>
</svg>
