<svg width="100" height="219" viewBox="0 0 100 219" fill="none" xmlns="http://www.w3.org/2000/svg">
<path d="M45.0499 73.03C45.0499 73.03 63.6199 40.77 98.4099 27.22C98.4099 27.22 85.0999 59.03 45.0499 73.03Z" fill="#3E8D58"/>
<path d="M25.7999 98.9901C25.7999 98.9901 55.7099 64.87 99.2499 62.16C99.2499 62.16 77.0499 97.0401 25.7999 98.9901Z" fill="#3E8D58"/>
<path d="M51.96 63.16C51.96 63.16 70.25 36.28 57.96 2.45843e-05C57.96 -0.0299754 31.15 27.4 51.96 63.16Z" fill="#3E8D58"/>
<path d="M20.7799 105.39C20.7799 105.39 45.4199 73.2 33.4299 32.91C33.4299 32.91 9.65992 59.27 20.7799 105.39Z" fill="#3E8D58"/>
<path d="M4.83002 124.88C4.50002 124.81 42.43 94.02 84.34 98.35C84.35 98.35 49.04 134.16 4.83002 124.88Z" fill="#3E8D58"/>
<path d="M-0.490016 131.1C-0.490016 131.1 19.75 100.7 3.86998 58.1C3.86998 58.16 -18 87.08 -0.490016 131.1Z" fill="#3E8D58"/>
<path d="M-19.79 152.61C-19.79 152.61 12.69 126.07 54.86 130.5C54.86 130.5 22.35 160.8 -19.79 152.61Z" fill="#3E8D58"/>
<path d="M-39.4401 172.95C-39.4401 172.95 -14.6101 156.95 19.2499 165.05C19.2499 165.05 -11.6501 183.5 -39.4401 172.95Z" fill="#3E8D58"/>
<path d="M-90 218.26C-90 218.26 -7.34 156.04 64.16 44.7501" stroke="#00693E" stroke-width="1.2" stroke-miterlimit="10"/>
</svg>
