<svg width="190" height="155" viewBox="0 0 190 155" fill="none" xmlns="http://www.w3.org/2000/svg">
<path d="M177.143 181.021C177.143 181.021 140.305 177.142 122.332 157.307C104.359 137.473 117.651 122.396 106.337 107.087C89.968 85.0024 79.1196 82.9982 73.6114 66.3831C65.2456 41.2211 89.2439 19.5115 82.0289 0C87.8271 5.75394 95.1106 9.78293 103.066 11.6371C117.121 14.9601 127.323 15.2058 137.525 28.2652C151.076 45.6044 147.313 61.2498 155.756 72.9774C164.2 84.705 180.427 96.0188 187.655 117.082C194.883 138.145 177.143 181.021 177.143 181.021Z" fill="#52B572"/>
<path d="M94.8167 25.4206C94.8167 25.4206 134.9 123.767 177.143 181.008" stroke="#00693E" stroke-width="0.7" stroke-miterlimit="10"/>
<path d="M172.32 188.457C172.32 188.457 137.13 199.994 112.606 189.231C88.0816 178.468 94.0541 159.248 77.4732 149.945C53.5053 136.479 42.7926 139.08 30.9644 126.182C13.0523 106.63 26.0553 77.012 11.5139 62.1023C19.1576 65.0074 27.46 65.7231 35.4881 64.1689C49.6647 61.4537 59.0845 57.5028 73.7285 65.2552C93.1941 75.5343 96.15 91.3555 108.659 98.6029C121.167 105.85 140.594 109.531 155.791 125.798C170.989 142.065 172.32 188.457 172.32 188.457Z" fill="#00693E"/>
<path d="M33.5754 80.1336C33.5754 80.1336 110.334 153.517 172.32 188.457" stroke="#52B572" stroke-width="0.7" stroke-miterlimit="10"/>
</svg>
