<svg width="29" height="31" viewBox="0 0 29 31" fill="none" xmlns="http://www.w3.org/2000/svg">
<path d="M25.5602 26.45C23.7958 23.8934 21.858 21.461 19.7602 19.17C17.4653 16.5949 15.014 14.1636 12.4202 11.89C10.4411 10.1157 8.317 8.51013 6.07018 7.09C10.281 10.6741 14.1877 14.6009 17.7502 18.83C21.0336 22.7018 24.1015 26.7512 26.9402 30.96C24.1702 30.96 14.3102 30.55 6.69018 22.9C-2.69982 13.48 0.540186 0 0.540186 0C5.67019 2.91 15.4902 0.779994 23.3502 9.14999C29.9002 16.15 28.5502 26.61 27.9202 29.9C27.1302 28.74 26.3502 27.59 25.5602 26.45Z" fill="#00693E"/>
</svg>
