<svg width="150" height="149" viewBox="0 0 150 149" fill="none" xmlns="http://www.w3.org/2000/svg">
<path d="M172.114 -33.5853C172.114 -33.5853 81.3504 -13.6958 39.3564 11.828C-2.63765 37.3518 13.3412 71.6553 52.1242 55.6782C90.9072 39.701 177.641 -20.0049 177.641 -20.0049L172.114 -33.5853Z" fill="#48A165"/>
<path d="M41.7325 33.9993C41.7325 33.9993 114.243 -0.744656 175.17 -26.0876L41.7325 33.9993Z" fill="#48A165"/>
<path d="M41.7325 33.9993C41.7325 33.9993 114.243 -0.744656 175.17 -26.0876" stroke="#00693E" stroke-width="1.09" stroke-miterlimit="10"/>
<path d="M175.101 -31.4765C175.101 -31.4765 98.943 21.7512 69.9821 61.4261C41.0212 101.101 68.914 126.668 98.606 97.0084C128.298 67.3493 185.426 -21.0507 185.426 -21.0507L175.101 -31.4765Z" fill="#48A165"/>
<path d="M80.6819 81.0156C80.6819 81.0156 134.279 21.079 180.792 -25.7247L80.6819 81.0156Z" fill="#48A165"/>
<path d="M80.6819 81.0156C80.6819 81.0156 134.279 21.079 180.792 -25.7247" stroke="#00693E" stroke-width="1.09" stroke-miterlimit="10"/>
<path d="M177.439 -28.158C177.439 -28.158 128.588 50.8804 117.71 98.8C106.832 146.72 142.569 159.115 158.09 120.138C173.61 81.1596 191.053 -22.6825 191.053 -22.6825L177.439 -28.158Z" fill="#48A165"/>
<path d="M135.295 112.519C135.295 112.519 160.777 36.2686 184.945 -25.1339L135.295 112.519Z" fill="#48A165"/>
<path d="M135.295 112.519C135.295 112.519 160.777 36.2686 184.945 -25.1339" stroke="#00693E" stroke-width="1.09" stroke-miterlimit="10"/>
</svg>
