<svg width="22" height="39" viewBox="0 0 22 39" fill="none" xmlns="http://www.w3.org/2000/svg">
<path d="M7.60981 35.19C8.85686 32.3436 9.91255 29.4171 10.7698 26.43C11.7568 23.1275 12.5416 19.768 13.1198 16.37C13.5921 13.7523 13.8463 11.0998 13.8798 8.44C13.025 13.8941 11.724 19.2688 9.98981 24.51C8.41252 29.338 6.56972 34.0753 4.46982 38.7C2.98982 36.36 -1.80018 27.7 0.719823 17.23C3.82982 4.29 16.9998 0 16.9998 0C17.2098 5.88 24.1798 13.13 21.1598 24.21C18.6498 33.45 9.01981 37.79 5.88981 38.98C6.47981 37.73 7.04981 36.46 7.60981 35.19Z" fill="#48A165"/>
</svg>
