<svg width="14" height="18" viewBox="0 0 14 18" fill="none" xmlns="http://www.w3.org/2000/svg">
<path d="M13.6411 5.60689C13.3499 4.03272 12.6231 2.70239 11.4132 1.64122C10.5601 0.891461 9.53238 0.367783 8.42434 0.118168C8.12095 0.0468921 7.81333 0.0351691 7.50666 0H6.31185C6.16461 0.041265 6.01033 0.0192258 5.86262 0.0436097C5.24842 0.142685 4.65094 0.326537 4.08729 0.589903C2.78275 1.20419 1.76425 2.13171 1.04633 3.38655C0.512648 4.32142 0.207374 5.36916 0.155384 6.44438C0.104271 7.37519 0.290902 8.27317 0.584915 9.1524C0.986312 10.3481 1.57481 11.4543 2.25287 12.5127C3.49926 14.4592 4.98246 16.2143 6.60961 17.8514C6.67443 17.9193 6.75493 17.9704 6.84407 18H7.05462C7.14361 17.9701 7.22405 17.9191 7.28908 17.8514C7.86585 17.2844 8.41168 16.6889 8.94296 16.0807C9.89816 14.9811 10.7947 13.8332 11.5816 12.6008C12.3412 11.4121 13.0015 10.1746 13.4104 8.81618C13.7288 7.76346 13.8423 6.69525 13.6411 5.60689ZM6.9538 9.84359C5.24224 9.84359 3.8472 8.45465 3.85142 6.7595C3.85048 6.35042 3.93064 5.94521 4.08728 5.56731C4.24392 5.18941 4.47392 4.84632 4.76399 4.55786C5.05406 4.26941 5.39843 4.04132 5.7772 3.88679C6.15597 3.73226 6.56162 3.65436 6.97068 3.65758C8.66302 3.65758 10.0431 5.06106 10.0384 6.77685C10.0337 8.45652 8.63676 9.84734 6.9538 9.84359Z" fill="#00693E"/>
</svg>
