<svg width="90" height="103" viewBox="0 0 90 103" fill="none" xmlns="http://www.w3.org/2000/svg">
<path d="M0.152802 51.4938C0.152802 43.188 0.152785 34.885 0.135742 26.582C0.135742 25.9172 0.419807 25.6233 0.933933 25.3294C12.4208 18.6166 23.9011 11.8981 35.3747 5.17393C38.2152 3.51619 41.0557 1.91551 43.8961 0.246346C44.1136 0.0938935 44.3723 0.012146 44.6375 0.012146C44.9027 0.012146 45.1614 0.0938935 45.3789 0.246346C55.2088 5.89581 65.0454 11.5386 74.8886 17.1748C79.3737 19.7427 83.8162 22.4077 88.3127 24.9699C89.0626 25.395 89.2784 25.8801 89.2813 26.6818C89.3097 35.9492 89.3892 45.2281 89.4119 54.4898C89.4318 61.797 89.3864 69.1042 89.4119 76.4114C89.4314 76.6626 89.3731 76.9137 89.245 77.1303C89.1168 77.3469 88.9251 77.5183 88.6961 77.6212C74.3044 86.0136 59.9126 94.4183 45.5209 102.835C44.9528 103.172 44.5665 102.938 44.1262 102.687C35.9911 98.0496 27.8664 93.4045 19.7521 88.7518C13.5712 85.1937 7.4301 81.5701 1.24638 78.0206C0.505014 77.5955 0.272117 77.119 0.274957 76.3087C0.297681 68.038 0.297681 59.7635 0.274957 51.4853L0.152802 51.4938ZM83.9469 52.23C83.9469 49.9474 83.927 47.6419 83.9469 45.3479C83.9923 40.8483 84.0605 36.3516 84.1258 31.8548C84.1542 29.8575 83.606 28.4594 81.629 27.3666C74.3375 23.3407 67.1653 19.0922 59.9704 14.8922C55.8148 12.464 51.6989 9.96457 47.5689 7.49649C45.8646 6.47788 44.3478 6.18399 42.3765 7.39377C35.8434 11.4055 29.1597 15.1803 22.5102 19.0037C17.7922 21.7172 13.0372 24.3707 8.29362 27.0385C6.49276 28.0514 5.50709 29.2755 5.54402 31.6437C5.70593 42.0581 5.62354 52.4725 5.60366 62.8898C5.60366 65.6974 5.49006 68.505 5.44745 71.3126C5.41905 73.1872 5.94737 74.5482 7.82209 75.5925C15.1306 79.6499 22.3341 83.9012 29.5546 88.1183C33.7358 90.5607 37.88 93.0687 42.0356 95.5596C43.7626 96.5954 45.2709 96.7923 47.2252 95.6139C55.258 90.7633 63.4159 86.1211 71.5453 81.4331C74.775 79.57 78.0472 77.7753 81.3109 75.972C83.1032 74.9819 84.0917 73.7693 84.0207 71.4325C83.8105 65.0212 83.9469 58.6156 83.9469 52.23Z" fill="#AEB2B8"/>
<path d="M80.8538 51.3512C80.8538 57.8737 80.8339 64.3963 80.8737 70.9188C80.8737 71.8833 80.6578 72.4111 79.7375 72.9304C75.7864 75.1731 71.9375 77.5898 68.0148 79.881C60.7148 84.1466 53.3863 88.358 46.0863 92.6208C45.2654 93.1001 44.6945 93.1914 43.7855 92.6408C40.3003 90.5579 36.7014 88.669 33.1849 86.6489C25.3906 82.1579 17.6247 77.6155 9.83046 73.1244C9.10046 72.705 8.83062 72.297 8.83914 71.4125C8.86754 67.7603 8.71701 64.1053 8.70849 60.4531C8.68292 51.0373 8.70849 41.6215 8.67725 32.1886C8.67725 31.19 8.89596 30.6422 9.84183 30.1029C14.0514 27.709 18.1644 25.1439 22.3399 22.7015C29.3786 18.5871 36.4514 14.5326 43.4873 10.4125C44.2968 9.93888 44.845 9.89037 45.7085 10.4125C49.2819 12.5211 52.9518 14.467 56.5478 16.5385C64.2398 20.9696 71.8864 25.4549 79.5926 29.8746C80.422 30.3511 80.7089 30.839 80.7004 31.8206C80.6407 38.3431 80.6691 44.8657 80.6691 51.3854L80.8538 51.3512Z" fill="#F5F4F4"/>
<path d="M44.7769 31.6865L51.2617 42.7514L63.7428 45.5276L55.2696 55.1403L56.4967 67.9229L44.7769 62.7985L33.0543 67.9229L34.2842 55.1403L25.811 45.5276L38.2893 42.7514L44.7769 31.6865Z" fill="#D7D7D8"/>
<path d="M44.7767 31.6865V51.3797L38.2891 42.7514L44.7767 31.6865Z" fill="#AEB2B8"/>
<path d="M25.811 45.5276L44.7769 51.3797L34.2842 55.1403L25.811 45.5276Z" fill="#AEB2B8"/>
<path d="M44.7769 51.3797V62.7985L33.0542 67.9229L44.7769 51.3797Z" fill="#AEB2B8"/>
<path d="M56.4967 67.9229L44.7769 51.3797L55.2696 55.1403L56.4967 67.9229Z" fill="#AEB2B8"/>
<path d="M63.7427 45.5277L44.7769 51.3797L51.2617 42.7514L63.7427 45.5277Z" fill="#AEB2B8"/>
</svg>
