<svg width="90" height="103" viewBox="0 0 90 103" fill="none" xmlns="http://www.w3.org/2000/svg">
<path d="M0.0170429 51.5212C0.0170429 59.8271 0.0170429 68.1301 0 76.4331C0 77.0979 0.284048 77.3918 0.798174 77.6857C12.2775 84.3985 23.7521 91.1169 35.2219 97.8411C38.0624 99.4989 40.9029 101.1 43.7433 102.769C43.9608 102.921 44.2195 103.003 44.4847 103.003C44.7499 103.003 45.0086 102.921 45.2261 102.769C55.0579 97.1193 64.8945 91.4765 74.7358 85.8403C79.2209 83.2724 83.6634 80.6074 88.1599 78.0452C88.9098 77.6201 89.1256 77.135 89.1285 76.3332C89.1569 67.0658 89.2364 57.787 89.2591 48.5253C89.279 41.2181 89.2336 33.9109 89.2449 26.6037C89.2644 26.3525 89.2061 26.1014 89.078 25.8848C88.9498 25.6682 88.7581 25.4967 88.5291 25.3939C74.1374 17.0015 59.7456 8.59673 45.3539 0.179601C44.7858 -0.157084 44.4023 0.0768801 43.9592 0.327967C35.8373 4.96547 27.7174 9.61059 19.5993 14.2633C13.4213 17.8213 7.28014 21.445 1.09358 24.9944C0.352219 25.4196 0.1193 25.8961 0.12214 26.7064C0.144864 34.9771 0.144864 43.2515 0.12214 51.5298L0.0170429 51.5212ZM83.7941 50.7851C83.7941 53.0677 83.7742 55.3731 83.7941 57.6672C83.8395 62.1668 83.9077 66.6635 83.973 71.1603C84.0014 73.1575 83.4532 74.5556 81.4762 75.6484C74.1847 79.6744 67.0125 83.9229 59.8176 88.1229C55.662 90.551 51.549 93.0505 47.4161 95.5186C45.7118 96.5372 44.195 96.8311 42.2237 95.6213C35.6906 91.6096 29.0069 87.8347 22.3574 84.0114C17.6337 81.315 12.8816 78.6586 8.13512 75.9908C6.33426 74.9779 5.34862 73.7539 5.39691 71.3857C5.55881 60.9713 5.47644 50.5568 5.45656 40.1396C5.45656 37.332 5.34294 34.5243 5.30033 31.7167C5.27192 29.8421 5.80025 28.4811 7.67497 27.4368C14.9835 23.3795 22.187 19.1281 29.4075 14.911C33.5886 12.4686 37.7357 9.96059 41.8885 7.46969C43.6155 6.43395 45.1238 6.23708 47.0781 7.41548C55.1109 12.266 63.2688 16.9083 71.3982 21.5962C74.6278 23.4594 77.9001 25.2541 81.1638 27.0574C82.9561 28.0474 83.9446 29.2601 83.8736 31.5969C83.6634 37.9939 83.7941 44.3995 83.7941 50.7851Z" fill="#905923"/>
<path d="M80.7063 51.664C80.7063 45.1415 80.6893 38.6189 80.7262 32.0963C80.7262 31.1319 80.5103 30.6041 79.59 30.0848C75.6417 27.8421 71.79 25.4254 67.8673 23.1342C60.5702 18.8686 53.2389 14.6572 45.9389 10.3944C45.118 9.91506 44.547 9.82375 43.6381 10.3744C40.1528 12.4573 36.5539 14.3462 33.0374 16.3663C25.2431 20.8573 17.4773 25.3997 9.68302 29.8908C8.95302 30.3102 8.68317 30.7182 8.69169 31.6027C8.7201 35.2549 8.56955 38.9099 8.56103 42.5621C8.53547 51.9779 8.56103 61.3937 8.52979 70.8265C8.52979 71.8252 8.7485 72.373 9.69438 72.9123C13.9182 75.3233 18.0198 77.8912 22.201 80.3336C29.2397 84.4537 36.3125 88.5025 43.3483 92.6226C44.1579 93.0963 44.7061 93.1448 45.5696 92.6226C49.1429 90.5141 52.8128 88.5681 56.4089 86.4967C64.1009 82.0656 71.7474 77.5802 79.4536 73.1605C80.2831 72.684 80.57 72.1961 80.5614 71.2146C80.5018 64.692 80.5302 58.1695 80.5302 51.6498L80.7063 51.664Z" fill="#CD7F32"/>
<path d="M63.0697 55.7813H26.189C25.8627 55.7813 25.5981 55.5156 25.5981 55.1878V47.815C25.5981 47.4872 25.8627 47.2215 26.189 47.2215H63.0697C63.396 47.2215 63.6605 47.4872 63.6605 47.815V55.1878C63.6605 55.5156 63.396 55.7813 63.0697 55.7813Z" fill="#905923"/>
</svg>
