<svg width="90" height="103" viewBox="0 0 90 103" fill="none" xmlns="http://www.w3.org/2000/svg">
<path d="M0.1313 51.5214C0.1313 59.8272 0.131301 68.1302 0.114258 76.4332C0.114258 77.098 0.398299 77.3919 0.915266 77.6858C12.3908 84.3986 23.8654 91.1171 35.339 97.8413C38.1795 99.499 41.02 101.1 43.8604 102.769C44.0779 102.921 44.3366 103.003 44.6018 103.003C44.867 103.003 45.1257 102.921 45.3432 102.769C55.1769 97.1194 65.0135 91.4766 74.8529 85.8404C79.338 83.2725 83.7833 80.6075 88.2798 78.0453C89.0269 77.6202 89.2427 77.1351 89.2456 76.3334C89.2768 67.0659 89.3535 57.7871 89.3791 48.5254C89.399 41.2182 89.3535 33.911 89.3791 26.6038C89.3961 26.3497 89.3342 26.0966 89.2019 25.8794C89.0696 25.6622 88.8735 25.4916 88.6405 25.3912C74.2488 16.9988 59.857 8.594 45.4653 0.176867C44.8972 -0.159818 44.5137 0.0741461 44.0706 0.325233C35.9488 4.96464 27.8297 9.61071 19.7135 14.2634C13.5355 17.8215 7.3944 21.4451 1.21068 24.9946C0.466473 25.4197 0.236396 25.8962 0.236396 26.7065C0.25912 34.9772 0.263851 43.2516 0.250595 51.5299L0.1313 51.5214ZM83.9083 50.7852C83.9083 53.0678 83.8884 55.3733 83.9083 57.6673C83.9538 62.1669 84.0219 66.6636 84.0873 71.1604C84.1185 73.1577 83.5675 74.5558 81.5905 75.6486C74.299 79.6745 67.1268 83.923 59.9318 88.123C55.7762 90.5512 51.6632 93.0506 47.5303 95.5187C45.826 96.5373 44.3092 96.8312 42.3408 95.6214C35.8077 91.6097 29.1212 87.8349 22.4745 84.0115C17.7479 81.3152 12.9958 78.6588 8.24938 75.991C6.44852 74.9781 5.46571 73.754 5.50263 71.3858C5.66454 60.9714 5.57933 50.557 5.55945 40.1397C5.55945 37.3321 5.44583 34.5245 5.40322 31.7168C5.37482 29.8423 5.90598 28.4813 7.77786 27.437C15.0892 23.3796 22.2899 19.1282 29.5132 14.9111C33.6944 12.4687 37.8386 9.96071 41.9914 7.46981C43.7213 6.43408 45.2296 6.2372 47.181 7.4156C55.2138 12.2661 63.3717 16.9084 71.5039 21.5963C74.7336 23.4595 78.003 25.2542 81.2667 27.0575C83.0619 28.0476 84.0503 29.2602 83.9765 31.597C83.7777 37.994 83.9083 44.3996 83.9083 50.7852Z" fill="#848B98"/>
<path d="M80.8207 51.664C80.8207 45.1415 80.8036 38.6189 80.8405 32.0963C80.8405 31.1319 80.6247 30.6041 79.7043 30.0848C75.7561 27.8421 71.9072 25.4254 67.9845 23.1342C60.6845 18.8686 53.3532 14.6572 46.0532 10.3944C45.2352 9.91506 44.6614 9.82375 43.7524 10.3744C40.2672 12.4573 36.6711 14.3462 33.1518 16.3663C25.3575 20.8573 17.5945 25.3997 9.79737 29.8908C9.07021 30.3102 8.80036 30.7182 8.80604 31.6027C8.83444 35.2549 8.68674 38.9099 8.67538 42.5621C8.65266 51.9779 8.67538 61.3937 8.64697 70.8265C8.64697 71.8252 8.86285 72.373 9.81157 72.9123C14.0212 75.3233 18.1342 77.8912 22.3153 80.3336C29.354 84.4537 36.4325 88.5025 43.4655 92.6226C44.2722 93.0963 44.8233 93.1448 45.684 92.6226C49.2601 90.5141 52.9272 88.5681 56.526 86.4967C64.2152 82.0656 71.8646 77.5802 79.5708 73.1605C80.4003 72.684 80.6871 72.1961 80.6786 71.2146C80.6161 64.692 80.6474 58.1695 80.6474 51.6498L80.8207 51.664Z" fill="#D7D7D8"/>
<path d="M63.1869 49.6268H26.3062C25.9799 49.6268 25.7153 49.3611 25.7153 49.0333V41.6605C25.7153 41.3327 25.9799 41.067 26.3062 41.067H63.1869C63.5132 41.067 63.7777 41.3327 63.7777 41.6605V49.0333C63.7777 49.3611 63.5132 49.6268 63.1869 49.6268Z" fill="#848B98"/>
<path d="M63.1869 61.9329H26.3062C25.9799 61.9329 25.7153 61.6672 25.7153 61.3394V53.9666C25.7153 53.6388 25.9799 53.3731 26.3062 53.3731H63.1869C63.5132 53.3731 63.7777 53.6388 63.7777 53.9666V61.3394C63.7777 61.6672 63.5132 61.9329 63.1869 61.9329Z" fill="#848B98"/>
</svg>
