<svg width="91" height="103" viewBox="0 0 91 103" fill="none" xmlns="http://www.w3.org/2000/svg">
<path d="M0.923292 51.5214C0.923292 59.8272 0.923293 68.1302 0.90625 76.4332C0.90625 77.098 1.1903 77.3919 1.70727 77.6858C13.1828 84.3986 24.6574 91.1171 36.131 97.8413C38.9715 99.499 41.812 101.1 44.6524 102.769C44.8699 102.921 45.1286 103.003 45.3938 103.003C45.659 103.003 45.9177 102.921 46.1352 102.769C55.9689 97.1194 65.8055 91.4766 75.6449 85.8404C80.13 83.2725 84.5753 80.6075 89.069 78.0453C89.8189 77.6202 90.0347 77.1351 90.0376 76.3334C90.0688 67.0659 90.1455 57.7871 90.1711 48.5254C90.191 41.2182 90.1455 33.911 90.1711 26.6038C90.1893 26.3528 90.1305 26.1022 90.0025 25.8859C89.8745 25.6696 89.6835 25.4979 89.4553 25.394C75.0635 17.0016 60.6718 8.59685 46.28 0.179723C45.7119 -0.156962 45.3285 0.0770022 44.8853 0.328089C36.7502 4.9656 28.6236 9.61071 20.5055 14.2634C14.3275 17.8215 8.18639 21.4451 2.00267 24.9946C1.25846 25.4197 1.02839 25.8962 1.02839 26.7065C1.05111 34.9772 1.05111 43.2516 1.02839 51.5299L0.923292 51.5214ZM84.7003 50.7852C84.7003 53.0678 84.6804 55.3733 84.7003 57.6673C84.7458 62.1669 84.8139 66.6636 84.8793 71.1604C84.9077 73.1577 84.3594 74.5558 82.3825 75.6486C75.091 79.6745 67.9188 83.923 60.7238 88.123C56.5682 90.5512 52.4552 93.0506 48.3223 95.5187C46.618 96.5373 45.1012 96.8312 43.1328 95.6214C36.5912 91.624 29.9075 87.8491 23.2693 84.0258C18.5399 81.3152 13.7878 78.6588 9.04136 75.991C7.2405 74.9781 6.2577 73.754 6.29463 71.3858C6.45369 60.9714 6.37132 50.557 6.35144 40.1397C6.35144 37.3321 6.23782 34.5245 6.19522 31.7168C6.16681 29.8423 6.69514 28.4813 8.56985 27.437C15.8812 23.3796 23.0819 19.1282 30.3052 14.9111C34.4864 12.4687 38.6306 9.96071 42.7834 7.46981C44.5132 6.43408 46.0215 6.2372 47.9729 7.4156C56.0058 12.2661 64.1636 16.9084 72.2931 21.5963C75.5256 23.4595 78.7949 25.2542 82.0587 27.0575C83.851 28.0476 84.8423 29.2602 84.7685 31.597C84.5696 37.994 84.7003 44.3996 84.7003 50.7852Z" fill="#C9A227"/>
<path d="M81.6126 51.664C81.6126 45.1415 81.5955 38.6189 81.6324 32.0963C81.6324 31.1319 81.4165 30.6041 80.4962 30.0848C76.548 27.8421 72.6991 25.4254 68.7764 23.1342C61.4764 18.8686 54.1451 14.6572 46.8451 10.3944C46.0242 9.91506 45.4533 9.82375 44.5443 10.3744C41.0591 12.4573 37.4602 14.3462 33.9437 16.3663C26.1494 20.8573 18.3835 25.3997 10.5893 29.8908C9.86211 30.3102 9.59226 30.7182 9.59794 31.6027C9.62635 35.2549 9.47864 38.9099 9.46728 42.5621C9.44455 51.9779 9.46728 61.3937 9.43604 70.8265C9.43604 71.8252 9.65475 72.373 10.6035 72.9123C14.8102 75.3062 18.9232 77.8713 23.1016 80.3137C30.1459 84.4537 37.2216 88.5025 44.2574 92.6226C45.0641 93.0963 45.6152 93.1448 46.4759 92.6226C50.052 90.5141 53.7191 88.5681 57.318 86.4967C65.0071 82.0656 72.6565 77.5802 80.3627 73.1605C81.1922 72.684 81.4791 72.1961 81.4705 71.2146C81.408 64.692 81.4393 58.1695 81.4393 51.6498L81.6126 51.664Z" fill="#FDDE62"/>
<path d="M63.976 55.7242H27.0952C26.7689 55.7242 26.5044 55.4585 26.5044 55.1307V47.7579C26.5044 47.4301 26.7689 47.1644 27.0952 47.1644H63.976C64.3023 47.1644 64.5668 47.4301 64.5668 47.7579V55.1307C64.5668 55.4585 64.3023 55.7242 63.976 55.7242Z" fill="#C9A227"/>
<path d="M63.976 68.0332H27.0952C26.7689 68.0332 26.5044 67.7675 26.5044 67.4397V60.0669C26.5044 59.7391 26.7689 59.4734 27.0952 59.4734H63.976C64.3023 59.4734 64.5668 59.7391 64.5668 60.0669V67.4397C64.5668 67.7675 64.3023 68.0332 63.976 68.0332Z" fill="#C9A227"/>
<path d="M63.976 43.5265H27.0952C26.7689 43.5265 26.5044 43.2608 26.5044 42.933V35.5602C26.5044 35.2324 26.7689 34.9667 27.0952 34.9667H63.976C64.3023 34.9667 64.5668 35.2324 64.5668 35.5602V42.933C64.5668 43.2608 64.3023 43.5265 63.976 43.5265Z" fill="#C9A227"/>
</svg>
