<svg width="90" height="103" viewBox="0 0 90 103" fill="none" xmlns="http://www.w3.org/2000/svg">
<path d="M0.0170595 51.4819C0.0170595 43.176 0.0170429 34.873 0 26.57C0 25.9052 0.284067 25.6113 0.801034 25.3175C12.2785 18.6047 23.753 11.8862 35.2248 5.16199C38.0652 3.50424 40.9057 1.90356 43.7462 0.234399C43.963 0.0817982 44.2214 -6.10352e-05 44.4861 -6.10352e-05C44.7509 -6.10352e-05 45.0092 0.0817982 45.2261 0.234399C55.0598 5.88386 64.8964 11.5267 74.7358 17.1628C79.2209 19.7308 83.6662 22.3957 88.1627 24.9579C88.9098 25.3831 89.1256 25.8681 89.1285 26.6699C89.1597 35.9373 89.2364 45.2161 89.262 54.4778C89.2819 61.785 89.2364 69.0922 89.262 76.3994C89.2788 76.6538 89.2165 76.9072 89.0837 77.1244C88.9508 77.3417 88.7541 77.5121 88.5206 77.6121C74.1289 86.0045 59.7371 94.4093 45.3454 102.826C44.7773 103.163 44.3938 102.929 43.9507 102.678C35.8326 98.0329 27.7136 93.3859 19.5936 88.737C13.4156 85.1789 7.27445 81.5553 1.09073 78.0058C0.346528 77.5807 0.116469 77.1042 0.116469 76.2939C0.139193 68.0232 0.139193 59.7487 0.116469 51.4705L0.0170595 51.4819ZM83.7941 52.218C83.7941 49.9354 83.7742 47.63 83.7941 45.336C83.8395 40.8364 83.9077 36.3396 83.973 31.8429C84.0043 29.8456 83.4532 28.4475 81.4791 27.3547C74.1847 23.3287 67.0125 19.0802 59.8176 14.8802C55.662 12.4521 51.549 9.95262 47.4161 7.48454C45.7118 6.46593 44.195 6.17204 42.2265 7.38183C35.6934 11.3935 29.0069 15.1684 22.3602 18.9918C17.6337 21.6881 12.8816 24.3445 8.13513 27.0123C6.33427 28.0252 5.35145 29.2492 5.38838 31.6175C5.55028 42.0319 5.46509 52.4463 5.44521 62.8636C5.44521 65.6712 5.33157 68.4788 5.28897 71.2864C5.26056 73.161 5.79173 74.522 7.6636 75.5663C14.975 79.6236 22.1756 83.875 29.3989 88.0921C33.5801 90.5345 37.7244 93.0425 41.8772 95.5334C43.607 96.5692 45.1153 96.7661 47.0667 95.5877C55.0996 90.7371 63.2574 86.0948 71.3897 81.4069C74.6193 79.5437 77.8887 77.749 81.1524 75.9458C82.9476 74.9557 83.9361 73.7431 83.8622 71.4062C83.6634 65.0092 83.7941 58.6036 83.7941 52.218Z" fill="#20D6FF"/>
<path d="M80.706 51.3392C80.706 57.8618 80.6889 64.3843 80.7287 70.9069C80.7287 71.8713 80.51 72.3992 79.5925 72.9185C75.6442 75.1611 71.7954 77.5778 67.8727 79.869C60.5727 84.1346 53.2414 88.346 45.9414 92.6088C45.1233 93.0882 44.5495 93.1795 43.6406 92.6288C40.1553 90.5459 36.5593 88.6571 33.04 86.6369C25.2457 82.1459 17.4826 77.6035 9.68553 73.1125C8.95837 72.693 8.68852 72.285 8.6942 71.4005C8.72261 67.7483 8.57492 64.0933 8.5664 60.4411C8.54083 51.0254 8.5664 41.6096 8.53516 32.1767C8.53516 31.178 8.75103 30.6302 9.69974 30.091C13.9065 27.6971 18.0195 25.132 22.1978 22.6896C29.2422 18.5495 36.315 14.5007 43.3565 10.3806C44.1632 9.90696 44.7143 9.85845 45.575 10.3806C49.1511 12.4892 52.8182 14.4351 56.4171 16.5066C64.1062 20.9377 71.7556 25.423 79.4618 29.8427C80.2913 30.3192 80.5782 30.8071 80.5696 31.7886C80.5071 38.3112 80.5384 44.8338 80.5384 51.3535L80.706 51.3392Z" fill="#ADEDFF"/>
<path d="M44.6295 31.6745L51.1144 42.7395L63.5954 45.5157L55.1251 55.1283L56.3522 67.911L44.6295 62.7865L32.9097 67.911L34.1368 55.1283L25.6665 45.5157L38.1447 42.7395L44.6295 31.6745Z" fill="#53DFFF"/>
<path d="M44.6293 31.6745V51.3677L38.1445 42.7395L44.6293 31.6745Z" fill="#0DD0FF"/>
<path d="M25.6665 45.5157L44.6295 51.3677L34.1368 55.1283L25.6665 45.5157Z" fill="#0DD0FF"/>
<path d="M44.6295 51.3677V62.7865L32.9097 67.911L44.6295 51.3677Z" fill="#0DD0FF"/>
<path d="M56.352 67.911L44.6294 51.3677L55.125 55.1283L56.352 67.911Z" fill="#0DD0FF"/>
<path d="M63.5953 45.5157L44.6294 51.3677L51.1142 42.7394L63.5953 45.5157Z" fill="#0DD0FF"/>
</svg>
