<svg width="299" height="565" viewBox="0 0 299 565" fill="none" xmlns="http://www.w3.org/2000/svg">
<path d="M308.569 376.426H27.2014L6.62524 331.276H323.994L308.569 376.426Z" fill="#3E8D58"/>
<path d="M296.413 727.001H83.0634L18.7958 305.905H311.838L296.413 727.001Z" fill="#48A165"/>
<path d="M119.05 330.575H108.762V379.754H119.05V330.575Z" fill="#3E8D58"/>
<path d="M221.872 330.575H211.584V379.754H221.872V330.575Z" fill="#3E8D58"/>
<path d="M186.338 400.03L158.495 449.662L129.878 433.43L145.171 406.147C147.36 402.556 151.008 400.045 154.555 400.045L186.338 400.03Z" fill="#DCEBBA"/>
<path d="M207.688 422.861C206.141 420.204 199.807 409.271 197.473 405.067C194.744 400.279 192.117 400.045 186.411 400.045H154.686C153.492 399.977 152.299 400.175 151.191 400.625C150.083 401.074 149.089 401.763 148.28 402.643C151.023 400.804 159.239 399.476 162.873 405.388C165.689 409.884 180.515 436.203 181.508 437.969L168.666 445.37H203.572L220.924 415.226L207.688 422.861Z" fill="#FDF3D0"/>
<path d="M219.858 508.87L190.468 460.114L218.72 443.327L234.86 470.099C236.917 473.777 237.297 478.2 235.546 481.266L219.858 508.87Z" fill="#DCEBBA"/>
<path d="M189.476 516.154C192.54 516.154 205.178 516.023 210.008 516.023C215.539 516.023 217.027 513.833 219.858 508.87L235.546 481.28C236.181 480.28 236.587 479.151 236.736 477.975C236.884 476.8 236.772 475.605 236.407 474.478C236.655 477.777 233.751 485.587 226.79 485.864C221.493 486.083 191.285 485.966 189.271 485.952L189.184 471.135L171.92 501.498L189.563 531.408L189.476 516.154Z" fill="#FDF3D0"/>
<path d="M109.448 486.857L166.36 486.638V519.511L135.087 519.628C130.885 519.497 126.901 517.555 125.15 514.475L109.448 486.857Z" fill="#DCEBBA"/>
<path d="M118.845 457.034C117.284 459.676 110.892 470.58 108.411 474.741C105.595 479.485 106.689 481.894 109.506 486.857L125.12 514.475C125.647 515.549 126.406 516.491 127.342 517.234C128.279 517.976 129.37 518.5 130.534 518.767C127.616 517.307 122.377 510.782 125.704 504.666C128.229 500.009 143.829 474.128 144.879 472.405L157.648 479.937L140.443 449.531L105.683 449.268L118.845 457.034Z" fill="#FDF3D0"/>
<path d="M323.323 289.264H7.3111C3.27329 289.264 0 292.538 0 296.578V334.21C0 338.249 3.27329 341.523 7.3111 341.523H323.323C327.361 341.523 330.634 338.249 330.634 334.21V296.578C330.634 292.538 327.361 289.264 323.323 289.264Z" fill="#00693E"/>
</svg>
