<svg width="21" height="20" viewBox="0 0 21 20" fill="none" xmlns="http://www.w3.org/2000/svg">
<path d="M9.20504 20C8.65783 20 8.38422 20 8.15624 19.9251C7.76514 19.7967 7.44401 19.5132 7.26807 19.1411C7.16552 18.9242 7.13158 18.6527 7.06371 18.1097L6.98448 17.4759C6.93263 17.061 6.64298 16.724 6.29 16.5C5.93641 16.2767 5.49136 16.2202 5.10578 16.3822L4.5352 16.6218C3.98599 16.8525 3.71138 16.9678 3.45032 16.9815C3.0675 17.0017 2.69151 16.8745 2.39954 16.6261C2.20044 16.4567 2.05226 16.1983 1.75589 15.6816L0.987161 14.3412C0.677819 13.8018 0.523148 13.5322 0.479493 13.2626C0.42079 12.9 0.49712 12.5286 0.694016 12.2186C0.840439 11.988 1.08892 11.8012 1.58588 11.4275L2.30792 10.8846C2.47721 10.7573 2.562 10.551 2.58 10.34V9.66C2.562 9.44897 2.47721 9.2427 2.30792 9.11542L1.58782 8.57394C1.09237 8.20139 0.844638 8.01512 0.698463 7.78565C0.499535 7.47337 0.423131 7.09855 0.483957 6.73333C0.528652 6.46495 0.683703 6.19657 0.993805 5.65981L1.77301 4.31108C2.07074 3.79573 2.21961 3.53806 2.41921 3.3693C2.71074 3.12281 3.08528 2.99676 3.46652 3.01683C3.72754 3.03057 4.00191 3.1458 4.55064 3.37627L5.13329 3.62098C5.51406 3.78091 5.94692 3.71425 6.3 3.5C6.65479 3.28559 6.93188 2.94499 6.98329 2.53365L7.05988 1.921C7.13138 1.34896 7.16713 1.06294 7.27909 0.836113C7.4535 0.482738 7.75997 0.212193 8.13225 0.0829567C8.37122 0 8.65946 0 9.23595 0H10.895C11.4422 0 11.7158 0 11.9438 0.0748553C12.3349 0.203268 12.656 0.486763 12.8319 0.858912C12.9345 1.07585 12.9684 1.34734 13.0363 1.89033L13.1155 2.52415C13.1674 2.93899 13.457 3.27597 13.81 3.5C14.1636 3.72332 14.6086 3.77977 14.9942 3.61783L15.5648 3.37818C16.114 3.14751 16.3886 3.03218 16.6497 3.01845C17.0325 2.99833 17.4085 3.12553 17.7005 3.37394C17.8996 3.54334 18.0477 3.80171 18.3441 4.31844L19.1128 5.6588C19.4222 6.19816 19.5769 6.46785 19.6205 6.73744C19.6792 7.09996 19.6029 7.47142 19.406 7.78142C19.2596 8.01196 19.0111 8.1988 18.5141 8.57248L17.7921 9.11542C17.6228 9.2427 17.538 9.44897 17.52 9.66V10.34C17.5152 10.5479 17.579 10.7623 17.745 10.8876L18.5865 11.5228C18.9582 11.8034 19.1441 11.9437 19.2681 12.1054C19.5491 12.472 19.6456 12.9476 19.5296 13.3947C19.4785 13.592 19.362 13.7936 19.129 14.1969L18.2738 15.6772C17.9696 16.2037 17.8175 16.4669 17.6123 16.6378C17.3248 16.8773 16.9583 17.0006 16.5846 16.9837C16.3177 16.9717 16.0375 16.8539 15.4769 16.6185L14.922 16.3854C14.5309 16.2212 14.0866 16.2865 13.72 16.5C13.3666 16.7136 13.0943 17.0573 13.0532 17.4682L12.9919 18.0815C12.9385 18.6151 12.9118 18.8819 12.8189 19.0963C12.6468 19.4936 12.3114 19.7971 11.8989 19.9289C11.6763 20 11.4082 20 10.8719 20H9.20504ZM10.1 13.5C11.0283 13.5 11.9185 13.1313 12.5749 12.4749C13.2313 11.8185 13.6 10.9283 13.6 10C13.6 9.07174 13.2313 8.1815 12.5749 7.52513C11.9185 6.86875 11.0283 6.5 10.1 6.5C9.63875 6.48846 9.18 6.5712 8.75185 6.74315C8.32369 6.9151 7.93514 7.17264 7.61 7.5C6.95048 8.1649 6.58042 9.06348 6.58042 10C6.58042 10.9365 6.95048 11.8351 7.61 12.5C7.93514 12.8274 8.32369 13.0849 8.75185 13.2569C9.18 13.4288 9.63875 13.5115 10.1 13.5Z" fill="#00693E"/>
</svg>
