<svg width="112" height="96" viewBox="0 0 112 96" fill="none" xmlns="http://www.w3.org/2000/svg">
<path d="M57.4424 12.4227C57.4424 12.4227 45.1259 2.49641 42.7618 2.00009C40.3977 1.50377 30.9123 12.4227 30.9123 12.4227C30.9123 12.4227 10.0589 15.3423 8.16178 17.6341C6.26469 19.9259 -0.360534 39.4428 0.106442 41.8076C0.573419 44.1724 6.26469 51.7632 6.26469 53.1791C6.26469 54.5951 -0.885882 71.6596 0.0918491 75.9367C1.06958 80.2138 26.5344 81.6152 28.7233 82.564C30.9123 83.5128 33.7579 95.3661 36.122 95.8332C38.4861 96.3003 92.5094 79.7759 95.355 77.8344C98.2006 75.8929 96.3182 61.7771 98.4341 61.237C100.55 60.6969 111.933 49.3838 111.933 46.5518C111.933 43.7199 89.6929 1.51837 84.7021 0.102404C79.7113 -1.31356 57.4424 12.4227 57.4424 12.4227Z" fill="#FF8302"/>
<path d="M57.4424 12.4227C60.755 15.7364 72.6045 44.0848 72.6045 47.924C72.6045 51.7632 39.0406 76.8855 36.589 76.4038C34.1374 75.9221 8.35151 59.2225 10.5405 54.6097C12.7294 49.9968 36.122 30.6113 38.0191 27.2101C39.9162 23.8088 41.5214 7.67853 41.5214 7.67853" stroke="#FFB304" stroke-width="0.73" stroke-miterlimit="10"/>
<path d="M24.2725 50.3326C24.2725 50.3326 46.0744 45.1358 49.8686 42.0411C53.6628 38.9465 63.3817 23.4147 63.3817 23.4147" stroke="#FFB304" stroke-width="0.73" stroke-miterlimit="10"/>
<path d="M67.1176 31.9689C67.1176 31.9689 86.6722 34.8008 89.1238 36.8737C91.5754 38.9465 98.4487 61.237 98.4487 61.237" stroke="#FFB304" stroke-width="0.73" stroke-miterlimit="10"/>
<path d="M43.7687 94.0815C43.7687 94.0815 80.8204 67.4847 82.7175 64.1711C84.6146 60.8574 80.2513 34.2461 80.2513 34.2461" stroke="#FFB304" stroke-width="0.73" stroke-miterlimit="10"/>
</svg>
