<svg width="18" height="20" viewBox="0 0 18 20" fill="none" xmlns="http://www.w3.org/2000/svg">
<path d="M1 4.18H17H1ZM6 1H12H6ZM12.5 19H5.5C4.95446 18.9817 4.43823 18.7487 4.06366 18.3516C3.68909 17.9546 3.48651 17.4257 3.5 16.88L3 5.28C2.98598 5.14052 3.00144 4.99966 3.04538 4.86654C3.08932 4.73343 3.16075 4.61104 3.25505 4.50731C3.34934 4.40359 3.46439 4.32085 3.59273 4.26446C3.72106 4.20807 3.85982 4.1793 4 4.18H14C14.1402 4.1793 14.2789 4.20807 14.4073 4.26446C14.5356 4.32085 14.6507 4.40359 14.745 4.50731C14.8392 4.61104 14.9107 4.73343 14.9546 4.86654C14.9986 4.99966 15.014 5.14052 15 5.28L14.54 16.88C14.5466 17.1535 14.499 17.4256 14.3998 17.6806C14.3006 17.9356 14.1519 18.1684 13.9622 18.3655C13.7725 18.5626 13.5456 18.7202 13.2946 18.8291C13.0436 18.938 12.7736 18.9961 12.5 19Z" fill="#00693E"/>
<path d="M1 4.18H17M6 1H12M12.5 19H5.5C4.95446 18.9817 4.43823 18.7487 4.06366 18.3516C3.68909 17.9546 3.48651 17.4257 3.5 16.88L3 5.28C2.98598 5.14052 3.00144 4.99966 3.04538 4.86654C3.08932 4.73343 3.16075 4.61104 3.25505 4.50731C3.34934 4.40359 3.46439 4.32085 3.59273 4.26446C3.72106 4.20807 3.85982 4.1793 4 4.18H14C14.1402 4.1793 14.2789 4.20807 14.4073 4.26446C14.5356 4.32085 14.6507 4.40359 14.745 4.50731C14.8392 4.61104 14.9107 4.73343 14.9546 4.86654C14.9986 4.99966 15.014 5.14052 15 5.28L14.54 16.88C14.5466 17.1535 14.499 17.4256 14.3998 17.6806C14.3006 17.9356 14.1519 18.1684 13.9622 18.3655C13.7725 18.5626 13.5456 18.7202 13.2946 18.8291C13.0436 18.938 12.7736 18.9961 12.5 19Z" stroke="#00693E" stroke-width="2" stroke-linecap="round"/>
</svg>
