<svg width="227" height="170" viewBox="0 0 227 170" fill="none" xmlns="http://www.w3.org/2000/svg">
<path d="M100.482 135.159C96.344 131.502 95.9542 125.182 99.6116 121.044L185.741 23.5904C189.399 19.4522 195.718 19.0624 199.857 22.7198L209.896 31.5924C215.689 36.7128 216.235 45.5602 211.115 51.3538L130.283 142.813C125.162 148.606 116.315 149.152 110.521 144.032L100.482 135.159Z" fill="#00693E"/>
<path d="M191.561 45.8427C191.561 45.8427 185.526 44.61 180.034 47.4388C180.034 47.4388 185.436 49.2744 191.561 45.8427Z" fill="#91C34A"/>
<path d="M196.889 46.3006C196.889 46.3006 189.381 46.2702 184.274 51.3718C184.274 51.3718 191.031 52.4415 196.889 46.3006Z" fill="#91C34A"/>
<path d="M189.58 45.6177C189.58 45.6177 184.243 44.9399 181.091 39.4403C181.087 39.437 187.426 39.1187 189.58 45.6177Z" fill="#91C34A"/>
<path d="M198.233 46.3795C198.233 46.3795 191.541 45.9072 187.86 40.0053C187.86 40.0053 193.733 39.9467 198.233 46.3795Z" fill="#91C34A"/>
<path d="M202.397 46.5376C202.425 46.489 194.451 47.8179 190.395 53.4889C190.394 53.4901 198.703 53.0362 202.397 46.5376Z" fill="#91C34A"/>
<path d="M203.752 46.5597C203.752 46.5597 197.764 45.7379 194.222 39.1006C194.23 39.1071 200.212 39.5646 203.752 46.5597Z" fill="#91C34A"/>
<path d="M208.534 46.5237C208.534 46.5237 201.684 47.6426 197.612 53.3568C197.612 53.3568 204.931 52.6462 208.534 46.5237Z" fill="#91C34A"/>
<path d="M209.965 46.4788C209.965 46.4788 202.766 45.0788 199.564 38.9891C199.564 38.9891 207.222 40.0396 209.965 46.4788Z" fill="#91C34A"/>
<path d="M213.209 46.3163C213.209 46.3163 208.504 47.6417 205.798 52.7277C205.798 52.7277 211.472 50.9182 213.209 46.3163Z" fill="#91C34A"/>
<path d="M214.434 46.2325C214.434 46.2325 209.649 45.0622 206.406 39.138C206.398 39.1456 212.273 40.5088 214.434 46.2325Z" fill="#91C34A"/>
<path d="M123.326 155.349C127.465 159.006 133.784 158.616 137.442 154.478L223.571 57.0249C227.229 52.8866 226.839 46.567 222.701 42.9096V42.9096C219.681 40.2409 215.07 40.5253 212.401 43.5448L122.691 145.049C120.022 148.069 120.307 152.68 123.326 155.349V155.349Z" fill="white"/>
<path d="M192.703 32.5532C192.575 31.8214 192.496 31.0814 192.465 30.3379C192.422 29.5137 192.428 28.6872 192.483 27.8628C192.52 27.2263 192.608 26.5934 192.747 25.9707C192.641 27.29 192.642 28.6148 192.749 29.9318C192.843 31.1438 193.002 32.349 193.227 33.5419C193.694 33.0755 195.265 31.3124 195.267 28.7325C195.27 25.5442 192.5 23.8323 192.5 23.8323C192.128 25.1935 190.136 26.5099 190.215 29.2591C190.278 31.5514 192.238 33.084 192.887 33.5306C192.821 33.207 192.761 32.8798 192.703 32.5532Z" fill="#91C34A"/>
<path d="M116.348 149.181C117.088 148.344 118.364 148.263 119.198 149.001C120.033 149.738 120.109 151.015 119.37 151.852C118.63 152.689 117.354 152.77 116.519 152.032C115.685 151.295 115.608 150.018 116.348 149.181Z" fill="#F5F4ED"/>
<path d="M119.908 145.153C120.648 144.316 121.924 144.235 122.758 144.973C123.593 145.71 123.67 146.986 122.93 147.824C122.19 148.661 120.914 148.741 120.079 148.004C119.245 147.266 119.168 145.99 119.908 145.153Z" fill="#F5F4ED"/>
<path d="M123.468 141.125C124.208 140.288 125.484 140.207 126.319 140.944C127.153 141.682 127.23 142.958 126.49 143.795C125.75 144.632 124.474 144.713 123.64 143.976C122.805 143.238 122.728 141.962 123.468 141.125Z" fill="#F5F4ED"/>
<path d="M127.028 137.096C127.768 136.259 129.044 136.179 129.879 136.916C130.713 137.654 130.79 138.93 130.05 139.767C129.31 140.604 128.034 140.685 127.2 139.947C126.365 139.21 126.289 137.934 127.028 137.096Z" fill="#F5F4ED"/>
<path d="M130.588 133.068C131.328 132.231 132.604 132.151 133.439 132.888C134.273 133.625 134.35 134.902 133.61 135.739C132.87 136.576 131.594 136.657 130.76 135.919C129.925 135.182 129.849 133.905 130.588 133.068Z" fill="#F5F4ED"/>
<path d="M134.149 129.04C134.888 128.203 136.165 128.122 136.999 128.86C137.833 129.597 137.91 130.874 137.17 131.711C136.431 132.548 135.154 132.629 134.32 131.891C133.486 131.154 133.409 129.877 134.149 129.04Z" fill="#F5F4ED"/>
<path d="M134.149 129.04C134.888 128.203 136.165 128.122 136.999 128.86C137.833 129.597 137.91 130.874 137.17 131.711C136.431 132.548 135.154 132.629 134.32 131.891C133.486 131.154 133.409 129.877 134.149 129.04Z" fill="#F5F4ED"/>
<path d="M137.709 125.012C138.449 124.175 139.725 124.094 140.559 124.832C141.394 125.569 141.47 126.845 140.731 127.683C139.991 128.52 138.715 128.6 137.88 127.863C137.046 127.125 136.969 125.849 137.709 125.012Z" fill="#F5F4ED"/>
<path d="M141.269 120.984C142.009 120.147 143.285 120.066 144.119 120.803C144.954 121.541 145.031 122.817 144.291 123.654C143.551 124.491 142.275 124.572 141.44 123.835C140.606 123.097 140.529 121.821 141.269 120.984Z" fill="#F5F4ED"/>
<path d="M144.829 116.955C145.569 116.118 146.845 116.038 147.68 116.775C148.514 117.513 148.591 118.789 147.851 119.626C147.111 120.463 145.835 120.544 145.001 119.806C144.166 119.069 144.089 117.793 144.829 116.955Z" fill="#F5F4ED"/>
<path d="M148.389 112.927C149.129 112.09 150.405 112.01 151.24 112.747C152.074 113.484 152.151 114.761 151.411 115.598C150.671 116.435 149.395 116.516 148.561 115.778C147.726 115.041 147.65 113.764 148.389 112.927Z" fill="#F5F4ED"/>
<path d="M151.949 108.899C152.689 108.062 153.965 107.981 154.8 108.719C155.634 109.456 155.711 110.733 154.971 111.57C154.231 112.407 152.955 112.488 152.121 111.75C151.286 111.013 151.21 109.736 151.949 108.899Z" fill="#F5F4ED"/>
<path d="M151.949 108.899C152.689 108.062 153.965 107.981 154.8 108.719C155.634 109.456 155.711 110.733 154.971 111.57C154.231 112.407 152.955 112.488 152.121 111.75C151.286 111.013 151.21 109.736 151.949 108.899Z" fill="#F5F4ED"/>
<path d="M155.51 104.871C156.249 104.034 157.525 103.953 158.36 104.691C159.194 105.428 159.271 106.704 158.531 107.541C157.792 108.379 156.515 108.459 155.681 107.722C154.846 106.984 154.77 105.708 155.51 104.871Z" fill="#F5F4ED"/>
<path d="M159.07 100.843C159.809 100.006 161.086 99.9248 161.92 100.662C162.755 101.4 162.831 102.676 162.091 103.513C161.352 104.35 160.076 104.431 159.241 103.694C158.407 102.956 158.33 101.68 159.07 100.843Z" fill="#F5F4ED"/>
<path d="M162.63 96.8144C163.37 95.9774 164.646 95.8966 165.48 96.6341C166.315 97.3716 166.391 98.648 165.652 99.4851C164.912 100.322 163.636 100.403 162.801 99.6653C161.967 98.9279 161.89 97.6514 162.63 96.8144Z" fill="#F5F4ED"/>
<path d="M166.19 92.7862C166.93 91.9492 168.206 91.8684 169.04 92.6059C169.875 93.3434 169.952 94.6198 169.212 95.4569C168.472 96.2939 167.196 96.3746 166.361 95.6371C165.527 94.8997 165.45 93.6232 166.19 92.7862Z" fill="#F5F4ED"/>
<path d="M169.75 88.758C170.49 87.921 171.766 87.8403 172.6 88.5777C173.435 89.3152 173.512 90.5916 172.772 91.4287C172.032 92.2657 170.756 92.3464 169.921 91.609C169.087 90.8715 169.01 89.5951 169.75 88.758Z" fill="#F5F4ED"/>
<path d="M169.75 88.758C170.49 87.921 171.766 87.8403 172.6 88.5777C173.435 89.3152 173.512 90.5916 172.772 91.4287C172.032 92.2657 170.756 92.3464 169.921 91.609C169.087 90.8715 169.01 89.5951 169.75 88.758Z" fill="#F5F4ED"/>
<path d="M173.31 84.7299C174.05 83.8928 175.326 83.8121 176.161 84.5496C176.995 85.2871 177.072 86.5635 176.332 87.4005C175.592 88.2376 174.316 88.3183 173.482 87.5808C172.647 86.8433 172.57 85.5669 173.31 84.7299Z" fill="#F5F4ED"/>
<path d="M176.87 80.7017C177.61 79.8646 178.886 79.7839 179.721 80.5214C180.555 81.2589 180.632 82.5353 179.892 83.3723C179.152 84.2094 177.876 84.2901 177.042 83.5526C176.207 82.8151 176.131 81.5387 176.87 80.7017Z" fill="#F5F4ED"/>
<path d="M180.43 76.6735C181.17 75.8364 182.446 75.7557 183.281 76.4932C184.115 77.2307 184.192 78.5071 183.452 79.3441C182.712 80.1812 181.436 80.2619 180.602 79.5244C179.767 78.7869 179.691 77.5105 180.43 76.6735Z" fill="#F5F4ED"/>
<path d="M183.991 72.6453C184.73 71.8082 186.007 71.7275 186.841 72.465C187.675 73.2025 187.752 74.4789 187.012 75.3159C186.273 76.153 184.996 76.2337 184.162 75.4962C183.328 74.7587 183.251 73.4823 183.991 72.6453Z" fill="#F5F4ED"/>
<path d="M187.551 68.6171C188.291 67.78 189.567 67.6993 190.401 68.4368C191.236 69.1743 191.312 70.4507 190.573 71.2878C189.833 72.1248 188.557 72.2055 187.722 71.468C186.888 70.7306 186.811 69.4541 187.551 68.6171Z" fill="#F5F4ED"/>
<path d="M187.551 68.6171C188.291 67.78 189.567 67.6993 190.401 68.4368C191.236 69.1743 191.312 70.4507 190.573 71.2878C189.833 72.1248 188.557 72.2055 187.722 71.468C186.888 70.7306 186.811 69.4541 187.551 68.6171Z" fill="#F5F4ED"/>
<path d="M191.111 64.5891C191.851 63.7521 193.127 63.6714 193.961 64.4089C194.796 65.1463 194.872 66.4227 194.133 67.2598C193.393 68.0968 192.117 68.1776 191.282 67.4401C190.448 66.7026 190.371 65.4262 191.111 64.5891Z" fill="#F5F4ED"/>
<path d="M194.671 60.5609C195.411 59.7239 196.687 59.6432 197.521 60.3807C198.356 61.1181 198.433 62.3946 197.693 63.2316C196.953 64.0686 195.677 64.1494 194.842 63.4119C194.008 62.6744 193.931 61.398 194.671 60.5609Z" fill="#F5F4ED"/>
<path d="M198.231 56.5327C198.971 55.6957 200.247 55.615 201.082 56.3525C201.916 57.0899 201.993 58.3664 201.253 59.2034C200.513 60.0405 199.237 60.1212 198.403 59.3837C197.568 58.6462 197.491 57.3698 198.231 56.5327Z" fill="#F5F4ED"/>
<path d="M201.791 52.5045C202.531 51.6675 203.807 51.5868 204.642 52.3243C205.476 53.0617 205.553 54.3382 204.813 55.1752C204.073 56.0123 202.797 56.093 201.963 55.3555C201.128 54.618 201.052 53.3416 201.791 52.5045Z" fill="#F5F4ED"/>
<path d="M205.351 48.4764C206.091 47.6393 207.367 47.5586 208.202 48.2961C209.036 49.0336 209.113 50.31 208.373 51.147C207.633 51.9841 206.357 52.0648 205.523 51.3273C204.688 50.5898 204.612 49.3134 205.351 48.4764Z" fill="#F5F4ED"/>
<path d="M190.573 71.2878C191.312 70.4507 191.236 69.1743 190.401 68.4368C189.567 67.6993 188.291 67.78 187.551 68.6171C186.811 69.4541 186.888 70.7306 187.722 71.468C188.557 72.2055 189.833 72.1248 190.573 71.2878Z" fill="#F5F4ED"/>
<path d="M194.133 67.2598C194.872 66.4227 194.796 65.1463 193.961 64.4089C193.127 63.6714 191.851 63.7521 191.111 64.5891C190.371 65.4262 190.448 66.7026 191.282 67.4401C192.117 68.1776 193.393 68.0968 194.133 67.2598Z" fill="#F5F4ED"/>
<path d="M197.693 63.2316C198.433 62.3946 198.356 61.1181 197.521 60.3807C196.687 59.6432 195.411 59.7239 194.671 60.5609C193.931 61.398 194.008 62.6744 194.842 63.4119C195.677 64.1494 196.953 64.0686 197.693 63.2316Z" fill="#F5F4ED"/>
<path d="M201.253 59.2034C201.993 58.3664 201.916 57.0899 201.082 56.3525C200.247 55.615 198.971 55.6957 198.231 56.5327C197.491 57.3698 197.568 58.6462 198.403 59.3837C199.237 60.1212 200.513 60.0405 201.253 59.2034Z" fill="#F5F4ED"/>
<path d="M204.813 55.1752C205.553 54.3382 205.476 53.0617 204.642 52.3243C203.807 51.5868 202.531 51.6675 201.791 52.5045C201.052 53.3416 201.128 54.618 201.963 55.3555C202.797 56.093 204.073 56.0123 204.813 55.1752Z" fill="#F5F4ED"/>
<path d="M208.373 51.147C209.113 50.31 209.036 49.0336 208.202 48.2961C207.367 47.5586 206.091 47.6393 205.351 48.4764C204.612 49.3134 204.688 50.5898 205.523 51.3273C206.357 52.0648 207.633 51.9841 208.373 51.147Z" fill="#F5F4ED"/>
<path d="M198.076 56.7078C198.816 55.8707 200.092 55.79 200.927 56.5275C201.761 57.265 201.838 58.5414 201.098 59.3785C200.358 60.2155 199.082 60.2962 198.248 59.5587C197.413 58.8212 197.337 57.5448 198.076 56.7078Z" fill="#F5F4ED"/>
<path d="M201.637 52.6796C202.376 51.8425 203.653 51.7618 204.487 52.4993C205.321 53.2368 205.398 54.5132 204.658 55.3503C203.919 56.1873 202.642 56.268 201.808 55.5305C200.974 54.7931 200.897 53.5166 201.637 52.6796Z" fill="#F5F4ED"/>
<path d="M205.197 48.6514C205.937 47.8144 207.213 47.7336 208.047 48.4711C208.882 49.2086 208.958 50.485 208.219 51.3221C207.479 52.1591 206.203 52.2398 205.368 51.5023C204.534 50.7649 204.457 49.4884 205.197 48.6514Z" fill="#F5F4ED"/>
<path d="M208.757 44.6232C209.497 43.7862 210.773 43.7054 211.607 44.4429C212.442 45.1804 212.518 46.4568 211.779 47.2939C211.039 48.1309 209.763 48.2116 208.928 47.4741C208.094 46.7367 208.017 45.4603 208.757 44.6232Z" fill="#F5F4ED"/>
<path d="M212.317 40.595C213.057 39.758 214.333 39.6772 215.167 40.4147C216.002 41.1522 216.079 42.4286 215.339 43.2657C214.599 44.1027 213.323 44.1834 212.488 43.4459C211.654 42.7085 211.577 41.4321 212.317 40.595Z" fill="#F5F4ED"/>
<path d="M215.877 36.5668C216.617 35.7298 217.893 35.6491 218.728 36.3865C219.562 37.124 219.639 38.4004 218.899 39.2375C218.159 40.0745 216.883 40.1552 216.049 39.4178C215.214 38.6803 215.137 37.4039 215.877 36.5668Z" fill="#F5F4ED"/>
<path d="M201.098 59.3785C201.838 58.5414 201.761 57.265 200.927 56.5275C200.092 55.79 198.816 55.8707 198.076 56.7078C197.337 57.5448 197.413 58.8212 198.248 59.5587C199.082 60.2962 200.358 60.2155 201.098 59.3785Z" fill="#F5F4ED"/>
<path d="M204.658 55.3503C205.398 54.5132 205.321 53.2368 204.487 52.4993C203.653 51.7618 202.376 51.8425 201.637 52.6796C200.897 53.5166 200.974 54.7931 201.808 55.5305C202.642 56.268 203.919 56.1873 204.658 55.3503Z" fill="#F5F4ED"/>
<path d="M208.219 51.3221C208.958 50.485 208.882 49.2086 208.047 48.4711C207.213 47.7336 205.937 47.8144 205.197 48.6514C204.457 49.4884 204.534 50.7649 205.368 51.5023C206.203 52.2398 207.479 52.1591 208.219 51.3221Z" fill="#F5F4ED"/>
<path d="M211.779 47.2939C212.518 46.4568 212.442 45.1804 211.607 44.4429C210.773 43.7054 209.497 43.7862 208.757 44.6232C208.017 45.4603 208.094 46.7367 208.928 47.4741C209.763 48.2116 211.039 48.1309 211.779 47.2939Z" fill="#F5F4ED"/>
<path d="M215.339 43.2657C216.079 42.4286 216.002 41.1522 215.167 40.4147C214.333 39.6772 213.057 39.758 212.317 40.595C211.577 41.4321 211.654 42.7085 212.488 43.4459C213.323 44.1834 214.599 44.1027 215.339 43.2657Z" fill="#F5F4ED"/>
<path d="M218.899 39.2375C219.639 38.4004 219.562 37.124 218.728 36.3865C217.893 35.6491 216.617 35.7298 215.877 36.5668C215.137 37.4039 215.214 38.6803 216.049 39.4178C216.883 40.1552 218.159 40.0745 218.899 39.2375Z" fill="#F5F4ED"/>
<path d="M119.37 151.852C120.109 151.015 120.033 149.738 119.198 149.001C118.364 148.263 117.088 148.344 116.348 149.181C115.608 150.018 115.685 151.295 116.519 152.032C117.354 152.77 118.63 152.689 119.37 151.852Z" fill="#F5F4ED"/>
<path d="M122.93 147.824C123.67 146.986 123.593 145.71 122.758 144.973C121.924 144.235 120.648 144.316 119.908 145.153C119.168 145.99 119.245 147.266 120.079 148.004C120.914 148.741 122.19 148.661 122.93 147.824Z" fill="#F5F4ED"/>
<path d="M126.49 143.795C127.23 142.958 127.153 141.682 126.319 140.944C125.484 140.207 124.208 140.288 123.468 141.125C122.728 141.962 122.805 143.238 123.64 143.976C124.474 144.713 125.75 144.632 126.49 143.795Z" fill="#F5F4ED"/>
<path d="M130.05 139.767C130.79 138.93 130.713 137.654 129.879 136.916C129.044 136.179 127.768 136.259 127.028 137.096C126.289 137.934 126.365 139.21 127.2 139.947C128.034 140.685 129.31 140.604 130.05 139.767Z" fill="#F5F4ED"/>
<path d="M133.61 135.739C134.35 134.902 134.273 133.625 133.439 132.888C132.604 132.151 131.328 132.231 130.588 133.068C129.849 133.905 129.925 135.182 130.76 135.919C131.594 136.657 132.87 136.576 133.61 135.739Z" fill="#F5F4ED"/>
<path d="M137.17 131.711C137.91 130.874 137.833 129.597 136.999 128.86C136.165 128.122 134.888 128.203 134.149 129.04C133.409 129.877 133.486 131.154 134.32 131.891C135.154 132.629 136.431 132.548 137.17 131.711Z" fill="#F5F4ED"/>
<path d="M137.17 131.711C137.91 130.874 137.833 129.597 136.999 128.86C136.165 128.122 134.888 128.203 134.149 129.04C133.409 129.877 133.486 131.154 134.32 131.891C135.154 132.629 136.431 132.548 137.17 131.711Z" fill="#F5F4ED"/>
<path d="M140.731 127.683C141.47 126.845 141.394 125.569 140.559 124.832C139.725 124.094 138.449 124.175 137.709 125.012C136.969 125.849 137.046 127.125 137.88 127.863C138.715 128.6 139.991 128.52 140.731 127.683Z" fill="#F5F4ED"/>
<path d="M144.291 123.654C145.031 122.817 144.954 121.541 144.119 120.803C143.285 120.066 142.009 120.147 141.269 120.984C140.529 121.821 140.606 123.097 141.44 123.835C142.275 124.572 143.551 124.491 144.291 123.654Z" fill="#F5F4ED"/>
<path d="M147.851 119.626C148.591 118.789 148.514 117.513 147.68 116.775C146.845 116.038 145.569 116.118 144.829 116.955C144.089 117.793 144.166 119.069 145.001 119.806C145.835 120.544 147.111 120.463 147.851 119.626Z" fill="#F5F4ED"/>
<path d="M151.411 115.598C152.151 114.761 152.074 113.484 151.24 112.747C150.405 112.01 149.129 112.09 148.389 112.927C147.65 113.764 147.726 115.041 148.561 115.778C149.395 116.516 150.671 116.435 151.411 115.598Z" fill="#F5F4ED"/>
<path d="M154.971 111.57C155.711 110.733 155.634 109.456 154.8 108.719C153.965 107.981 152.689 108.062 151.949 108.899C151.21 109.736 151.286 111.013 152.121 111.75C152.955 112.488 154.231 112.407 154.971 111.57Z" fill="#F5F4ED"/>
<path d="M154.971 111.57C155.711 110.733 155.634 109.456 154.8 108.719C153.965 107.981 152.689 108.062 151.949 108.899C151.21 109.736 151.286 111.013 152.121 111.75C152.955 112.488 154.231 112.407 154.971 111.57Z" fill="#F5F4ED"/>
<path d="M158.531 107.541C159.271 106.704 159.194 105.428 158.36 104.691C157.525 103.953 156.249 104.034 155.51 104.871C154.77 105.708 154.846 106.984 155.681 107.722C156.515 108.459 157.792 108.379 158.531 107.541Z" fill="#F5F4ED"/>
<path d="M162.091 103.513C162.831 102.676 162.755 101.4 161.92 100.662C161.086 99.9248 159.809 100.006 159.07 100.843C158.33 101.68 158.407 102.956 159.241 103.694C160.076 104.431 161.352 104.35 162.091 103.513Z" fill="#F5F4ED"/>
<path d="M165.652 99.4851C166.391 98.648 166.315 97.3716 165.48 96.6341C164.646 95.8966 163.37 95.9774 162.63 96.8144C161.89 97.6514 161.967 98.9279 162.801 99.6653C163.636 100.403 164.912 100.322 165.652 99.4851Z" fill="#F5F4ED"/>
<path d="M169.212 95.4569C169.952 94.6198 169.875 93.3434 169.04 92.6059C168.206 91.8684 166.93 91.9492 166.19 92.7862C165.45 93.6232 165.527 94.8997 166.361 95.6371C167.196 96.3746 168.472 96.2939 169.212 95.4569Z" fill="#F5F4ED"/>
<path d="M172.772 91.4287C173.512 90.5916 173.435 89.3152 172.6 88.5777C171.766 87.8403 170.49 87.921 169.75 88.758C169.01 89.5951 169.087 90.8715 169.921 91.609C170.756 92.3464 172.032 92.2657 172.772 91.4287Z" fill="#F5F4ED"/>
<path d="M172.772 91.4287C173.512 90.5916 173.435 89.3152 172.6 88.5777C171.766 87.8403 170.49 87.921 169.75 88.758C169.01 89.5951 169.087 90.8715 169.921 91.609C170.756 92.3464 172.032 92.2657 172.772 91.4287Z" fill="#F5F4ED"/>
<path d="M176.332 87.4005C177.072 86.5635 176.995 85.2871 176.161 84.5496C175.326 83.8121 174.05 83.8928 173.31 84.7299C172.57 85.5669 172.647 86.8433 173.482 87.5808C174.316 88.3183 175.592 88.2376 176.332 87.4005Z" fill="#F5F4ED"/>
<path d="M179.892 83.3723C180.632 82.5353 180.555 81.2589 179.721 80.5214C178.886 79.7839 177.61 79.8646 176.87 80.7017C176.131 81.5387 176.207 82.8151 177.042 83.5526C177.876 84.2901 179.152 84.2094 179.892 83.3723Z" fill="#F5F4ED"/>
<path d="M183.452 79.3441C184.192 78.5071 184.115 77.2307 183.281 76.4932C182.446 75.7557 181.17 75.8364 180.43 76.6735C179.691 77.5105 179.767 78.7869 180.602 79.5244C181.436 80.2619 182.712 80.1812 183.452 79.3441Z" fill="#F5F4ED"/>
<path d="M187.012 75.3159C187.752 74.4789 187.675 73.2025 186.841 72.465C186.007 71.7275 184.73 71.8082 183.991 72.6453C183.251 73.4823 183.328 74.7587 184.162 75.4962C184.996 76.2337 186.273 76.153 187.012 75.3159Z" fill="#F5F4ED"/>
<path d="M190.573 71.2878C191.312 70.4507 191.236 69.1743 190.401 68.4368C189.567 67.6993 188.291 67.78 187.551 68.6171C186.811 69.4541 186.888 70.7306 187.722 71.468C188.557 72.2055 189.833 72.1248 190.573 71.2878Z" fill="#F5F4ED"/>
<path d="M96.1392 148.026C90.7963 146.628 87.5988 141.163 88.9973 135.82L121.93 9.99926C123.329 4.65639 128.794 1.45884 134.137 2.85731L147.098 6.24989C154.578 8.20775 159.054 15.8586 157.097 23.3386L126.189 141.42C124.231 148.9 116.581 153.377 109.101 151.419L96.1392 148.026Z" fill="#00693E"/>
<path d="M137.159 27.2366C137.159 27.2366 131.216 28.8577 127.589 33.8592C127.589 33.8592 133.239 33.0614 137.159 27.2366Z" fill="#91C34A"/>
<path d="M142.121 25.2428C142.121 25.2428 135.406 28.6012 133.148 35.4577C133.148 35.4577 139.661 33.3654 142.121 25.2428Z" fill="#91C34A"/>
<path d="M135.289 27.9292C135.289 27.9292 130.22 29.7308 124.927 26.2432C124.922 26.242 130.436 23.0994 135.289 27.9292Z" fill="#91C34A"/>
<path d="M143.356 24.7073C143.356 24.7073 137.17 27.303 131.223 23.6954C131.223 23.6954 136.439 20.9947 143.356 24.7073Z" fill="#91C34A"/>
<path d="M147.144 22.9706C147.147 22.9148 140.629 27.6967 139.566 34.5873C139.565 34.5889 146.777 30.4368 147.144 22.9706Z" fill="#91C34A"/>
<path d="M148.363 22.3796C148.363 22.3796 142.648 24.3459 136.494 20.0188C136.504 20.0213 142.05 17.732 148.363 22.3796Z" fill="#91C34A"/>
<path d="M152.615 20.1912C152.615 20.1912 147.005 24.2787 145.948 31.2151C145.948 31.2151 152.16 27.2804 152.615 20.1912Z" fill="#91C34A"/>
<path d="M153.872 19.5059C153.872 19.5059 146.815 21.5024 141.211 17.5108C141.211 17.5108 148.52 14.9954 153.872 19.5059Z" fill="#91C34A"/>
<path d="M156.695 17.8979C156.695 17.8979 153.093 21.2024 152.971 26.9623C152.971 26.9623 157.219 22.7887 156.695 17.8979Z" fill="#91C34A"/>
<path d="M157.75 17.2709C157.75 17.2709 152.951 18.384 147.386 14.5582C147.381 14.569 153.24 13.1365 157.75 17.2709Z" fill="#91C34A"/>
<path d="M125.633 155.746C130.976 157.145 136.441 153.947 137.839 148.604L170.772 22.7835C172.171 17.4406 168.973 11.9757 163.63 10.5773V10.5773C159.732 9.55685 155.744 11.89 154.724 15.7884L120.422 146.84C119.401 150.738 121.734 154.726 125.633 155.746V155.746Z" fill="white"/>
<path d="M132.186 14.8598C131.742 14.2643 131.337 13.6397 130.974 12.99C130.564 12.2739 130.197 11.5334 129.874 10.7727C129.62 10.1881 129.413 9.58339 129.257 8.96491C129.757 10.19 130.355 11.3722 131.044 12.4995C131.675 13.539 132.361 14.5428 133.099 15.5063C133.305 14.8795 133.913 12.5973 132.751 10.2936C131.317 7.44624 128.072 7.16756 128.072 7.16756C128.353 8.55039 127.17 10.6232 128.479 13.0418C129.57 15.0591 132.01 15.5435 132.79 15.6494C132.586 15.3903 132.385 15.1253 132.186 14.8598Z" fill="#91C34A"/>
<path d="M116.623 153.388C116.906 152.307 118.009 151.66 119.086 151.942C120.163 152.224 120.807 153.328 120.525 154.409C120.242 155.49 119.139 156.137 118.062 155.855C116.984 155.573 116.34 154.469 116.623 153.388Z" fill="#F5F4ED"/>
<path d="M117.984 148.187C118.267 147.106 119.37 146.459 120.447 146.741C121.525 147.023 122.169 148.128 121.886 149.208C121.603 150.289 120.5 150.936 119.423 150.654C118.346 150.372 117.702 149.268 117.984 148.187Z" fill="#F5F4ED"/>
<path d="M119.346 142.986C119.629 141.906 120.731 141.258 121.809 141.54C122.886 141.822 123.53 142.927 123.247 144.008C122.964 145.088 121.862 145.736 120.784 145.454C119.707 145.172 119.063 144.067 119.346 142.986Z" fill="#F5F4ED"/>
<path d="M120.707 137.786C120.99 136.705 122.093 136.057 123.17 136.339C124.247 136.621 124.891 137.726 124.608 138.807C124.325 139.887 123.223 140.535 122.145 140.253C121.068 139.971 120.424 138.866 120.707 137.786Z" fill="#F5F4ED"/>
<path d="M122.068 132.585C122.351 131.504 123.454 130.857 124.531 131.139C125.608 131.421 126.253 132.525 125.97 133.606C125.687 134.687 124.584 135.334 123.507 135.052C122.429 134.77 121.785 133.666 122.068 132.585Z" fill="#F5F4ED"/>
<path d="M123.43 127.384C123.712 126.303 124.815 125.656 125.892 125.938C126.97 126.22 127.614 127.325 127.331 128.405C127.048 129.486 125.945 130.133 124.868 129.851C123.791 129.569 123.147 128.465 123.43 127.384Z" fill="#F5F4ED"/>
<path d="M123.43 127.384C123.712 126.303 124.815 125.656 125.892 125.938C126.97 126.22 127.614 127.325 127.331 128.405C127.048 129.486 125.945 130.133 124.868 129.851C123.791 129.569 123.147 128.465 123.43 127.384Z" fill="#F5F4ED"/>
<path d="M124.791 122.183C125.074 121.103 126.176 120.455 127.254 120.737C128.331 121.019 128.975 122.124 128.692 123.204C128.409 124.285 127.307 124.933 126.229 124.651C125.152 124.369 124.508 123.264 124.791 122.183Z" fill="#F5F4ED"/>
<path d="M126.152 116.982C126.435 115.902 127.538 115.254 128.615 115.536C129.692 115.818 130.336 116.923 130.054 118.004C129.771 119.084 128.668 119.732 127.591 119.45C126.513 119.168 125.869 118.063 126.152 116.982Z" fill="#F5F4ED"/>
<path d="M127.513 111.782C127.796 110.701 128.899 110.054 129.976 110.335C131.054 110.617 131.698 111.722 131.415 112.803C131.132 113.884 130.029 114.531 128.952 114.249C127.875 113.967 127.231 112.862 127.513 111.782Z" fill="#F5F4ED"/>
<path d="M128.875 106.581C129.158 105.5 130.26 104.853 131.338 105.135C132.415 105.417 133.059 106.521 132.776 107.602C132.493 108.683 131.391 109.33 130.313 109.048C129.236 108.766 128.592 107.662 128.875 106.581Z" fill="#F5F4ED"/>
<path d="M130.236 101.38C130.519 100.299 131.622 99.652 132.699 99.934C133.776 100.216 134.42 101.321 134.137 102.401C133.855 103.482 132.752 104.13 131.675 103.848C130.597 103.566 129.953 102.461 130.236 101.38Z" fill="#F5F4ED"/>
<path d="M130.236 101.38C130.519 100.299 131.622 99.652 132.699 99.934C133.776 100.216 134.42 101.321 134.137 102.401C133.855 103.482 132.752 104.13 131.675 103.848C130.597 103.566 129.953 102.461 130.236 101.38Z" fill="#F5F4ED"/>
<path d="M131.597 96.1794C131.88 95.0987 132.983 94.4512 134.06 94.7332C135.137 95.0151 135.781 96.1198 135.499 97.2005C135.216 98.2812 134.113 98.9287 133.036 98.6467C131.958 98.3647 131.314 97.2601 131.597 96.1794Z" fill="#F5F4ED"/>
<path d="M132.958 90.9786C133.241 89.8979 134.344 89.2504 135.421 89.5324C136.499 89.8144 137.143 90.9191 136.86 91.9998C136.577 93.0805 135.474 93.728 134.397 93.446C133.32 93.164 132.676 92.0593 132.958 90.9786Z" fill="#F5F4ED"/>
<path d="M134.32 85.7778C134.603 84.6971 135.705 84.0497 136.783 84.3316C137.86 84.6136 138.504 85.7183 138.221 86.799C137.938 87.8797 136.836 88.5272 135.758 88.2452C134.681 87.9632 134.037 86.8585 134.32 85.7778Z" fill="#F5F4ED"/>
<path d="M135.681 80.5771C135.964 79.4964 137.067 78.8489 138.144 79.1309C139.221 79.4129 139.865 80.5175 139.582 81.5983C139.3 82.679 138.197 83.3264 137.12 83.0444C136.042 82.7625 135.398 81.6578 135.681 80.5771Z" fill="#F5F4ED"/>
<path d="M137.042 75.3763C137.325 74.2956 138.428 73.6481 139.505 73.9301C140.583 74.2121 141.227 75.3168 140.944 76.3975C140.661 77.4782 139.558 78.1257 138.481 77.8437C137.403 77.5617 136.759 76.457 137.042 75.3763Z" fill="#F5F4ED"/>
<path d="M137.042 75.3763C137.325 74.2956 138.428 73.6481 139.505 73.9301C140.583 74.2121 141.227 75.3168 140.944 76.3975C140.661 77.4782 139.558 78.1257 138.481 77.8437C137.403 77.5617 136.759 76.457 137.042 75.3763Z" fill="#F5F4ED"/>
<path d="M138.404 70.1757C138.686 69.0949 139.789 68.4475 140.866 68.7294C141.944 69.0114 142.588 70.1161 142.305 71.1968C142.022 72.2775 140.919 72.925 139.842 72.643C138.765 72.361 138.121 71.2564 138.404 70.1757Z" fill="#F5F4ED"/>
<path d="M139.765 64.9749C140.048 63.8942 141.15 63.2467 142.228 63.5287C143.305 63.8107 143.949 64.9154 143.666 65.9961C143.383 67.0768 142.281 67.7242 141.203 67.4423C140.126 67.1603 139.482 66.0556 139.765 64.9749Z" fill="#F5F4ED"/>
<path d="M141.126 59.7741C141.409 58.6934 142.512 58.0459 143.589 58.3279C144.666 58.6099 145.31 59.7146 145.027 60.7953C144.745 61.876 143.642 62.5235 142.565 62.2415C141.487 61.9595 140.843 60.8548 141.126 59.7741Z" fill="#F5F4ED"/>
<path d="M142.487 54.5734C142.77 53.4927 143.873 52.8452 144.95 53.1272C146.028 53.4092 146.672 54.5138 146.389 55.5945C146.106 56.6752 145.003 57.3227 143.926 57.0407C142.849 56.7587 142.204 55.6541 142.487 54.5734Z" fill="#F5F4ED"/>
<path d="M143.849 49.3726C144.132 48.2919 145.234 47.6444 146.312 47.9264C147.389 48.2084 148.033 49.3131 147.75 50.3938C147.467 51.4745 146.364 52.122 145.287 51.84C144.21 51.558 143.566 50.4533 143.849 49.3726Z" fill="#F5F4ED"/>
<path d="M143.849 49.3726C144.132 48.2919 145.234 47.6444 146.312 47.9264C147.389 48.2084 148.033 49.3131 147.75 50.3938C147.467 51.4745 146.364 52.122 145.287 51.84C144.21 51.558 143.566 50.4533 143.849 49.3726Z" fill="#F5F4ED"/>
<path d="M145.21 44.1721C145.493 43.0913 146.596 42.4439 147.673 42.7258C148.75 43.0078 149.394 44.1125 149.111 45.1932C148.829 46.2739 147.726 46.9214 146.649 46.6394C145.571 46.3574 144.927 45.2528 145.21 44.1721Z" fill="#F5F4ED"/>
<path d="M146.571 38.9713C146.854 37.8906 147.957 37.2431 149.034 37.5251C150.112 37.8071 150.756 38.9118 150.473 39.9925C150.19 41.0732 149.087 41.7206 148.01 41.4387C146.933 41.1567 146.288 40.052 146.571 38.9713Z" fill="#F5F4ED"/>
<path d="M147.933 33.7705C148.215 32.6898 149.318 32.0423 150.395 32.3243C151.473 32.6063 152.117 33.711 151.834 34.7917C151.551 35.8724 150.448 36.5199 149.371 36.2379C148.294 35.9559 147.65 34.8512 147.933 33.7705Z" fill="#F5F4ED"/>
<path d="M149.294 28.5698C149.577 27.4891 150.679 26.8416 151.757 27.1236C152.834 27.4056 153.478 28.5102 153.195 29.5909C152.912 30.6716 151.81 31.3191 150.732 31.0371C149.655 30.7552 149.011 29.6505 149.294 28.5698Z" fill="#F5F4ED"/>
<path d="M150.655 23.369C150.938 22.2883 152.041 21.6408 153.118 21.9228C154.195 22.2048 154.839 23.3095 154.557 24.3902C154.274 25.4709 153.171 26.1184 152.094 25.8364C151.016 25.5544 150.372 24.4497 150.655 23.369Z" fill="#F5F4ED"/>
<path d="M147.75 50.3938C148.033 49.3131 147.389 48.2084 146.312 47.9264C145.234 47.6444 144.132 48.2919 143.849 49.3726C143.566 50.4533 144.21 51.558 145.287 51.84C146.364 52.122 147.467 51.4745 147.75 50.3938Z" fill="#F5F4ED"/>
<path d="M149.111 45.1932C149.394 44.1125 148.75 43.0078 147.673 42.7258C146.596 42.4439 145.493 43.0913 145.21 44.1721C144.927 45.2528 145.571 46.3574 146.649 46.6394C147.726 46.9214 148.829 46.2739 149.111 45.1932Z" fill="#F5F4ED"/>
<path d="M150.473 39.9925C150.756 38.9118 150.112 37.8071 149.034 37.5251C147.957 37.2431 146.854 37.8906 146.571 38.9713C146.288 40.052 146.933 41.1567 148.01 41.4387C149.087 41.7206 150.19 41.0732 150.473 39.9925Z" fill="#F5F4ED"/>
<path d="M151.834 34.7917C152.117 33.711 151.473 32.6063 150.395 32.3243C149.318 32.0423 148.215 32.6898 147.933 33.7705C147.65 34.8512 148.294 35.9559 149.371 36.2379C150.448 36.5199 151.551 35.8724 151.834 34.7917Z" fill="#F5F4ED"/>
<path d="M153.195 29.5909C153.478 28.5102 152.834 27.4056 151.757 27.1236C150.679 26.8416 149.577 27.4891 149.294 28.5698C149.011 29.6505 149.655 30.7552 150.732 31.0371C151.81 31.3191 152.912 30.6716 153.195 29.5909Z" fill="#F5F4ED"/>
<path d="M154.557 24.3902C154.839 23.3095 154.195 22.2048 153.118 21.9228C152.041 21.6408 150.938 22.2883 150.655 23.369C150.372 24.4497 151.016 25.5544 152.094 25.8364C153.171 26.1184 154.274 25.4709 154.557 24.3902Z" fill="#F5F4ED"/>
<path d="M147.873 33.9965C148.156 32.9158 149.259 32.2684 150.336 32.5503C151.414 32.8323 152.058 33.937 151.775 35.0177C151.492 36.0984 150.389 36.7459 149.312 36.4639C148.235 36.1819 147.591 35.0772 147.873 33.9965Z" fill="#F5F4ED"/>
<path d="M149.235 28.7958C149.518 27.7151 150.62 27.0676 151.698 27.3496C152.775 27.6316 153.419 28.7363 153.136 29.817C152.853 30.8977 151.751 31.5451 150.673 31.2632C149.596 30.9812 148.952 29.8765 149.235 28.7958Z" fill="#F5F4ED"/>
<path d="M150.596 23.595C150.879 22.5143 151.982 21.8668 153.059 22.1488C154.136 22.4308 154.78 23.5355 154.497 24.6162C154.215 25.6969 153.112 26.3444 152.035 26.0624C150.957 25.7804 150.313 24.6757 150.596 23.595Z" fill="#F5F4ED"/>
<path d="M151.957 18.3943C152.24 17.3136 153.343 16.6661 154.42 16.9481C155.497 17.2301 156.142 18.3347 155.859 19.4154C155.576 20.4961 154.473 21.1436 153.396 20.8616C152.318 20.5796 151.674 19.475 151.957 18.3943Z" fill="#F5F4ED"/>
<path d="M153.319 13.1935C153.601 12.1128 154.704 11.4653 155.781 11.7473C156.859 12.0293 157.503 13.134 157.22 14.2147C156.937 15.2954 155.834 15.9429 154.757 15.6609C153.68 15.3789 153.036 14.2742 153.319 13.1935Z" fill="#F5F4ED"/>
<path d="M154.68 7.99275C154.963 6.91205 156.065 6.26456 157.143 6.54655C158.22 6.82854 158.864 7.93322 158.581 9.01392C158.298 10.0946 157.196 10.7421 156.118 10.4601C155.041 10.1781 154.397 9.07345 154.68 7.99275Z" fill="#F5F4ED"/>
<path d="M151.775 35.0177C152.058 33.937 151.414 32.8323 150.336 32.5503C149.259 32.2684 148.156 32.9158 147.873 33.9965C147.591 35.0772 148.235 36.1819 149.312 36.4639C150.389 36.7459 151.492 36.0984 151.775 35.0177Z" fill="#F5F4ED"/>
<path d="M153.136 29.817C153.419 28.7363 152.775 27.6316 151.698 27.3496C150.62 27.0676 149.518 27.7151 149.235 28.7958C148.952 29.8765 149.596 30.9812 150.673 31.2632C151.751 31.5451 152.853 30.8977 153.136 29.817Z" fill="#F5F4ED"/>
<path d="M154.497 24.6162C154.78 23.5355 154.136 22.4308 153.059 22.1488C151.982 21.8668 150.879 22.5143 150.596 23.595C150.313 24.6757 150.957 25.7804 152.035 26.0624C153.112 26.3444 154.215 25.6969 154.497 24.6162Z" fill="#F5F4ED"/>
<path d="M155.859 19.4154C156.142 18.3347 155.497 17.2301 154.42 16.9481C153.343 16.6661 152.24 17.3136 151.957 18.3943C151.674 19.475 152.318 20.5796 153.396 20.8616C154.473 21.1436 155.576 20.4961 155.859 19.4154Z" fill="#F5F4ED"/>
<path d="M157.22 14.2147C157.503 13.134 156.859 12.0293 155.781 11.7473C154.704 11.4653 153.601 12.1128 153.319 13.1935C153.036 14.2742 153.68 15.3789 154.757 15.6609C155.834 15.9429 156.937 15.2954 157.22 14.2147Z" fill="#F5F4ED"/>
<path d="M158.581 9.01392C158.864 7.93322 158.22 6.82854 157.143 6.54655C156.065 6.26456 154.963 6.91205 154.68 7.99275C154.397 9.07345 155.041 10.1781 156.118 10.4601C157.196 10.7421 158.298 10.0946 158.581 9.01392Z" fill="#F5F4ED"/>
<path d="M120.525 154.409C120.807 153.328 120.163 152.224 119.086 151.942C118.009 151.66 116.906 152.307 116.623 153.388C116.34 154.469 116.984 155.573 118.062 155.855C119.139 156.137 120.242 155.49 120.525 154.409Z" fill="#F5F4ED"/>
<path d="M121.886 149.208C122.169 148.128 121.525 147.023 120.447 146.741C119.37 146.459 118.267 147.106 117.984 148.187C117.702 149.268 118.346 150.372 119.423 150.654C120.5 150.936 121.603 150.289 121.886 149.208Z" fill="#F5F4ED"/>
<path d="M123.247 144.008C123.53 142.927 122.886 141.822 121.809 141.54C120.731 141.258 119.629 141.906 119.346 142.986C119.063 144.067 119.707 145.172 120.784 145.454C121.862 145.736 122.964 145.088 123.247 144.008Z" fill="#F5F4ED"/>
<path d="M124.608 138.807C124.891 137.726 124.247 136.621 123.17 136.339C122.093 136.057 120.99 136.705 120.707 137.786C120.424 138.866 121.068 139.971 122.145 140.253C123.223 140.535 124.325 139.887 124.608 138.807Z" fill="#F5F4ED"/>
<path d="M125.97 133.606C126.253 132.525 125.608 131.421 124.531 131.139C123.454 130.857 122.351 131.504 122.068 132.585C121.785 133.666 122.429 134.77 123.507 135.052C124.584 135.334 125.687 134.687 125.97 133.606Z" fill="#F5F4ED"/>
<path d="M127.331 128.405C127.614 127.325 126.97 126.22 125.892 125.938C124.815 125.656 123.712 126.303 123.43 127.384C123.147 128.465 123.791 129.569 124.868 129.851C125.945 130.133 127.048 129.486 127.331 128.405Z" fill="#F5F4ED"/>
<path d="M127.331 128.405C127.614 127.325 126.97 126.22 125.892 125.938C124.815 125.656 123.712 126.303 123.43 127.384C123.147 128.465 123.791 129.569 124.868 129.851C125.945 130.133 127.048 129.486 127.331 128.405Z" fill="#F5F4ED"/>
<path d="M128.692 123.204C128.975 122.124 128.331 121.019 127.254 120.737C126.176 120.455 125.074 121.103 124.791 122.183C124.508 123.264 125.152 124.369 126.229 124.651C127.307 124.933 128.409 124.285 128.692 123.204Z" fill="#F5F4ED"/>
<path d="M130.054 118.004C130.336 116.923 129.692 115.818 128.615 115.536C127.538 115.254 126.435 115.902 126.152 116.982C125.869 118.063 126.513 119.168 127.591 119.45C128.668 119.732 129.771 119.084 130.054 118.004Z" fill="#F5F4ED"/>
<path d="M131.415 112.803C131.698 111.722 131.054 110.617 129.976 110.335C128.899 110.054 127.796 110.701 127.513 111.782C127.231 112.862 127.875 113.967 128.952 114.249C130.029 114.531 131.132 113.884 131.415 112.803Z" fill="#F5F4ED"/>
<path d="M132.776 107.602C133.059 106.521 132.415 105.417 131.338 105.135C130.26 104.853 129.158 105.5 128.875 106.581C128.592 107.662 129.236 108.766 130.313 109.048C131.391 109.33 132.493 108.683 132.776 107.602Z" fill="#F5F4ED"/>
<path d="M134.137 102.401C134.42 101.321 133.776 100.216 132.699 99.934C131.622 99.652 130.519 100.299 130.236 101.38C129.953 102.461 130.597 103.566 131.675 103.848C132.752 104.13 133.855 103.482 134.137 102.401Z" fill="#F5F4ED"/>
<path d="M134.137 102.401C134.42 101.321 133.776 100.216 132.699 99.934C131.622 99.652 130.519 100.299 130.236 101.38C129.953 102.461 130.597 103.566 131.675 103.848C132.752 104.13 133.855 103.482 134.137 102.401Z" fill="#F5F4ED"/>
<path d="M135.499 97.2005C135.781 96.1198 135.137 95.0151 134.06 94.7332C132.983 94.4512 131.88 95.0987 131.597 96.1794C131.314 97.2601 131.958 98.3647 133.036 98.6467C134.113 98.9287 135.216 98.2812 135.499 97.2005Z" fill="#F5F4ED"/>
<path d="M136.86 91.9998C137.143 90.9191 136.499 89.8144 135.421 89.5324C134.344 89.2504 133.241 89.8979 132.958 90.9786C132.676 92.0593 133.32 93.164 134.397 93.446C135.474 93.728 136.577 93.0805 136.86 91.9998Z" fill="#F5F4ED"/>
<path d="M138.221 86.799C138.504 85.7183 137.86 84.6136 136.783 84.3316C135.705 84.0497 134.603 84.6971 134.32 85.7778C134.037 86.8585 134.681 87.9632 135.758 88.2452C136.836 88.5272 137.938 87.8797 138.221 86.799Z" fill="#F5F4ED"/>
<path d="M139.582 81.5983C139.865 80.5175 139.221 79.4129 138.144 79.1309C137.067 78.8489 135.964 79.4964 135.681 80.5771C135.398 81.6578 136.042 82.7625 137.12 83.0444C138.197 83.3264 139.3 82.679 139.582 81.5983Z" fill="#F5F4ED"/>
<path d="M140.944 76.3975C141.227 75.3168 140.583 74.2121 139.505 73.9301C138.428 73.6481 137.325 74.2956 137.042 75.3763C136.759 76.457 137.403 77.5617 138.481 77.8437C139.558 78.1257 140.661 77.4782 140.944 76.3975Z" fill="#F5F4ED"/>
<path d="M140.944 76.3975C141.227 75.3168 140.583 74.2121 139.505 73.9301C138.428 73.6481 137.325 74.2956 137.042 75.3763C136.759 76.457 137.403 77.5617 138.481 77.8437C139.558 78.1257 140.661 77.4782 140.944 76.3975Z" fill="#F5F4ED"/>
<path d="M142.305 71.1968C142.588 70.1161 141.944 69.0114 140.866 68.7294C139.789 68.4475 138.686 69.0949 138.404 70.1757C138.121 71.2564 138.765 72.361 139.842 72.643C140.919 72.925 142.022 72.2775 142.305 71.1968Z" fill="#F5F4ED"/>
<path d="M143.666 65.9961C143.949 64.9154 143.305 63.8107 142.228 63.5287C141.15 63.2467 140.048 63.8942 139.765 64.9749C139.482 66.0556 140.126 67.1603 141.203 67.4423C142.281 67.7242 143.383 67.0768 143.666 65.9961Z" fill="#F5F4ED"/>
<path d="M145.027 60.7953C145.31 59.7146 144.666 58.6099 143.589 58.3279C142.512 58.0459 141.409 58.6934 141.126 59.7741C140.843 60.8548 141.487 61.9595 142.565 62.2415C143.642 62.5235 144.745 61.876 145.027 60.7953Z" fill="#F5F4ED"/>
<path d="M146.389 55.5945C146.672 54.5138 146.028 53.4092 144.95 53.1272C143.873 52.8452 142.77 53.4927 142.487 54.5734C142.204 55.6541 142.849 56.7587 143.926 57.0407C145.003 57.3227 146.106 56.6752 146.389 55.5945Z" fill="#F5F4ED"/>
<path d="M147.75 50.3938C148.033 49.3131 147.389 48.2084 146.312 47.9264C145.234 47.6444 144.132 48.2919 143.849 49.3726C143.566 50.4533 144.21 51.558 145.287 51.84C146.364 52.122 147.467 51.4745 147.75 50.3938Z" fill="#F5F4ED"/>
<path d="M92.434 154.087C86.9985 155.065 81.7993 151.452 80.8214 146.016L57.7917 18.0119C56.8138 12.5763 60.4274 7.37716 65.863 6.39923L79.0493 4.02684C86.6591 2.65773 93.9379 7.71682 95.307 15.3266L116.92 135.457C118.289 143.067 113.23 150.346 105.62 151.715L92.434 154.087Z" fill="#00693E"/>
<path d="M78.8568 27.2474C78.8568 27.2474 74.1469 31.217 72.9595 37.28C72.9595 37.28 77.7502 34.1803 78.8568 27.2474Z" fill="#91C34A"/>
<path d="M82.5206 23.3516C82.5206 23.3516 77.8401 29.2226 78.6746 36.393C78.6746 36.393 83.7047 31.7555 82.5206 23.3516Z" fill="#91C34A"/>
<path d="M77.4516 28.662C77.4516 28.662 73.6098 32.4284 67.341 31.4898C67.3361 31.4907 71.0179 26.3206 77.4516 28.662Z" fill="#91C34A"/>
<path d="M83.4158 22.3466C83.4158 22.3466 78.8952 27.3027 71.9822 26.5305C71.9822 26.5305 75.5787 21.8869 83.4158 22.3466Z" fill="#91C34A"/>
<path d="M86.1226 19.1778C86.1015 19.1261 82.1984 26.2057 84.1316 32.9044C84.1319 32.906 88.9293 26.106 86.1226 19.1778Z" fill="#91C34A"/>
<path d="M86.9798 18.1292C86.9798 18.1292 82.6218 22.3163 75.2186 20.9782C75.2283 20.9765 79.2975 16.5673 86.9798 18.1292Z" fill="#91C34A"/>
<path d="M89.9174 14.3556C89.9174 14.3556 86.5467 20.423 88.5038 27.1611C88.5038 27.1611 92.486 20.9786 89.9174 14.3556Z" fill="#91C34A"/>
<path d="M90.7697 13.2052C90.7697 13.2052 85.2067 17.9841 78.4437 16.7191C78.4437 16.7191 84.0172 11.3634 90.7697 13.2052Z" fill="#91C34A"/>
<path d="M92.6543 10.5594C92.6543 10.5594 90.7761 15.0721 93.0874 20.3493C93.0874 20.3493 95.1868 14.7763 92.6543 10.5594Z" fill="#91C34A"/>
<path d="M93.3481 9.54677C93.3481 9.54677 89.4625 12.5745 82.8044 11.4437C82.8048 11.4554 87.5181 7.69199 93.3481 9.54677Z" fill="#91C34A"/>
<path d="M122.44 148.689C127.875 147.711 131.489 142.512 130.511 137.076L107.481 9.07218C106.503 3.6366 101.304 0.0229734 95.8686 1.00091V1.00091C91.9025 1.71446 89.2657 5.50808 89.9793 9.47418L113.966 142.8C114.68 146.766 118.474 149.403 122.44 148.689V148.689Z" fill="white"/>
<path d="M69.1402 18.1093C68.487 17.7557 67.8571 17.3592 67.2546 16.9224C66.5813 16.4452 65.9367 15.9278 65.3244 15.3731C64.8477 14.9497 64.406 14.4879 64.0037 13.9927C64.9731 14.8937 66.0127 15.7148 67.1122 16.4478C68.1212 17.1258 69.1655 17.7482 70.2404 18.3119C70.1642 17.6564 69.7557 15.3303 67.7331 13.7286C65.2343 11.7485 62.1731 12.8601 62.1731 12.8601C63.01 13.9964 62.8076 16.3748 65.013 18.0183C66.8506 19.3902 69.2681 18.8035 70.021 18.5714C69.7263 18.4223 69.4324 18.2665 69.1402 18.1093Z" fill="#91C34A"/>
<path d="M113.273 150.338C113.076 149.239 113.804 148.188 114.9 147.99C115.996 147.793 117.045 148.525 117.243 149.624C117.44 150.724 116.712 151.775 115.616 151.972C114.52 152.169 113.471 151.438 113.273 150.338Z" fill="#F5F4ED"/>
<path d="M112.322 145.047C112.124 143.948 112.852 142.897 113.948 142.699C115.044 142.502 116.093 143.234 116.291 144.333C116.488 145.432 115.76 146.484 114.664 146.681C113.568 146.878 112.519 146.147 112.322 145.047Z" fill="#F5F4ED"/>
<path d="M111.37 139.756C111.172 138.657 111.9 137.606 112.996 137.408C114.092 137.211 115.141 137.943 115.339 139.042C115.536 140.141 114.808 141.193 113.712 141.39C112.616 141.587 111.567 140.856 111.37 139.756Z" fill="#F5F4ED"/>
<path d="M110.418 134.465C110.22 133.366 110.948 132.315 112.044 132.117C113.14 131.92 114.189 132.652 114.387 133.751C114.585 134.85 113.856 135.902 112.76 136.099C111.664 136.296 110.615 135.565 110.418 134.465Z" fill="#F5F4ED"/>
<path d="M109.466 129.174C109.268 128.075 109.996 127.023 111.092 126.826C112.188 126.629 113.237 127.361 113.435 128.46C113.633 129.559 112.904 130.611 111.808 130.808C110.712 131.005 109.664 130.274 109.466 129.174Z" fill="#F5F4ED"/>
<path d="M108.514 123.883C108.316 122.784 109.044 121.732 110.14 121.535C111.236 121.338 112.285 122.07 112.483 123.169C112.681 124.268 111.953 125.32 110.857 125.517C109.761 125.714 108.712 124.983 108.514 123.883Z" fill="#F5F4ED"/>
<path d="M108.514 123.883C108.316 122.784 109.044 121.732 110.14 121.535C111.236 121.338 112.285 122.07 112.483 123.169C112.681 124.268 111.953 125.32 110.857 125.517C109.761 125.714 108.712 124.983 108.514 123.883Z" fill="#F5F4ED"/>
<path d="M107.562 118.592C107.364 117.492 108.092 116.441 109.188 116.244C110.284 116.047 111.333 116.778 111.531 117.878C111.729 118.977 111.001 120.028 109.905 120.226C108.809 120.423 107.76 119.691 107.562 118.592Z" fill="#F5F4ED"/>
<path d="M106.61 113.301C106.412 112.201 107.14 111.15 108.236 110.953C109.332 110.756 110.381 111.487 110.579 112.587C110.777 113.686 110.049 114.737 108.953 114.935C107.857 115.132 106.808 114.4 106.61 113.301Z" fill="#F5F4ED"/>
<path d="M105.658 108.01C105.46 106.91 106.188 105.859 107.284 105.662C108.381 105.465 109.429 106.196 109.627 107.296C109.825 108.395 109.097 109.446 108.001 109.644C106.905 109.841 105.856 109.109 105.658 108.01Z" fill="#F5F4ED"/>
<path d="M104.706 102.719C104.508 101.619 105.237 100.568 106.333 100.371C107.429 100.174 108.477 100.905 108.675 102.005C108.873 103.104 108.145 104.155 107.049 104.353C105.953 104.55 104.904 103.818 104.706 102.719Z" fill="#F5F4ED"/>
<path d="M103.754 97.4279C103.556 96.3285 104.285 95.2773 105.381 95.0801C106.477 94.8829 107.526 95.6144 107.723 96.7138C107.921 97.8133 107.193 98.8644 106.097 99.0616C105.001 99.2588 103.952 98.5274 103.754 97.4279Z" fill="#F5F4ED"/>
<path d="M103.754 97.4279C103.556 96.3285 104.285 95.2773 105.381 95.0801C106.477 94.8829 107.526 95.6144 107.723 96.7138C107.921 97.8133 107.193 98.8644 106.097 99.0616C105.001 99.2588 103.952 98.5274 103.754 97.4279Z" fill="#F5F4ED"/>
<path d="M102.802 92.1369C102.604 91.0374 103.333 89.9863 104.429 89.7891C105.525 89.5919 106.574 90.3233 106.771 91.4228C106.969 92.5222 106.241 93.5734 105.145 93.7706C104.049 93.9678 103 93.2363 102.802 92.1369Z" fill="#F5F4ED"/>
<path d="M101.85 86.8459C101.653 85.7464 102.381 84.6953 103.477 84.4981C104.573 84.3009 105.622 85.0323 105.819 86.1318C106.017 87.2312 105.289 88.2824 104.193 88.4796C103.097 88.6767 102.048 87.9453 101.85 86.8459Z" fill="#F5F4ED"/>
<path d="M100.898 81.5548C100.701 80.4554 101.429 79.4042 102.525 79.2071C103.621 79.0099 104.67 79.7413 104.867 80.8408C105.065 81.9402 104.337 82.9914 103.241 83.1885C102.145 83.3857 101.096 82.6543 100.898 81.5548Z" fill="#F5F4ED"/>
<path d="M99.9465 76.2638C99.7487 75.1644 100.477 74.1132 101.573 73.916C102.669 73.7188 103.718 74.4503 103.916 75.5497C104.113 76.6492 103.385 77.7003 102.289 77.8975C101.193 78.0947 100.144 77.3633 99.9465 76.2638Z" fill="#F5F4ED"/>
<path d="M98.9946 70.9728C98.7967 69.8734 99.5249 68.8222 100.621 68.625C101.717 68.4278 102.766 69.1593 102.964 70.2587C103.161 71.3582 102.433 72.4093 101.337 72.6065C100.241 72.8037 99.1924 72.0723 98.9946 70.9728Z" fill="#F5F4ED"/>
<path d="M98.9946 70.9728C98.7967 69.8734 99.5249 68.8222 100.621 68.625C101.717 68.4278 102.766 69.1593 102.964 70.2587C103.161 71.3582 102.433 72.4093 101.337 72.6065C100.241 72.8037 99.1924 72.0723 98.9946 70.9728Z" fill="#F5F4ED"/>
<path d="M98.0426 65.6819C97.8448 64.5824 98.573 63.5313 99.669 63.3341C100.765 63.1369 101.814 63.8684 102.012 64.9678C102.21 66.0673 101.481 67.1184 100.385 67.3156C99.2893 67.5128 98.2404 66.7814 98.0426 65.6819Z" fill="#F5F4ED"/>
<path d="M97.0907 60.3909C96.8929 59.2914 97.6211 58.2403 98.7171 58.0431C99.8131 57.8459 100.862 58.5773 101.06 59.6768C101.258 60.7763 100.529 61.8274 99.4334 62.0246C98.3374 62.2218 97.2885 61.4903 97.0907 60.3909Z" fill="#F5F4ED"/>
<path d="M96.1388 55.0999C95.941 54.0004 96.6691 52.9493 97.7652 52.7521C98.8612 52.5549 99.9101 53.2863 100.108 54.3858C100.306 55.4852 99.5775 56.5364 98.4815 56.7336C97.3855 56.9308 96.3366 56.1993 96.1388 55.0999Z" fill="#F5F4ED"/>
<path d="M95.1869 49.8089C94.9891 48.7094 95.7172 47.6583 96.8132 47.4611C97.9093 47.2639 98.9581 47.9953 99.1559 49.0948C99.3538 50.1942 98.6256 51.2454 97.5296 51.4426C96.4335 51.6397 95.3847 50.9083 95.1869 49.8089Z" fill="#F5F4ED"/>
<path d="M94.2349 44.5179C94.0371 43.4184 94.7653 42.3673 95.8613 42.1701C96.9574 41.9729 98.0062 42.7043 98.204 43.8038C98.4018 44.9032 97.6737 45.9544 96.5776 46.1516C95.4816 46.3487 94.4327 45.6173 94.2349 44.5179Z" fill="#F5F4ED"/>
<path d="M94.2349 44.5179C94.0371 43.4184 94.7653 42.3673 95.8613 42.1701C96.9574 41.9729 98.0062 42.7043 98.204 43.8038C98.4018 44.9032 97.6737 45.9544 96.5776 46.1516C95.4816 46.3487 94.4327 45.6173 94.2349 44.5179Z" fill="#F5F4ED"/>
<path d="M93.2832 39.227C93.0854 38.1275 93.8136 37.0764 94.9096 36.8792C96.0056 36.682 97.0545 37.4134 97.2523 38.5129C97.4501 39.6123 96.722 40.6635 95.6259 40.8607C94.5299 41.0578 93.481 40.3264 93.2832 39.227Z" fill="#F5F4ED"/>
<path d="M92.3313 33.9359C92.1335 32.8365 92.8616 31.7853 93.9577 31.5882C95.0537 31.391 96.1026 32.1224 96.3004 33.2219C96.4982 34.3213 95.77 35.3725 94.674 35.5696C93.578 35.7668 92.5291 35.0354 92.3313 33.9359Z" fill="#F5F4ED"/>
<path d="M91.3794 28.6449C91.1816 27.5455 91.9097 26.4943 93.0058 26.2971C94.1018 26.1 95.1507 26.8314 95.3485 27.9308C95.5463 29.0303 94.8181 30.0814 93.7221 30.2786C92.6261 30.4758 91.5772 29.7444 91.3794 28.6449Z" fill="#F5F4ED"/>
<path d="M90.4275 23.3539C90.2297 22.2545 90.9578 21.2033 92.0538 21.0061C93.1499 20.8089 94.1987 21.5404 94.3965 22.6398C94.5943 23.7393 93.8662 24.7904 92.7702 24.9876C91.6741 25.1848 90.6253 24.4534 90.4275 23.3539Z" fill="#F5F4ED"/>
<path d="M89.4755 18.0629C89.2777 16.9635 90.0059 15.9123 91.1019 15.7151C92.1979 15.5179 93.2468 16.2494 93.4446 17.3488C93.6424 18.4483 92.9143 19.4994 91.8182 19.6966C90.7222 19.8938 89.6733 19.1624 89.4755 18.0629Z" fill="#F5F4ED"/>
<path d="M98.204 43.8038C98.0062 42.7043 96.9574 41.9729 95.8613 42.1701C94.7653 42.3673 94.0371 43.4184 94.2349 44.5179C94.4327 45.6173 95.4816 46.3487 96.5776 46.1516C97.6737 45.9544 98.4018 44.9032 98.204 43.8038Z" fill="#F5F4ED"/>
<path d="M97.2523 38.5129C97.0545 37.4134 96.0056 36.682 94.9096 36.8792C93.8136 37.0764 93.0854 38.1275 93.2832 39.227C93.481 40.3264 94.5299 41.0578 95.6259 40.8607C96.722 40.6635 97.4501 39.6123 97.2523 38.5129Z" fill="#F5F4ED"/>
<path d="M96.3004 33.2219C96.1026 32.1224 95.0537 31.391 93.9577 31.5882C92.8616 31.7853 92.1335 32.8365 92.3313 33.9359C92.5291 35.0354 93.578 35.7668 94.674 35.5696C95.77 35.3725 96.4982 34.3213 96.3004 33.2219Z" fill="#F5F4ED"/>
<path d="M95.3485 27.9308C95.1507 26.8314 94.1018 26.1 93.0058 26.2971C91.9097 26.4943 91.1816 27.5455 91.3794 28.6449C91.5772 29.7444 92.6261 30.4758 93.7221 30.2786C94.8181 30.0814 95.5463 29.0303 95.3485 27.9308Z" fill="#F5F4ED"/>
<path d="M94.3965 22.6398C94.1987 21.5404 93.1499 20.8089 92.0538 21.0061C90.9578 21.2033 90.2297 22.2545 90.4275 23.3539C90.6253 24.4534 91.6741 25.1848 92.7702 24.9876C93.8662 24.7904 94.5943 23.7393 94.3965 22.6398Z" fill="#F5F4ED"/>
<path d="M93.4446 17.3488C93.2468 16.2494 92.1979 15.5179 91.1019 15.7151C90.0059 15.9123 89.2777 16.9635 89.4755 18.0629C89.6733 19.1624 90.7222 19.8938 91.8182 19.6966C92.9143 19.4994 93.6424 18.4483 93.4446 17.3488Z" fill="#F5F4ED"/>
<path d="M91.4207 28.8749C91.2229 27.7754 91.9511 26.7243 93.0471 26.5271C94.1431 26.3299 95.192 27.0613 95.3898 28.1608C95.5876 29.2602 94.8595 30.3114 93.7634 30.5086C92.6674 30.7058 91.6185 29.9743 91.4207 28.8749Z" fill="#F5F4ED"/>
<path d="M90.4688 23.5839C90.271 22.4844 90.9992 21.4333 92.0952 21.2361C93.1912 21.0389 94.2401 21.7703 94.4379 22.8698C94.6357 23.9692 93.9075 25.0204 92.8115 25.2176C91.7155 25.4148 90.6666 24.6833 90.4688 23.5839Z" fill="#F5F4ED"/>
<path d="M89.5169 18.2928C89.3191 17.1934 90.0472 16.1423 91.1433 15.9451C92.2393 15.7479 93.2882 16.4793 93.486 17.5788C93.6838 18.6782 92.9556 19.7294 91.8596 19.9265C90.7636 20.1237 89.7147 19.3923 89.5169 18.2928Z" fill="#F5F4ED"/>
<path d="M88.565 13.0018C88.3672 11.9024 89.0953 10.8512 90.1913 10.654C91.2874 10.4569 92.3362 11.1883 92.534 12.2877C92.7319 13.3872 92.0037 14.4383 90.9077 14.6355C89.8116 14.8327 88.7628 14.1013 88.565 13.0018Z" fill="#F5F4ED"/>
<path d="M87.613 7.71082C87.4152 6.61136 88.1434 5.56022 89.2394 5.36303C90.3355 5.16584 91.3843 5.89727 91.5821 6.99673C91.7799 8.09619 91.0518 9.14733 89.9557 9.34452C88.8597 9.54171 87.8108 8.81028 87.613 7.71082Z" fill="#F5F4ED"/>
<path d="M86.6611 2.41981C86.4633 1.32036 87.1915 0.269218 88.2875 0.0720272C89.3835 -0.125163 90.4324 0.606267 90.6302 1.70572C90.828 2.80518 90.0999 3.85632 89.0038 4.05351C87.9078 4.2507 86.8589 3.51927 86.6611 2.41981Z" fill="#F5F4ED"/>
<path d="M95.3898 28.1608C95.192 27.0613 94.1431 26.3299 93.0471 26.5271C91.9511 26.7243 91.2229 27.7754 91.4207 28.8749C91.6185 29.9743 92.6674 30.7058 93.7634 30.5086C94.8595 30.3114 95.5876 29.2602 95.3898 28.1608Z" fill="#F5F4ED"/>
<path d="M94.4379 22.8698C94.2401 21.7703 93.1912 21.0389 92.0952 21.2361C90.9992 21.4333 90.271 22.4844 90.4688 23.5839C90.6666 24.6833 91.7155 25.4148 92.8115 25.2176C93.9075 25.0204 94.6357 23.9692 94.4379 22.8698Z" fill="#F5F4ED"/>
<path d="M93.486 17.5788C93.2882 16.4793 92.2393 15.7479 91.1433 15.9451C90.0472 16.1423 89.3191 17.1934 89.5169 18.2928C89.7147 19.3923 90.7636 20.1237 91.8596 19.9265C92.9556 19.7294 93.6838 18.6782 93.486 17.5788Z" fill="#F5F4ED"/>
<path d="M92.534 12.2877C92.3362 11.1883 91.2874 10.4569 90.1913 10.654C89.0953 10.8512 88.3672 11.9024 88.565 13.0018C88.7628 14.1013 89.8116 14.8327 90.9077 14.6355C92.0037 14.4383 92.7319 13.3872 92.534 12.2877Z" fill="#F5F4ED"/>
<path d="M91.5821 6.99673C91.3843 5.89727 90.3355 5.16584 89.2394 5.36303C88.1434 5.56022 87.4152 6.61136 87.613 7.71082C87.8108 8.81028 88.8597 9.54171 89.9557 9.34452C91.0518 9.14733 91.7799 8.09619 91.5821 6.99673Z" fill="#F5F4ED"/>
<path d="M90.6302 1.70572C90.4324 0.606267 89.3835 -0.125163 88.2875 0.0720272C87.1915 0.269218 86.4633 1.32036 86.6611 2.41981C86.8589 3.51927 87.9078 4.2507 89.0038 4.05351C90.0999 3.85632 90.828 2.80518 90.6302 1.70572Z" fill="#F5F4ED"/>
<path d="M117.243 149.624C117.045 148.525 115.996 147.793 114.9 147.99C113.804 148.188 113.076 149.239 113.273 150.338C113.471 151.438 114.52 152.169 115.616 151.972C116.712 151.775 117.44 150.724 117.243 149.624Z" fill="#F5F4ED"/>
<path d="M116.291 144.333C116.093 143.234 115.044 142.502 113.948 142.699C112.852 142.897 112.124 143.948 112.322 145.047C112.519 146.147 113.568 146.878 114.664 146.681C115.76 146.484 116.488 145.432 116.291 144.333Z" fill="#F5F4ED"/>
<path d="M115.339 139.042C115.141 137.943 114.092 137.211 112.996 137.408C111.9 137.606 111.172 138.657 111.37 139.756C111.567 140.856 112.616 141.587 113.712 141.39C114.808 141.193 115.536 140.141 115.339 139.042Z" fill="#F5F4ED"/>
<path d="M114.387 133.751C114.189 132.652 113.14 131.92 112.044 132.117C110.948 132.315 110.22 133.366 110.418 134.465C110.615 135.565 111.664 136.296 112.76 136.099C113.856 135.902 114.585 134.85 114.387 133.751Z" fill="#F5F4ED"/>
<path d="M113.435 128.46C113.237 127.361 112.188 126.629 111.092 126.826C109.996 127.023 109.268 128.075 109.466 129.174C109.664 130.274 110.712 131.005 111.808 130.808C112.904 130.611 113.633 129.559 113.435 128.46Z" fill="#F5F4ED"/>
<path d="M112.483 123.169C112.285 122.07 111.236 121.338 110.14 121.535C109.044 121.732 108.316 122.784 108.514 123.883C108.712 124.983 109.761 125.714 110.857 125.517C111.953 125.32 112.681 124.268 112.483 123.169Z" fill="#F5F4ED"/>
<path d="M112.483 123.169C112.285 122.07 111.236 121.338 110.14 121.535C109.044 121.732 108.316 122.784 108.514 123.883C108.712 124.983 109.761 125.714 110.857 125.517C111.953 125.32 112.681 124.268 112.483 123.169Z" fill="#F5F4ED"/>
<path d="M111.531 117.878C111.333 116.778 110.284 116.047 109.188 116.244C108.092 116.441 107.364 117.492 107.562 118.592C107.76 119.691 108.809 120.423 109.905 120.226C111.001 120.028 111.729 118.977 111.531 117.878Z" fill="#F5F4ED"/>
<path d="M110.579 112.587C110.381 111.487 109.332 110.756 108.236 110.953C107.14 111.15 106.412 112.201 106.61 113.301C106.808 114.4 107.857 115.132 108.953 114.935C110.049 114.737 110.777 113.686 110.579 112.587Z" fill="#F5F4ED"/>
<path d="M109.627 107.296C109.429 106.196 108.381 105.465 107.284 105.662C106.188 105.859 105.46 106.91 105.658 108.01C105.856 109.109 106.905 109.841 108.001 109.644C109.097 109.446 109.825 108.395 109.627 107.296Z" fill="#F5F4ED"/>
<path d="M108.675 102.005C108.477 100.905 107.429 100.174 106.333 100.371C105.237 100.568 104.508 101.619 104.706 102.719C104.904 103.818 105.953 104.55 107.049 104.353C108.145 104.155 108.873 103.104 108.675 102.005Z" fill="#F5F4ED"/>
<path d="M107.723 96.7138C107.526 95.6144 106.477 94.8829 105.381 95.0801C104.285 95.2773 103.556 96.3285 103.754 97.4279C103.952 98.5274 105.001 99.2588 106.097 99.0616C107.193 98.8644 107.921 97.8133 107.723 96.7138Z" fill="#F5F4ED"/>
<path d="M107.723 96.7138C107.526 95.6144 106.477 94.8829 105.381 95.0801C104.285 95.2773 103.556 96.3285 103.754 97.4279C103.952 98.5274 105.001 99.2588 106.097 99.0616C107.193 98.8644 107.921 97.8133 107.723 96.7138Z" fill="#F5F4ED"/>
<path d="M106.771 91.4228C106.574 90.3233 105.525 89.5919 104.429 89.7891C103.333 89.9863 102.604 91.0374 102.802 92.1369C103 93.2363 104.049 93.9678 105.145 93.7706C106.241 93.5734 106.969 92.5222 106.771 91.4228Z" fill="#F5F4ED"/>
<path d="M105.819 86.1318C105.622 85.0323 104.573 84.3009 103.477 84.4981C102.381 84.6953 101.653 85.7464 101.85 86.8459C102.048 87.9453 103.097 88.6767 104.193 88.4796C105.289 88.2824 106.017 87.2312 105.819 86.1318Z" fill="#F5F4ED"/>
<path d="M104.867 80.8408C104.67 79.7413 103.621 79.0099 102.525 79.2071C101.429 79.4042 100.701 80.4554 100.898 81.5548C101.096 82.6543 102.145 83.3857 103.241 83.1885C104.337 82.9914 105.065 81.9402 104.867 80.8408Z" fill="#F5F4ED"/>
<path d="M103.916 75.5497C103.718 74.4503 102.669 73.7188 101.573 73.916C100.477 74.1132 99.7487 75.1644 99.9465 76.2638C100.144 77.3633 101.193 78.0947 102.289 77.8975C103.385 77.7003 104.113 76.6492 103.916 75.5497Z" fill="#F5F4ED"/>
<path d="M102.964 70.2587C102.766 69.1593 101.717 68.4278 100.621 68.625C99.5249 68.8222 98.7967 69.8734 98.9946 70.9728C99.1924 72.0723 100.241 72.8037 101.337 72.6065C102.433 72.4093 103.161 71.3582 102.964 70.2587Z" fill="#F5F4ED"/>
<path d="M102.964 70.2587C102.766 69.1593 101.717 68.4278 100.621 68.625C99.5249 68.8222 98.7967 69.8734 98.9946 70.9728C99.1924 72.0723 100.241 72.8037 101.337 72.6065C102.433 72.4093 103.161 71.3582 102.964 70.2587Z" fill="#F5F4ED"/>
<path d="M102.012 64.9678C101.814 63.8684 100.765 63.1369 99.669 63.3341C98.573 63.5313 97.8448 64.5824 98.0426 65.6819C98.2404 66.7814 99.2893 67.5128 100.385 67.3156C101.481 67.1184 102.21 66.0673 102.012 64.9678Z" fill="#F5F4ED"/>
<path d="M101.06 59.6768C100.862 58.5773 99.8131 57.8459 98.7171 58.0431C97.6211 58.2403 96.8929 59.2914 97.0907 60.3909C97.2885 61.4903 98.3374 62.2218 99.4334 62.0246C100.529 61.8274 101.258 60.7763 101.06 59.6768Z" fill="#F5F4ED"/>
<path d="M100.108 54.3858C99.9101 53.2863 98.8612 52.5549 97.7652 52.7521C96.6691 52.9493 95.941 54.0004 96.1388 55.0999C96.3366 56.1993 97.3855 56.9308 98.4815 56.7336C99.5775 56.5364 100.306 55.4852 100.108 54.3858Z" fill="#F5F4ED"/>
<path d="M99.1559 49.0948C98.9581 47.9953 97.9093 47.2639 96.8132 47.4611C95.7172 47.6583 94.9891 48.7094 95.1869 49.8089C95.3847 50.9083 96.4335 51.6397 97.5296 51.4426C98.6256 51.2454 99.3538 50.1942 99.1559 49.0948Z" fill="#F5F4ED"/>
<path d="M98.204 43.8038C98.0062 42.7043 96.9574 41.9729 95.8613 42.1701C94.7653 42.3673 94.0371 43.4184 94.2349 44.5179C94.4327 45.6173 95.4816 46.3487 96.5776 46.1516C97.6737 45.9544 98.4018 44.9032 98.204 43.8038Z" fill="#F5F4ED"/>
<path d="M90.5316 167.512C86.0112 170.685 79.7745 169.593 76.6015 165.072L1.87944 58.6202C-1.29357 54.0998 -0.201285 47.8631 4.31911 44.6901L15.2852 36.9927C21.6138 32.5505 30.3452 34.0796 34.7874 40.4082L104.913 140.313C109.355 146.641 107.826 155.372 101.498 159.815L90.5316 167.512Z" fill="#00693E"/>
<path d="M24.8751 58.1413C24.8751 58.1413 22.2713 63.7234 23.7435 69.7236C23.7435 69.7236 26.7865 64.8967 24.8751 58.1413Z" fill="#91C34A"/>
<path d="M26.5611 53.066C26.5611 53.066 24.7834 60.3609 28.5557 66.5156C28.5557 66.5156 31.1693 60.1928 26.5611 53.066Z" fill="#91C34A"/>
<path d="M24.1951 60.0156C24.1951 60.0156 22.2933 65.0484 16.2111 66.8329C16.207 66.8358 17.3733 60.5968 24.1951 60.0156Z" fill="#91C34A"/>
<path d="M26.9506 51.7777C26.9506 51.7777 24.9333 58.1753 18.3365 60.3817C18.3365 60.3817 19.6469 54.6562 26.9506 51.7777Z" fill="#91C34A"/>
<path d="M28.0739 47.7645C28.0331 47.7264 27.4689 55.791 32.0397 61.0557C32.0407 61.057 33.5339 52.8701 28.0739 47.7645Z" fill="#91C34A"/>
<path d="M28.4107 46.4526C28.4107 46.4526 26.2175 52.0841 18.938 53.9833C18.9461 53.9776 20.7839 48.266 28.4107 46.4526Z" fill="#91C34A"/>
<path d="M29.4891 41.7936C29.4891 41.7936 28.9824 48.7159 33.5915 54.0063C33.5915 54.0063 34.6046 46.7225 29.4891 41.7936Z" fill="#91C34A"/>
<path d="M29.7786 40.3915C29.7786 40.3915 26.741 47.0666 20.0731 48.7628C20.0731 48.7628 22.8777 41.5599 29.7786 40.3915Z" fill="#91C34A"/>
<path d="M30.3759 37.1985C30.3759 37.1985 30.5695 42.0826 34.8856 45.8986C34.8856 45.8986 34.4469 39.9594 30.3759 37.1985Z" fill="#91C34A"/>
<path d="M30.5796 35.988C30.5796 35.988 28.3274 40.3689 21.8111 42.1428C21.8164 42.1533 24.5101 36.7567 30.5796 35.988Z" fill="#91C34A"/>
<path d="M115.485 149.997C120.006 146.824 121.098 140.587 117.925 136.066L43.2028 29.6142C40.0298 25.0938 33.7931 24.0015 29.2727 27.1745V27.1745C25.9744 29.4897 25.1774 34.0404 27.4926 37.3387L105.321 148.216C107.636 151.515 112.187 152.312 115.485 149.997V149.997Z" fill="white"/>
<path d="M12.2168 53.9363C11.4754 53.8902 10.7371 53.7954 10.0068 53.6524C9.1953 53.5026 8.39288 53.3042 7.60406 53.0585C6.99352 52.8747 6.39859 52.6416 5.8254 52.3614C7.0838 52.7712 8.37233 53.079 9.67802 53.2817C10.8787 53.4726 12.0879 53.5981 13.3002 53.6575C12.9553 53.0948 11.6066 51.1562 9.09799 50.5536C5.99811 49.8078 3.68823 52.1036 3.68823 52.1036C4.92538 52.7826 5.74192 55.0256 8.43394 55.5894C10.678 56.0613 12.6247 54.5125 13.2102 53.9853C12.8801 53.9739 12.5479 53.9562 12.2168 53.9363Z" fill="#91C34A"/>
<path d="M107.862 155.347C107.22 154.433 107.439 153.173 108.351 152.533C109.262 151.893 110.521 152.116 111.163 153.03C111.805 153.945 111.586 155.204 110.675 155.844C109.763 156.484 108.504 156.261 107.862 155.347Z" fill="#F5F4ED"/>
<path d="M104.774 150.947C104.132 150.033 104.35 148.773 105.262 148.133C106.173 147.493 107.433 147.716 108.074 148.63C108.716 149.544 108.498 150.804 107.586 151.444C106.675 152.084 105.415 151.861 104.774 150.947Z" fill="#F5F4ED"/>
<path d="M101.685 146.547C101.043 145.632 101.262 144.373 102.173 143.733C103.085 143.093 104.344 143.316 104.986 144.23C105.628 145.144 105.409 146.404 104.498 147.044C103.586 147.684 102.327 147.461 101.685 146.547Z" fill="#F5F4ED"/>
<path d="M98.5964 142.147C97.9546 141.232 98.1732 139.972 99.0847 139.333C99.9962 138.693 101.255 138.915 101.897 139.83C102.539 140.744 102.32 142.004 101.409 142.644C100.497 143.284 99.2382 143.061 98.5964 142.147Z" fill="#F5F4ED"/>
<path d="M95.5078 137.746C94.866 136.832 95.0846 135.572 95.9961 134.932C96.9076 134.293 98.1668 134.515 98.8086 135.43C99.4504 136.344 99.2318 137.604 98.3203 138.244C97.4088 138.883 96.1496 138.661 95.5078 137.746Z" fill="#F5F4ED"/>
<path d="M92.4192 133.346C91.7774 132.432 91.996 131.172 92.9075 130.532C93.819 129.892 95.0782 130.115 95.72 131.029C96.3618 131.944 96.1432 133.204 95.2317 133.843C94.3202 134.483 93.061 134.261 92.4192 133.346Z" fill="#F5F4ED"/>
<path d="M92.4192 133.346C91.7774 132.432 91.996 131.172 92.9075 130.532C93.819 129.892 95.0782 130.115 95.72 131.029C96.3618 131.944 96.1432 133.204 95.2317 133.843C94.3202 134.483 93.061 134.261 92.4192 133.346Z" fill="#F5F4ED"/>
<path d="M89.3306 128.946C88.6888 128.032 88.9074 126.772 89.8189 126.132C90.7304 125.492 91.9896 125.715 92.6314 126.629C93.2732 127.543 93.0546 128.803 92.1431 129.443C91.2316 130.083 89.9724 129.86 89.3306 128.946Z" fill="#F5F4ED"/>
<path d="M86.242 124.546C85.6002 123.632 85.8188 122.372 86.7303 121.732C87.6418 121.092 88.901 121.315 89.5428 122.229C90.1846 123.143 89.966 124.403 89.0545 125.043C88.143 125.683 86.8838 125.46 86.242 124.546Z" fill="#F5F4ED"/>
<path d="M83.1534 120.146C82.5116 119.231 82.7302 117.971 83.6417 117.332C84.5532 116.692 85.8124 116.914 86.4542 117.829C87.096 118.743 86.8774 120.003 85.9659 120.643C85.0544 121.283 83.7952 121.06 83.1534 120.146Z" fill="#F5F4ED"/>
<path d="M80.0648 115.746C79.4229 114.831 79.6416 113.571 80.5531 112.932C81.4646 112.292 82.7238 112.514 83.3656 113.429C84.0074 114.343 83.7887 115.603 82.8773 116.243C81.9658 116.882 80.7066 116.66 80.0648 115.746Z" fill="#F5F4ED"/>
<path d="M76.9762 111.345C76.3343 110.431 76.553 109.171 77.4645 108.531C78.376 107.892 79.6352 108.114 80.277 109.028C80.9188 109.943 80.7001 111.203 79.7886 111.842C78.8771 112.482 77.618 112.26 76.9762 111.345Z" fill="#F5F4ED"/>
<path d="M76.9762 111.345C76.3343 110.431 76.553 109.171 77.4645 108.531C78.376 107.892 79.6352 108.114 80.277 109.028C80.9188 109.943 80.7001 111.203 79.7886 111.842C78.8771 112.482 77.618 112.26 76.9762 111.345Z" fill="#F5F4ED"/>
<path d="M73.8874 106.945C73.2456 106.031 73.4643 104.771 74.3758 104.131C75.2872 103.491 76.5465 103.714 77.1883 104.628C77.8301 105.543 77.6114 106.803 76.6999 107.442C75.7884 108.082 74.5292 107.86 73.8874 106.945Z" fill="#F5F4ED"/>
<path d="M70.7988 102.545C70.157 101.631 70.3757 100.371 71.2871 99.731C72.1986 99.0912 73.4578 99.3138 74.0996 100.228C74.7414 101.142 74.5228 102.402 73.6113 103.042C72.6998 103.682 71.4406 103.459 70.7988 102.545Z" fill="#F5F4ED"/>
<path d="M67.7102 98.1449C67.0684 97.2305 67.287 95.9707 68.1985 95.3309C69.11 94.6911 70.3692 94.9136 71.011 95.8279C71.6528 96.7423 71.4342 98.0022 70.5227 98.642C69.6112 99.2818 68.352 99.0592 67.7102 98.1449Z" fill="#F5F4ED"/>
<path d="M64.6216 93.7447C63.9798 92.8304 64.1984 91.5705 65.1099 90.9307C66.0214 90.2909 67.2806 90.5134 67.9224 91.4278C68.5642 92.3421 68.3456 93.602 67.4341 94.2418C66.5226 94.8816 65.2634 94.6591 64.6216 93.7447Z" fill="#F5F4ED"/>
<path d="M61.533 89.3446C60.8912 88.4302 61.1098 87.1703 62.0213 86.5305C62.9328 85.8907 64.192 86.1133 64.8338 87.0276C65.4756 87.942 65.257 89.2018 64.3455 89.8417C63.434 90.4815 62.1748 90.2589 61.533 89.3446Z" fill="#F5F4ED"/>
<path d="M61.533 89.3446C60.8912 88.4302 61.1098 87.1703 62.0213 86.5305C62.9328 85.8907 64.192 86.1133 64.8338 87.0276C65.4756 87.942 65.257 89.2018 64.3455 89.8417C63.434 90.4815 62.1748 90.2589 61.533 89.3446Z" fill="#F5F4ED"/>
<path d="M58.4444 84.9445C57.8026 84.0301 58.0213 82.7703 58.9328 82.1304C59.8442 81.4906 61.1034 81.7132 61.7452 82.6275C62.3871 83.5419 62.1684 84.8018 61.2569 85.4416C60.3454 86.0814 59.0862 85.8588 58.4444 84.9445Z" fill="#F5F4ED"/>
<path d="M55.3558 80.5443C54.714 79.63 54.9326 78.3701 55.8441 77.7303C56.7556 77.0905 58.0148 77.313 58.6566 78.2274C59.2984 79.1417 59.0798 80.4016 58.1683 81.0414C57.2568 81.6812 55.9976 81.4587 55.3558 80.5443Z" fill="#F5F4ED"/>
<path d="M52.2672 76.1441C51.6254 75.2298 51.844 73.9699 52.7555 73.3301C53.667 72.6903 54.9262 72.9129 55.568 73.8272C56.2098 74.7415 55.9912 76.0014 55.0797 76.6412C54.1682 77.281 52.909 77.0585 52.2672 76.1441Z" fill="#F5F4ED"/>
<path d="M49.1786 71.744C48.5368 70.8296 48.7554 69.5697 49.6669 68.9299C50.5784 68.2901 51.8376 68.5127 52.4794 69.427C53.1212 70.3414 52.9026 71.6013 51.9911 72.2411C51.0796 72.8809 49.8204 72.6583 49.1786 71.744Z" fill="#F5F4ED"/>
<path d="M46.09 67.3438C45.4482 66.4295 45.6668 65.1696 46.5783 64.5298C47.4898 63.89 48.749 64.1125 49.3908 65.0269C50.0326 65.9412 49.814 67.2011 48.9025 67.8409C47.991 68.4807 46.7318 68.2582 46.09 67.3438Z" fill="#F5F4ED"/>
<path d="M46.09 67.3438C45.4482 66.4295 45.6668 65.1696 46.5783 64.5298C47.4898 63.89 48.749 64.1125 49.3908 65.0269C50.0326 65.9412 49.814 67.2011 48.9025 67.8409C47.991 68.4807 46.7318 68.2582 46.09 67.3438Z" fill="#F5F4ED"/>
<path d="M43.0016 62.9437C42.3598 62.0293 42.5785 60.7694 43.4899 60.1296C44.4014 59.4898 45.6606 59.7124 46.3024 60.6267C46.9442 61.5411 46.7256 62.801 45.8141 63.4408C44.9026 64.0806 43.6434 63.858 43.0016 62.9437Z" fill="#F5F4ED"/>
<path d="M39.913 58.5435C39.2712 57.6292 39.4898 56.3693 40.4013 55.7295C41.3128 55.0897 42.572 55.3122 43.2138 56.2266C43.8556 57.1409 43.637 58.4008 42.7255 59.0406C41.814 59.6804 40.5548 59.4578 39.913 58.5435Z" fill="#F5F4ED"/>
<path d="M36.8244 54.1433C36.1826 53.229 36.4012 51.9691 37.3127 51.3293C38.2242 50.6895 39.4834 50.9121 40.1252 51.8264C40.767 52.7407 40.5484 54.0006 39.6369 54.6404C38.7254 55.2802 37.4662 55.0577 36.8244 54.1433Z" fill="#F5F4ED"/>
<path d="M33.7358 49.7432C33.094 48.8288 33.3126 47.5689 34.2241 46.9291C35.1356 46.2893 36.3948 46.5119 37.0366 47.4262C37.6784 48.3406 37.4598 49.6004 36.5483 50.2403C35.6368 50.8801 34.3776 50.6575 33.7358 49.7432Z" fill="#F5F4ED"/>
<path d="M30.6472 45.343C30.0054 44.4287 30.224 43.1688 31.1355 42.529C32.047 41.8892 33.3062 42.1117 33.948 43.0261C34.5898 43.9404 34.3712 45.2003 33.4597 45.8401C32.5482 46.4799 31.289 46.2573 30.6472 45.343Z" fill="#F5F4ED"/>
<path d="M49.3908 65.0269C48.749 64.1125 47.4898 63.89 46.5783 64.5298C45.6668 65.1696 45.4482 66.4295 46.09 67.3438C46.7318 68.2582 47.991 68.4807 48.9025 67.8409C49.814 67.2011 50.0326 65.9412 49.3908 65.0269Z" fill="#F5F4ED"/>
<path d="M46.3024 60.6267C45.6606 59.7124 44.4014 59.4898 43.4899 60.1296C42.5785 60.7694 42.3598 62.0293 43.0016 62.9437C43.6434 63.858 44.9026 64.0806 45.8141 63.4408C46.7256 62.801 46.9442 61.5411 46.3024 60.6267Z" fill="#F5F4ED"/>
<path d="M43.2138 56.2266C42.572 55.3122 41.3128 55.0897 40.4013 55.7295C39.4898 56.3693 39.2712 57.6292 39.913 58.5435C40.5548 59.4578 41.814 59.6804 42.7255 59.0406C43.637 58.4008 43.8556 57.1409 43.2138 56.2266Z" fill="#F5F4ED"/>
<path d="M40.1252 51.8264C39.4834 50.9121 38.2242 50.6895 37.3127 51.3293C36.4012 51.9691 36.1826 53.229 36.8244 54.1433C37.4662 55.0577 38.7254 55.2802 39.6369 54.6404C40.5484 54.0006 40.767 52.7407 40.1252 51.8264Z" fill="#F5F4ED"/>
<path d="M37.0366 47.4262C36.3948 46.5119 35.1356 46.2893 34.2241 46.9291C33.3126 47.5689 33.094 48.8288 33.7358 49.7432C34.3776 50.6575 35.6368 50.8801 36.5483 50.2403C37.4598 49.6004 37.6784 48.3406 37.0366 47.4262Z" fill="#F5F4ED"/>
<path d="M33.948 43.0261C33.3062 42.1117 32.047 41.8892 31.1355 42.529C30.224 43.1688 30.0054 44.4287 30.6472 45.343C31.289 46.2573 32.5482 46.4799 33.4597 45.8401C34.3712 45.2003 34.5898 43.9404 33.948 43.0261Z" fill="#F5F4ED"/>
<path d="M36.9586 54.3346C36.3168 53.4202 36.5355 52.1603 37.4469 51.5205C38.3584 50.8807 39.6176 51.1033 40.2594 52.0176C40.9012 52.932 40.6826 54.1919 39.7711 54.8317C38.8596 55.4715 37.6004 55.2489 36.9586 54.3346Z" fill="#F5F4ED"/>
<path d="M33.87 49.9344C33.2282 49.0201 33.4468 47.7602 34.3583 47.1204C35.2698 46.4806 36.529 46.7031 37.1708 47.6175C37.8126 48.5318 37.594 49.7917 36.6825 50.4315C35.771 51.0713 34.5118 50.8487 33.87 49.9344Z" fill="#F5F4ED"/>
<path d="M30.7814 45.5342C30.1396 44.6199 30.3582 43.36 31.2697 42.7202C32.1812 42.0804 33.4404 42.3029 34.0822 43.2173C34.724 44.1316 34.5054 45.3915 33.5939 46.0313C32.6824 46.6711 31.4232 46.4486 30.7814 45.5342Z" fill="#F5F4ED"/>
<path d="M27.6928 41.1341C27.051 40.2197 27.2696 38.9598 28.1811 38.32C29.0926 37.6802 30.3518 37.9028 30.9936 38.8171C31.6354 39.7315 31.4168 40.9914 30.5053 41.6312C29.5938 42.271 28.3346 42.0484 27.6928 41.1341Z" fill="#F5F4ED"/>
<path d="M24.6042 36.7339C23.9624 35.8196 24.181 34.5597 25.0925 33.9199C26.004 33.2801 27.2632 33.5026 27.905 34.417C28.5468 35.3313 28.3282 36.5912 27.4167 37.231C26.5052 37.8708 25.246 37.6482 24.6042 36.7339Z" fill="#F5F4ED"/>
<path d="M21.5156 32.3337C20.8738 31.4194 21.0924 30.1595 22.0039 29.5197C22.9154 28.8799 24.1746 29.1025 24.8164 30.0168C25.4582 30.9311 25.2396 32.191 24.3281 32.8308C23.4166 33.4706 22.1574 33.2481 21.5156 32.3337Z" fill="#F5F4ED"/>
<path d="M40.2594 52.0176C39.6176 51.1033 38.3584 50.8807 37.4469 51.5205C36.5355 52.1603 36.3168 53.4202 36.9586 54.3346C37.6004 55.2489 38.8596 55.4715 39.7711 54.8317C40.6826 54.1919 40.9012 52.932 40.2594 52.0176Z" fill="#F5F4ED"/>
<path d="M37.1708 47.6175C36.529 46.7031 35.2698 46.4806 34.3583 47.1204C33.4468 47.7602 33.2282 49.0201 33.87 49.9344C34.5118 50.8487 35.771 51.0713 36.6825 50.4315C37.594 49.7917 37.8126 48.5318 37.1708 47.6175Z" fill="#F5F4ED"/>
<path d="M34.0822 43.2173C33.4404 42.3029 32.1812 42.0804 31.2697 42.7202C30.3582 43.36 30.1396 44.6199 30.7814 45.5342C31.4232 46.4486 32.6824 46.6711 33.5939 46.0313C34.5054 45.3915 34.724 44.1316 34.0822 43.2173Z" fill="#F5F4ED"/>
<path d="M30.9936 38.8171C30.3518 37.9028 29.0926 37.6802 28.1811 38.32C27.2696 38.9598 27.051 40.2197 27.6928 41.1341C28.3346 42.0484 29.5938 42.271 30.5053 41.6312C31.4168 40.9914 31.6354 39.7315 30.9936 38.8171Z" fill="#F5F4ED"/>
<path d="M27.905 34.417C27.2632 33.5026 26.004 33.2801 25.0925 33.9199C24.181 34.5597 23.9624 35.8196 24.6042 36.7339C25.246 37.6482 26.5052 37.8708 27.4167 37.231C28.3282 36.5912 28.5468 35.3313 27.905 34.417Z" fill="#F5F4ED"/>
<path d="M24.8164 30.0168C24.1746 29.1025 22.9154 28.8799 22.0039 29.5197C21.0924 30.1595 20.8738 31.4194 21.5156 32.3337C22.1574 33.2481 23.4166 33.4706 24.3281 32.8308C25.2396 32.191 25.4582 30.9311 24.8164 30.0168Z" fill="#F5F4ED"/>
<path d="M111.163 153.03C110.521 152.116 109.262 151.893 108.351 152.533C107.439 153.173 107.22 154.433 107.862 155.347C108.504 156.261 109.763 156.484 110.675 155.844C111.586 155.204 111.805 153.945 111.163 153.03Z" fill="#F5F4ED"/>
<path d="M108.074 148.63C107.433 147.716 106.173 147.493 105.262 148.133C104.35 148.773 104.132 150.033 104.774 150.947C105.415 151.861 106.675 152.084 107.586 151.444C108.498 150.804 108.716 149.544 108.074 148.63Z" fill="#F5F4ED"/>
<path d="M104.986 144.23C104.344 143.316 103.085 143.093 102.173 143.733C101.262 144.373 101.043 145.632 101.685 146.547C102.327 147.461 103.586 147.684 104.498 147.044C105.409 146.404 105.628 145.144 104.986 144.23Z" fill="#F5F4ED"/>
<path d="M101.897 139.83C101.255 138.915 99.9962 138.693 99.0847 139.333C98.1732 139.972 97.9546 141.232 98.5964 142.147C99.2382 143.061 100.497 143.284 101.409 142.644C102.32 142.004 102.539 140.744 101.897 139.83Z" fill="#F5F4ED"/>
<path d="M98.8086 135.43C98.1668 134.515 96.9076 134.293 95.9961 134.932C95.0846 135.572 94.866 136.832 95.5078 137.746C96.1496 138.661 97.4088 138.883 98.3203 138.244C99.2318 137.604 99.4504 136.344 98.8086 135.43Z" fill="#F5F4ED"/>
<path d="M95.72 131.029C95.0782 130.115 93.819 129.892 92.9075 130.532C91.996 131.172 91.7774 132.432 92.4192 133.346C93.061 134.261 94.3202 134.483 95.2317 133.843C96.1432 133.204 96.3618 131.944 95.72 131.029Z" fill="#F5F4ED"/>
<path d="M95.72 131.029C95.0782 130.115 93.819 129.892 92.9075 130.532C91.996 131.172 91.7774 132.432 92.4192 133.346C93.061 134.261 94.3202 134.483 95.2317 133.843C96.1432 133.204 96.3618 131.944 95.72 131.029Z" fill="#F5F4ED"/>
<path d="M92.6314 126.629C91.9896 125.715 90.7304 125.492 89.8189 126.132C88.9074 126.772 88.6888 128.032 89.3306 128.946C89.9724 129.86 91.2316 130.083 92.1431 129.443C93.0546 128.803 93.2732 127.543 92.6314 126.629Z" fill="#F5F4ED"/>
<path d="M89.5428 122.229C88.901 121.315 87.6418 121.092 86.7303 121.732C85.8188 122.372 85.6002 123.632 86.242 124.546C86.8838 125.46 88.143 125.683 89.0545 125.043C89.966 124.403 90.1846 123.143 89.5428 122.229Z" fill="#F5F4ED"/>
<path d="M86.4542 117.829C85.8124 116.914 84.5532 116.692 83.6417 117.332C82.7302 117.971 82.5116 119.231 83.1534 120.146C83.7952 121.06 85.0544 121.283 85.9659 120.643C86.8774 120.003 87.096 118.743 86.4542 117.829Z" fill="#F5F4ED"/>
<path d="M83.3656 113.429C82.7238 112.514 81.4646 112.292 80.5531 112.932C79.6416 113.571 79.4229 114.831 80.0648 115.746C80.7066 116.66 81.9658 116.882 82.8773 116.243C83.7887 115.603 84.0074 114.343 83.3656 113.429Z" fill="#F5F4ED"/>
<path d="M80.277 109.028C79.6352 108.114 78.376 107.892 77.4645 108.531C76.553 109.171 76.3343 110.431 76.9762 111.345C77.618 112.26 78.8771 112.482 79.7886 111.842C80.7001 111.203 80.9188 109.943 80.277 109.028Z" fill="#F5F4ED"/>
<path d="M80.277 109.028C79.6352 108.114 78.376 107.892 77.4645 108.531C76.553 109.171 76.3343 110.431 76.9762 111.345C77.618 112.26 78.8771 112.482 79.7886 111.842C80.7001 111.203 80.9188 109.943 80.277 109.028Z" fill="#F5F4ED"/>
<path d="M77.1883 104.628C76.5465 103.714 75.2872 103.491 74.3758 104.131C73.4643 104.771 73.2456 106.031 73.8874 106.945C74.5292 107.86 75.7884 108.082 76.6999 107.442C77.6114 106.803 77.8301 105.543 77.1883 104.628Z" fill="#F5F4ED"/>
<path d="M74.0996 100.228C73.4578 99.3138 72.1986 99.0912 71.2871 99.731C70.3757 100.371 70.157 101.631 70.7988 102.545C71.4406 103.459 72.6998 103.682 73.6113 103.042C74.5228 102.402 74.7414 101.142 74.0996 100.228Z" fill="#F5F4ED"/>
<path d="M71.011 95.8279C70.3692 94.9136 69.11 94.6911 68.1985 95.3309C67.287 95.9707 67.0684 97.2305 67.7102 98.1449C68.352 99.0592 69.6112 99.2818 70.5227 98.642C71.4342 98.0022 71.6528 96.7423 71.011 95.8279Z" fill="#F5F4ED"/>
<path d="M67.9224 91.4278C67.2806 90.5134 66.0214 90.2909 65.1099 90.9307C64.1984 91.5705 63.9798 92.8304 64.6216 93.7447C65.2634 94.6591 66.5226 94.8816 67.4341 94.2418C68.3456 93.602 68.5642 92.3421 67.9224 91.4278Z" fill="#F5F4ED"/>
<path d="M64.8338 87.0276C64.192 86.1133 62.9328 85.8907 62.0213 86.5305C61.1098 87.1703 60.8912 88.4302 61.533 89.3446C62.1748 90.2589 63.434 90.4815 64.3455 89.8417C65.257 89.2018 65.4756 87.942 64.8338 87.0276Z" fill="#F5F4ED"/>
<path d="M64.8338 87.0276C64.192 86.1133 62.9328 85.8907 62.0213 86.5305C61.1098 87.1703 60.8912 88.4302 61.533 89.3446C62.1748 90.2589 63.434 90.4815 64.3455 89.8417C65.257 89.2018 65.4756 87.942 64.8338 87.0276Z" fill="#F5F4ED"/>
<path d="M61.7452 82.6275C61.1034 81.7132 59.8442 81.4906 58.9328 82.1304C58.0213 82.7703 57.8026 84.0301 58.4444 84.9445C59.0862 85.8588 60.3454 86.0814 61.2569 85.4416C62.1684 84.8018 62.3871 83.5419 61.7452 82.6275Z" fill="#F5F4ED"/>
<path d="M58.6566 78.2274C58.0148 77.313 56.7556 77.0905 55.8441 77.7303C54.9326 78.3701 54.714 79.63 55.3558 80.5443C55.9976 81.4587 57.2568 81.6812 58.1683 81.0414C59.0798 80.4016 59.2984 79.1417 58.6566 78.2274Z" fill="#F5F4ED"/>
<path d="M55.568 73.8272C54.9262 72.9129 53.667 72.6903 52.7555 73.3301C51.844 73.9699 51.6254 75.2298 52.2672 76.1441C52.909 77.0585 54.1682 77.281 55.0797 76.6412C55.9912 76.0014 56.2098 74.7415 55.568 73.8272Z" fill="#F5F4ED"/>
<path d="M52.4794 69.427C51.8376 68.5127 50.5784 68.2901 49.6669 68.9299C48.7554 69.5697 48.5368 70.8296 49.1786 71.744C49.8204 72.6583 51.0796 72.8809 51.9911 72.2411C52.9026 71.6013 53.1212 70.3414 52.4794 69.427Z" fill="#F5F4ED"/>
<path d="M49.3908 65.0269C48.749 64.1125 47.4898 63.89 46.5783 64.5298C45.6668 65.1696 45.4482 66.4295 46.09 67.3438C46.7318 68.2582 47.991 68.4807 48.9025 67.8409C49.814 67.2011 50.0326 65.9412 49.3908 65.0269Z" fill="#F5F4ED"/>
</svg>
