<svg width="164" height="138" viewBox="0 0 164 138" fill="none" xmlns="http://www.w3.org/2000/svg">
<path d="M77.1725 51.6602C77.1725 51.6602 71.5607 47.1374 70.4836 46.9113C69.4064 46.6852 65.0845 51.6602 65.0845 51.6602C65.0845 51.6602 55.5831 52.9904 54.7187 54.0346C53.8543 55.0789 50.8357 63.9714 51.0484 65.0489C51.2612 66.1263 53.8543 69.5849 53.8543 70.2301C53.8543 70.8752 50.5963 78.6503 51.0418 80.5991C51.4873 82.5479 63.0898 83.1864 64.0872 83.6187C65.0845 84.0511 66.3811 89.4517 67.4582 89.6646C68.5354 89.8774 93.1501 82.3484 94.4467 81.4638C95.7432 80.5792 94.8855 74.1476 95.8496 73.9015C96.8137 73.6554 102 68.5008 102 67.2105C102 65.9201 91.8668 46.6918 89.5929 46.0467C87.3189 45.4015 77.1725 51.6602 77.1725 51.6602ZM77.1725 51.6602C78.6818 53.17 84.0808 66.0864 84.0808 67.8356C84.0808 69.5849 68.788 81.0314 67.671 80.8119C66.554 80.5924 54.8051 72.9836 55.8025 70.8818C56.7998 68.7801 67.4582 59.9474 68.3226 58.3977C69.187 56.848 69.9184 49.4986 69.9184 49.4986M62.0592 68.9331C62.0592 68.9331 71.9929 66.5653 73.7216 65.1553C75.4504 63.7452 79.8786 56.6685 79.8786 56.6685M81.5808 60.566C81.5808 60.566 90.4905 61.8563 91.6076 62.8008C92.7246 63.7452 95.8563 73.9015 95.8563 73.9015M70.9424 88.8664C70.9424 88.8664 87.8243 76.7481 88.6886 75.2383C89.553 73.7285 87.5649 61.6036 87.5649 61.6036M115.172 91.0088C115.172 91.0088 109.561 95.5316 108.484 95.7577C107.406 95.9838 103.085 91.0088 103.085 91.0088C103.085 91.0088 93.5831 89.6786 92.7187 88.6344C91.8543 87.5902 88.8357 78.6976 89.0484 77.6202C89.2612 76.5427 91.8543 73.0841 91.8543 72.4389C91.8543 71.7938 88.5963 64.0187 89.0418 62.0699C89.4873 60.1211 101.09 59.4826 102.087 59.0503C103.085 58.618 104.381 53.2173 105.458 53.0044C106.535 52.7916 131.15 60.3206 132.447 61.2052C133.743 62.0898 132.885 68.5215 133.85 68.7675C134.814 69.0136 140 74.1682 140 75.4585C140 76.7489 129.867 95.9772 127.593 96.6224C125.319 97.2675 115.172 91.0088 115.172 91.0088ZM115.172 91.0088C116.682 89.499 122.081 76.5826 122.081 74.8334C122.081 73.0841 106.788 61.6376 105.671 61.8571C104.554 62.0766 92.8051 69.6854 93.8025 71.7872C94.7998 73.8889 105.458 82.7216 106.323 84.2713C107.187 85.821 107.918 93.1705 107.918 93.1705M100.059 73.7359C100.059 73.7359 109.993 76.1037 111.722 77.5138C113.45 78.9238 117.879 86.0006 117.879 86.0006M119.581 82.103C119.581 82.103 128.491 80.8127 129.608 79.8682C130.725 78.9238 133.856 68.7675 133.856 68.7675M108.942 53.8026C108.942 53.8026 125.824 65.9209 126.689 67.4307C127.553 68.9405 125.565 81.0654 125.565 81.0654M74.4098 75.6579C74.4098 75.6579 66.8174 69.5389 65.3601 69.2329C63.9028 68.927 58.0556 75.6579 58.0556 75.6579C58.0556 75.6579 45.2007 77.4576 44.0312 78.8704C42.8618 80.2832 38.7777 92.3142 39.0656 93.772C39.3534 95.2297 42.8618 99.909 42.8618 100.782C42.8618 101.655 38.4539 112.174 39.0566 114.811C39.6593 117.447 55.3569 118.311 56.7062 118.896C58.0556 119.481 59.8097 126.788 61.2671 127.076C62.7244 127.364 96.0266 117.177 97.7808 115.98C99.535 114.784 98.3745 106.082 99.6789 105.749C100.983 105.416 108 98.4422 108 96.6965C108 94.9508 94.2904 68.936 91.2139 68.0631C88.1373 67.1903 74.4098 75.6579 74.4098 75.6579ZM74.4098 75.6579C76.4519 77.7006 83.7563 95.1757 83.7563 97.5423C83.7563 99.9089 63.0661 115.395 61.5548 115.098C60.0435 114.802 44.148 104.507 45.4974 101.664C46.8467 98.8201 61.2669 86.87 62.4364 84.7734C63.6058 82.6767 64.5953 72.7333 64.5953 72.7333M53.9626 99.0271C53.9626 99.0271 67.4022 95.8236 69.7411 93.9159C72.08 92.0082 78.0712 82.4338 78.0712 82.4338M80.374 87.707C80.374 87.707 92.4283 89.4527 93.9396 90.7305C95.4509 92.0083 99.6879 105.749 99.6879 105.749M65.9808 125.996C65.9808 125.996 88.821 109.601 89.9905 107.558C91.1599 105.515 88.4702 89.1108 88.4702 89.1108M72.5901 75.6579C72.5901 75.6579 80.1825 69.5389 81.6398 69.2329C83.0971 68.927 88.9443 75.6579 88.9443 75.6579C88.9443 75.6579 101.799 77.4576 102.969 78.8704C104.138 80.2832 108.222 92.3142 107.934 93.772C107.646 95.2297 104.138 99.909 104.138 100.782C104.138 101.655 108.546 112.174 107.943 114.811C107.341 117.447 91.643 118.311 90.2937 118.896C88.9443 119.481 87.1902 126.788 85.7328 127.076C84.2755 127.364 50.9733 117.177 49.2191 115.98C47.4649 114.784 48.6254 106.082 47.321 105.749C46.0166 105.416 38.9999 98.4422 38.9999 96.6965C38.9999 94.9508 52.7095 68.936 55.786 68.0631C58.8625 67.1903 72.5901 75.6579 72.5901 75.6579ZM72.5901 75.6579C70.548 77.7006 63.2436 95.1757 63.2436 97.5423C63.2436 99.9089 83.9338 115.395 85.4451 115.098C86.9564 114.802 102.852 104.507 101.503 101.664C100.153 98.8201 85.733 86.87 84.5635 84.7734C83.3941 82.6767 82.4046 72.7333 82.4046 72.7333M93.0373 99.0271C93.0373 99.0271 79.5977 95.8236 77.2588 93.9159C74.9199 92.0082 68.9287 82.4338 68.9287 82.4338M66.6259 87.707C66.6259 87.707 54.5716 89.4527 53.0603 90.7305C51.549 92.0083 47.312 105.749 47.312 105.749M81.0191 125.996C81.0191 125.996 58.1789 109.601 57.0094 107.558C55.84 105.515 58.5297 89.1108 58.5297 89.1108M28.3694 6.84328C28.3694 6.84328 22.5761 2.17424 21.4641 1.94078C20.3521 1.70733 15.8904 6.84328 15.8904 6.84328C15.8904 6.84328 6.08161 8.21653 5.18928 9.29453C4.29694 10.3725 1.18064 19.5527 1.40029 20.665C1.61994 21.7774 4.29694 25.3478 4.29694 26.0138C4.29694 26.6799 0.933528 34.7065 1.39342 36.7183C1.85332 38.7301 13.8312 39.3893 14.8608 39.8356C15.8904 40.2819 17.2289 45.8573 18.3409 46.077C19.4529 46.2967 44.8638 38.5241 46.2023 37.6109C47.5408 36.6977 46.6553 30.0581 47.6506 29.804C48.6459 29.55 53.9999 24.2286 53.9999 22.8966C53.9999 21.5645 43.539 1.71419 41.1915 1.04817C38.844 0.382143 28.3694 6.84328 28.3694 6.84328ZM28.3694 6.84328C29.9275 8.40192 35.5011 21.7361 35.5011 23.5419C35.5011 25.3477 19.7136 37.1646 18.5605 36.938C17.4073 36.7114 5.27842 28.8564 6.30803 26.6867C7.33765 24.5169 18.3408 15.3986 19.2331 13.7987C20.1255 12.1989 20.8805 4.61168 20.8805 4.61168M12.7673 24.6749C12.7673 24.6749 23.0223 22.2306 24.807 20.7749C26.5916 19.3193 31.1631 12.0136 31.1631 12.0136M32.9202 16.0372C32.9202 16.0372 42.1181 17.3693 43.2713 18.3443C44.4245 19.3193 47.6575 29.8041 47.6575 29.8041M21.9378 45.2532C21.9378 45.2532 39.3657 32.7429 40.2581 31.1842C41.1504 29.6256 39.098 17.1084 39.098 17.1084M140.782 23.63C140.782 23.63 144.123 26.3228 144.764 26.4574C145.406 26.5921 147.979 23.63 147.979 23.63C147.979 23.63 153.636 22.838 154.151 22.2163C154.665 21.5946 156.463 16.3001 156.336 15.6585C156.209 15.017 154.665 12.9578 154.665 12.5737C154.665 12.1896 156.605 7.56037 156.34 6.4001C156.075 5.23982 149.167 4.85966 148.573 4.60226C147.979 4.34486 147.207 1.12936 146.566 1.00264C145.924 0.875917 131.269 5.35862 130.497 5.8853C129.725 6.41198 130.236 10.2413 129.662 10.3878C129.088 10.5343 126 13.6033 126 14.3715C126 15.1398 132.033 26.5881 133.387 26.9722C134.741 27.3563 140.782 23.63 140.782 23.63ZM140.782 23.63C139.883 22.7311 136.669 15.0408 136.669 13.9994C136.669 12.9579 145.774 6.14274 146.439 6.27342C147.104 6.4041 154.099 10.9343 153.505 12.1857C152.912 13.437 146.566 18.6959 146.051 19.6186C145.536 20.5412 145.101 24.917 145.101 24.917M149.78 13.3459C149.78 13.3459 143.866 14.7557 142.836 15.5952C141.807 16.4347 139.171 20.6481 139.171 20.6481M138.157 18.3275C138.157 18.3275 132.853 17.5593 132.188 16.997C131.522 16.4347 129.658 10.3878 129.658 10.3878M144.491 1.47778C144.491 1.47778 134.44 8.69288 133.925 9.59179C133.411 10.4907 134.594 17.7098 134.594 17.7098M140.164 106.361C140.164 106.361 135.841 102.876 135.011 102.702C134.181 102.528 130.851 106.361 130.851 106.361C130.851 106.361 123.531 107.386 122.865 108.19C122.199 108.995 119.873 115.846 120.037 116.676C120.201 117.506 122.199 120.171 122.199 120.668C122.199 121.165 119.689 127.155 120.032 128.656C120.375 130.158 129.314 130.65 130.083 130.983C130.851 131.316 131.85 135.477 132.68 135.641C133.51 135.805 152.474 130.004 153.473 129.323C154.472 128.641 153.811 123.686 154.554 123.496C155.296 123.307 159.292 119.335 159.292 118.341C159.292 117.347 151.485 102.533 149.733 102.036C147.981 101.539 140.164 106.361 140.164 106.361ZM140.164 106.361C141.327 107.524 145.487 117.475 145.487 118.823C145.487 120.171 133.704 128.989 132.844 128.82C131.983 128.651 122.932 122.789 123.7 121.17C124.468 119.551 132.68 112.746 133.346 111.552C134.012 110.358 134.575 104.695 134.575 104.695M128.521 119.669C128.521 119.669 136.174 117.844 137.506 116.758C138.838 115.672 142.249 110.219 142.249 110.219M143.56 113.222C143.56 113.222 150.425 114.216 151.285 114.944C152.146 115.672 154.559 123.496 154.559 123.496M135.364 135.026C135.364 135.026 148.371 125.689 149.037 124.526C149.703 123.363 148.171 114.022 148.171 114.022M163.029 97.3883C165.282 113.297 136.355 130.55 98.4183 135.923C60.4814 141.296 27.9009 132.755 25.6476 116.846C23.3944 100.937 52.3217 83.6845 90.2586 78.3114C128.195 72.9383 160.776 81.4793 163.029 97.3883Z" stroke="#FFB304" stroke-width="0.73" stroke-miterlimit="10"/>
</svg>
