<svg width="166" height="145" viewBox="0 0 166 145" fill="none" xmlns="http://www.w3.org/2000/svg">
<ellipse cx="92.9882" cy="106.117" rx="69.3764" ry="29.0933" transform="rotate(-8.06136 92.9882 106.117)" fill="#FFB304" fill-opacity="0.7"/>
<path d="M75.8223 50.6602C75.8223 50.6602 70.2105 46.1374 69.1334 45.9113C68.0562 45.6852 63.7344 50.6602 63.7344 50.6602C63.7344 50.6602 54.2329 51.9904 53.3685 53.0346C52.5042 54.0789 49.4855 62.9714 49.6983 64.0488C49.911 65.1263 52.5042 68.5849 52.5042 69.2301C52.5042 69.8752 49.2461 77.6503 49.6916 79.5991C50.1371 81.5479 61.7397 82.1864 62.737 82.6187C63.7344 83.051 65.0309 88.4517 66.1081 88.6646C67.1852 88.8774 91.7999 81.3484 93.0965 80.4638C94.393 79.5792 93.5353 73.1476 94.4994 72.9015C95.4635 72.6554 100.65 67.5008 100.65 66.2105C100.65 64.9201 90.5167 45.6918 88.2427 45.0467C85.9687 44.4015 75.8223 50.6602 75.8223 50.6602Z" fill="#FF8302"/>
<path d="M75.8223 50.6601C77.3316 52.1699 82.7306 65.0864 82.7306 66.8356C82.7306 68.5849 67.4379 80.0314 66.3208 79.8119C65.2038 79.5924 53.455 71.9836 54.4523 69.8818C55.4497 67.7801 66.1081 58.9474 66.9724 57.3977C67.8368 55.848 68.5682 48.4985 68.5682 48.4985" stroke="#FFB304" stroke-width="0.73" stroke-miterlimit="10"/>
<path d="M60.7091 67.9331C60.7091 67.9331 70.6427 65.5653 72.3715 64.1553C74.1002 62.7452 78.5285 55.6685 78.5285 55.6685" stroke="#FFB304" stroke-width="0.73" stroke-miterlimit="10"/>
<path d="M80.2307 59.566C80.2307 59.566 89.1404 60.8564 90.2574 61.8008C91.3745 62.7453 94.5061 72.9015 94.5061 72.9015" stroke="#FFB304" stroke-width="0.73" stroke-miterlimit="10"/>
<path d="M69.5922 87.8665C69.5922 87.8665 86.4741 75.7482 87.3385 74.2384C88.2028 72.7286 86.2148 60.6036 86.2148 60.6036" stroke="#FFB304" stroke-width="0.73" stroke-miterlimit="10"/>
<path d="M113.822 90.0088C113.822 90.0088 108.211 94.5315 107.133 94.7576C106.056 94.9838 101.734 90.0088 101.734 90.0088C101.734 90.0088 92.2329 88.6785 91.3685 87.6343C90.5042 86.5901 87.4855 77.6976 87.6983 76.6201C87.911 75.5426 90.5042 72.084 90.5042 71.4389C90.5042 70.7937 87.2461 63.0186 87.6916 61.0698C88.1371 59.1211 99.7397 58.4825 100.737 58.0502C101.734 57.6179 103.031 52.2172 104.108 52.0044C105.185 51.7915 129.8 59.3206 131.096 60.2052C132.393 61.0898 131.535 67.5214 132.499 67.7675C133.464 68.0136 138.65 73.1682 138.65 74.4585C138.65 75.7488 128.517 94.9771 126.243 95.6223C123.969 96.2674 113.822 90.0088 113.822 90.0088Z" fill="#FF8302"/>
<path d="M113.822 90.0088C115.332 88.499 120.731 75.5826 120.731 73.8333C120.731 72.0841 105.438 60.6375 104.321 60.857C103.204 61.0765 91.455 68.6854 92.4523 70.7871C93.4497 72.8889 104.108 81.7215 104.972 83.2712C105.837 84.8209 106.568 92.1704 106.568 92.1704" stroke="#FFB304" stroke-width="0.73" stroke-miterlimit="10"/>
<path d="M98.7091 72.7359C98.7091 72.7359 108.643 75.1037 110.371 76.5137C112.1 77.9237 116.528 85.0005 116.528 85.0005" stroke="#FFB304" stroke-width="0.73" stroke-miterlimit="10"/>
<path d="M118.231 81.1029C118.231 81.1029 127.14 79.8126 128.257 78.8681C129.374 77.9237 132.506 67.7675 132.506 67.7675" stroke="#FFB304" stroke-width="0.73" stroke-miterlimit="10"/>
<path d="M107.592 52.8024C107.592 52.8024 124.474 64.9208 125.338 66.4306C126.203 67.9404 124.215 80.0653 124.215 80.0653" stroke="#FFB304" stroke-width="0.73" stroke-miterlimit="10"/>
<path d="M73.0597 74.6579C73.0597 74.6579 65.4673 68.5389 64.01 68.2329C62.5526 67.927 56.7054 74.6579 56.7054 74.6579C56.7054 74.6579 43.8505 76.4576 42.681 77.8704C41.5116 79.2832 37.4275 91.3142 37.7154 92.772C38.0033 94.2297 41.5116 98.909 41.5116 99.7818C41.5116 100.655 37.1037 111.174 37.7064 113.811C38.3091 116.447 54.0067 117.311 55.356 117.896C56.7054 118.481 58.4596 125.788 59.9169 126.076C61.3742 126.364 94.6764 116.177 96.4306 114.98C98.1848 113.784 97.0243 105.082 98.3287 104.749C99.6331 104.416 106.65 97.4422 106.65 95.6965C106.65 93.9508 92.9403 67.936 89.8637 67.0631C86.7872 66.1903 73.0597 74.6579 73.0597 74.6579Z" fill="#FF8302"/>
<path d="M73.0595 74.6578C75.1016 76.7005 82.4061 94.1757 82.4061 96.5423C82.4061 98.9089 61.7159 114.395 60.2046 114.098C58.6933 113.801 42.7978 103.507 44.1472 100.664C45.4966 97.8201 59.9167 85.87 61.0862 83.7733C62.2556 81.6767 63.2452 71.7333 63.2452 71.7333" stroke="#FFB304" stroke-width="0.73" stroke-miterlimit="10"/>
<path d="M52.6124 98.0272C52.6124 98.0272 66.052 94.8237 68.3909 92.916C70.7298 91.0083 76.721 81.4338 76.721 81.4338" stroke="#FFB304" stroke-width="0.73" stroke-miterlimit="10"/>
<path d="M79.0238 86.707C79.0238 86.707 91.0781 88.4528 92.5894 89.7305C94.1007 91.0083 98.3377 104.749 98.3377 104.749" stroke="#FFB304" stroke-width="0.73" stroke-miterlimit="10"/>
<path d="M64.6306 124.996C64.6306 124.996 87.4708 108.601 88.6403 106.558C89.8097 104.515 87.12 88.1108 87.12 88.1108" stroke="#FFB304" stroke-width="0.73" stroke-miterlimit="10"/>
<path d="M71.2399 74.6579C71.2399 74.6579 78.8323 68.5389 80.2896 68.2329C81.7469 67.927 87.5942 74.6579 87.5942 74.6579C87.5942 74.6579 100.449 76.4576 101.619 77.8704C102.788 79.2832 106.872 91.3142 106.584 92.772C106.296 94.2297 102.788 98.909 102.788 99.7818C102.788 100.655 107.196 111.174 106.593 113.811C105.99 116.447 90.2929 117.311 88.9435 117.896C87.5941 118.481 85.84 125.788 84.3827 126.076C82.9254 126.364 49.6231 116.177 47.8689 114.98C46.1148 113.784 47.2752 105.082 45.9708 104.749C44.6665 104.416 37.6498 97.4422 37.6498 95.6965C37.6498 93.9508 51.3593 67.936 54.4358 67.0631C57.5124 66.1903 71.2399 74.6579 71.2399 74.6579Z" fill="#FF8302"/>
<path d="M71.24 74.6578C69.198 76.7005 61.8935 94.1757 61.8935 96.5423C61.8935 98.9089 82.5837 114.395 84.095 114.098C85.6062 113.801 101.502 103.507 100.152 100.664C98.803 97.8201 84.3828 85.87 83.2134 83.7733C82.0439 81.6767 81.0544 71.7333 81.0544 71.7333" stroke="#FFB304" stroke-width="0.73" stroke-miterlimit="10"/>
<path d="M91.6872 98.0272C91.6872 98.0272 78.2475 94.8237 75.9086 92.916C73.5697 91.0083 67.5786 81.4338 67.5786 81.4338" stroke="#FFB304" stroke-width="0.73" stroke-miterlimit="10"/>
<path d="M65.2758 86.707C65.2758 86.707 53.2215 88.4528 51.7102 89.7305C50.1989 91.0083 45.9619 104.749 45.9619 104.749" stroke="#FFB304" stroke-width="0.73" stroke-miterlimit="10"/>
<path d="M79.6689 124.996C79.6689 124.996 56.8287 108.601 55.6593 106.558C54.4898 104.515 57.1796 88.1108 57.1796 88.1108" stroke="#FFB304" stroke-width="0.73" stroke-miterlimit="10"/>
<path d="M27.0191 5.84328C27.0191 5.84328 21.2258 1.17423 20.1139 0.940782C19.0019 0.707329 14.5402 5.84328 14.5402 5.84328C14.5402 5.84328 4.73139 7.21653 3.83906 8.29453C2.94672 9.37253 -0.169584 18.5527 0.0500673 19.665C0.269719 20.7774 2.94672 24.3478 2.94672 25.0138C2.94672 25.6799 -0.416692 33.7065 0.043203 35.7183C0.503098 37.7301 12.481 38.3893 13.5106 38.8356C14.5402 39.2819 15.8787 44.8573 16.9907 45.077C18.1027 45.2967 43.5136 37.5241 44.8521 36.6109C46.1906 35.6977 45.3051 29.0581 46.3004 28.804C47.2957 28.55 52.6497 23.2286 52.6497 21.8966C52.6497 20.5645 42.1888 0.714193 39.8413 0.0481675C37.4938 -0.617858 27.0191 5.84328 27.0191 5.84328Z" fill="#FF8302"/>
<path d="M27.0191 5.84322C28.5772 7.40186 34.1509 20.7361 34.1509 22.5419C34.1509 24.3478 18.3634 36.1646 17.2103 35.938C16.0571 35.7114 3.92821 27.8564 4.95783 25.6867C5.98744 23.5169 16.9906 14.3986 17.8829 12.7987C18.7753 11.1989 19.5303 3.61169 19.5303 3.61169" stroke="#FFB304" stroke-width="0.73" stroke-miterlimit="10"/>
<path d="M11.4171 23.6749C11.4171 23.6749 21.6721 21.2305 23.4567 19.7749C25.2414 18.3192 29.8129 11.0135 29.8129 11.0135" stroke="#FFB304" stroke-width="0.73" stroke-miterlimit="10"/>
<path d="M31.57 15.0372C31.57 15.0372 40.7679 16.3693 41.9211 17.3443C43.0743 18.3193 46.3072 28.8041 46.3072 28.8041" stroke="#FFB304" stroke-width="0.73" stroke-miterlimit="10"/>
<path d="M20.5875 44.2532C20.5875 44.2532 38.0155 31.7428 38.9078 30.1842C39.8002 28.6256 37.7478 16.1084 37.7478 16.1084" stroke="#FFB304" stroke-width="0.73" stroke-miterlimit="10"/>
<path d="M139.432 22.63C139.432 22.63 142.773 25.3228 143.414 25.4574C144.056 25.5921 146.629 22.63 146.629 22.63C146.629 22.63 152.286 21.838 152.8 21.2163C153.315 20.5946 155.112 15.3001 154.986 14.6585C154.859 14.017 153.315 11.9578 153.315 11.5737C153.315 11.1896 155.255 6.56037 154.99 5.4001C154.724 4.23982 147.816 3.85966 147.223 3.60226C146.629 3.34486 145.857 0.129355 145.215 0.00263498C144.574 -0.124085 129.919 4.35862 129.147 4.8853C128.375 5.41198 128.886 9.24128 128.312 9.3878C127.738 9.53432 124.65 12.6033 124.65 13.3715C124.65 14.1398 130.683 25.5881 132.037 25.9722C133.391 26.3563 139.432 22.63 139.432 22.63Z" fill="#FF8302"/>
<path d="M139.432 22.63C138.533 21.7311 135.319 14.0408 135.319 12.9993C135.319 11.9578 144.424 5.1427 145.089 5.27338C145.754 5.40406 152.749 9.93429 152.155 11.1856C151.561 12.437 145.215 17.6959 144.701 18.6185C144.186 19.5412 143.751 23.917 143.751 23.917" stroke="#FFB304" stroke-width="0.73" stroke-miterlimit="10"/>
<path d="M148.43 12.3459C148.43 12.3459 142.516 13.7556 141.486 14.5951C140.457 15.4346 137.82 19.6481 137.82 19.6481" stroke="#FFB304" stroke-width="0.73" stroke-miterlimit="10"/>
<path d="M136.807 17.3275C136.807 17.3275 131.502 16.5593 130.837 15.997C130.172 15.4346 128.308 9.38775 128.308 9.38775" stroke="#FFB304" stroke-width="0.73" stroke-miterlimit="10"/>
<path d="M143.141 0.477733C143.141 0.477733 133.09 7.69283 132.575 8.59175C132.06 9.49066 133.244 16.7097 133.244 16.7097" stroke="#FFB304" stroke-width="0.73" stroke-miterlimit="10"/>
<path d="M138.814 105.361C138.814 105.361 134.491 101.876 133.661 101.702C132.831 101.528 129.501 105.361 129.501 105.361C129.501 105.361 122.181 106.386 121.515 107.19C120.849 107.995 118.523 114.846 118.687 115.676C118.851 116.506 120.849 119.171 120.849 119.668C120.849 120.165 118.339 126.155 118.682 127.656C119.025 129.158 127.964 129.65 128.733 129.983C129.501 130.316 130.5 134.477 131.33 134.641C132.16 134.805 151.124 129.004 152.123 128.323C153.122 127.641 152.461 122.686 153.204 122.496C153.946 122.307 157.942 118.335 157.942 117.341C157.942 116.347 150.135 101.533 148.383 101.036C146.631 100.539 138.814 105.361 138.814 105.361Z" fill="#FF8302"/>
<path d="M138.814 105.361C139.977 106.524 144.136 116.475 144.136 117.823C144.136 119.171 132.354 127.989 131.494 127.82C130.633 127.651 121.581 121.789 122.35 120.17C123.118 118.551 131.33 111.746 131.996 110.552C132.662 109.358 133.225 103.695 133.225 103.695" stroke="#FFB304" stroke-width="0.73" stroke-miterlimit="10"/>
<path d="M127.17 118.669C127.17 118.669 134.824 116.844 136.155 115.758C137.487 114.672 140.899 109.219 140.899 109.219" stroke="#FFB304" stroke-width="0.73" stroke-miterlimit="10"/>
<path d="M142.21 112.222C142.21 112.222 149.075 113.216 149.935 113.944C150.796 114.672 153.209 122.496 153.209 122.496" stroke="#FFB304" stroke-width="0.73" stroke-miterlimit="10"/>
<path d="M134.014 134.026C134.014 134.026 147.021 124.69 147.687 123.526C148.352 122.363 146.821 113.022 146.821 113.022" stroke="#FFB304" stroke-width="0.73" stroke-miterlimit="10"/>
</svg>
